<?xml version="1.0" encoding="utf-8" standalone="yes"?>
<!DOCTYPE svg PUBLIC "-//W3C//DTD SVG 1.1//EN" "http://www.w3.org/Graphics/SVG/1.1/DTD/svg11.dtd">
<svg width="984" height="528" viewBox="0 0 984 528" style="fill:none;stroke:none;fill-rule:evenodd;clip-rule:evenodd;stroke-linecap:round;stroke-linejoin:round;stroke-miterlimit:1.5;" version="1.1" xmlns="http://www.w3.org/2000/svg" xmlns:xlink="http://www.w3.org/1999/xlink"><style class="text-font-style fontImports" data-font-family="Roboto">@import url('https://fonts.googleapis.com/css2?family=Roboto:wght@400;700&amp;display=block');</style><g id="items" style="isolation: isolate"><g id="blend" style="mix-blend-mode: normal"><g id="g-root-cp_0_g-0_1d2zmobqpc6xa-fill" data-item-order="-393083" transform="translate(38.13099670410156, 236.5)"></g><g id="g-root-cp_1_g-1_18nslmzqpc4js-fill" data-item-order="-393060" transform="translate(77.13099670410156, 113)"><g id="cp_1_g-1_18nslmzqpc4js-fill" stroke="none" fill="#4f91fc"><g><path d="M 100 55C 100 66.244 94.5 77.5875 89 86L 55.816 132.848C 55.4175 133.411 54.5825 133.411 54.184 132.848L 21 86C 14.5 77 10 66.7284 10 55C 10 30.1472 30.1472 10 55 10C 79.8528 10 100 30.1472 100 55ZM 55 91C 74.8822 91 91 74.8822 91 55C 91 35.1177 74.8822 19 55 19C 35.1177 19 19 35.1177 19 55C 19 74.8822 35.1177 91 55 91Z"></path></g></g><g id="cp_1_g-1_18nslmzqpc4js-fill" stroke="none" fill="#4f91fc"><g><path d="M 55 187C 61.6274 187 67 181.6274 67 175C 67 168.3726 61.6274 163 55 163C 48.3726 163 43 168.3726 43 175C 43 181.6274 48.3726 187 55 187ZM 55 181C 58.3137 181 61 178.3137 61 175C 61 171.6863 58.3137 169 55 169C 51.6863 169 49 171.6863 49 175C 49 178.3137 51.6863 181 55 181Z"></path></g></g></g><g id="g-root-cp_2_g-2_147z3ijqpc5c3-fill" data-item-order="-393056" transform="translate(257.1309814453125, 266)"><g id="cp_2_g-2_147z3ijqpc5c3-fill" stroke="none" fill="#1ac3fb"><g><path d="M 100 142.000369C 100 130.756469 94.5 119.412869 89 111.000369L 55.816 64.152469C 55.4175 63.589769 54.5825 63.589769 54.184 64.152469L 21 111.000369C 14.5 120.000369 10 130.271969 10 142.000369C 10 166.853469 30.1472 187.000469 55 187.000469C 79.8528 187.000469 100 166.853469 100 142.000369ZM 55 106.000369C 74.8822 106.000369 91 122.118169 91 142.000369C 91 161.882669 74.8822 178.000469 55 178.000469C 35.1177 178.000469 19 161.882669 19 142.000369C 19 122.118169 35.1177 106.000369 55 106.000369Z"></path></g></g><g id="cp_2_g-2_147z3ijqpc5c3-fill" stroke="none" fill="#1ac3fb"><g><path d="M 55 34C 61.6274 34 67 28.6274 67 22C 67 15.3726 61.6274 10 55 10C 48.3726 10 43 15.3726 43 22C 43 28.6274 48.3726 34 55 34ZM 55 28C 58.3137 28 61 25.3137 61 22C 61 18.6863 58.3137 16 55 16C 51.6863 16 49 18.6863 49 22C 49 25.3137 51.6863 28 55 28Z"></path></g></g></g><g id="g-root-cp_3_g-3_vcc39nqpc64u-fill" data-item-order="-393050" transform="translate(437.1310119628906, 113)"><g id="cp_3_g-3_vcc39nqpc64u-fill" stroke="none" fill="#43dd93"><g><path d="M 100 55C 100 66.244 94.5 77.5875 89 86L 55.816 132.848C 55.4175 133.411 54.5825 133.411 54.184 132.848L 21 86C 14.5 77 10 66.7284 10 55C 10 30.1472 30.1472 10 55 10C 79.8528 10 100 30.1472 100 55ZM 55 91C 74.8822 91 91 74.8822 91 55C 91 35.1177 74.8822 19 55 19C 35.1177 19 19 35.1177 19 55C 19 74.8822 35.1177 91 55 91Z"></path></g></g><g id="cp_3_g-3_vcc39nqpc64u-fill" stroke="none" fill="#43dd93"><g><path d="M 55 187C 61.6274 187 67 181.6274 67 175C 67 168.3726 61.6274 163 55 163C 48.3726 163 43 168.3726 43 175C 43 181.6274 48.3726 187 55 187ZM 55 181C 58.3137 181 61 178.3137 61 175C 61 171.6863 58.3137 169 55 169C 51.6863 169 49 171.6863 49 175C 49 178.3137 51.6863 181 55 181Z"></path></g></g></g><g id="g-root-cp_4_g-4_zs5le3qpc64h-fill" data-item-order="-393044" transform="translate(617.1309814453125, 266)"><g id="cp_4_g-4_zs5le3qpc64h-fill" stroke="none" fill="#a6da37"><g><path d="M 100 142.000369C 100 130.756469 94.5 119.412869 89 111.000369L 55.816 64.152469C 55.4175 63.589769 54.5825 63.589769 54.184 64.152469L 21 111.000369C 14.5 120.000369 10 130.271969 10 142.000369C 10 166.853469 30.1472 187.000469 55 187.000469C 79.8528 187.000469 100 166.853469 100 142.000369ZM 55 106.000369C 74.8822 106.000369 91 122.118169 91 142.000369C 91 161.882669 74.8822 178.000469 55 178.000469C 35.1177 178.000469 19 161.882669 19 142.000369C 19 122.118169 35.1177 106.000369 55 106.000369Z"></path></g></g><g id="cp_4_g-4_zs5le3qpc64h-fill" stroke="none" fill="#a6da37"><g><path d="M 55 34C 61.6274 34 67 28.6274 67 22C 67 15.3726 61.6274 10 55 10C 48.3726 10 43 15.3726 43 22C 43 28.6274 48.3726 34 55 34ZM 55 28C 58.3137 28 61 25.3137 61 22C 61 18.6863 58.3137 16 55 16C 51.6863 16 49 18.6863 49 22C 49 25.3137 51.6863 28 55 28Z"></path></g></g></g><g id="g-root-cp_5_g-5_qwil57qpc6x8-fill" data-item-order="-393038" transform="translate(797.1309814453125, 113)"><g id="cp_5_g-5_qwil57qpc6x8-fill" stroke="none" fill="#ffe711"><g><path d="M 100 55C 100 66.244 94.5 77.5875 89 86L 55.816 132.848C 55.4175 133.411 54.5825 133.411 54.184 132.848L 21 86C 14.5 77 10 66.7284 10 55C 10 30.1472 30.1472 10 55 10C 79.8528 10 100 30.1472 100 55ZM 55 91C 74.8822 91 91 74.8822 91 55C 91 35.1177 74.8822 19 55 19C 35.1177 19 19 35.1177 19 55C 19 74.8822 35.1177 91 55 91Z"></path></g></g><g id="cp_5_g-5_qwil57qpc6x8-fill" stroke="none" fill="#ffe711"><g><path d="M 55 187C 61.6274 187 67 181.6274 67 175C 67 168.3726 61.6274 163 55 163C 48.3726 163 43 168.3726 43 175C 43 181.6274 48.3726 187 55 187ZM 55 181C 58.3137 181 61 178.3137 61 175C 61 171.6863 58.3137 169 55 169C 51.6863 169 49 171.6863 49 175C 49 178.3137 51.6863 181 55 181Z"></path></g></g></g><g id="g-root-tx_beginnin_vagr63qotuz2-fill" data-item-order="0" transform="translate(74.13099670410156, 50)"><g id="tx_beginnin_vagr63qotuz2-fill" stroke="none" fill="#ffb774"><g><text style="font: bold 20px Roboto, sans-serif; white-space: pre;" font-weight="bold" font-size="20px" font-family="Roboto, sans-serif"><tspan x="12.68" y="52" dominant-baseline="ideographic">Beginning</tspan></text></g></g></g><g id="g-root-tx_creation_18gxgujqosgll-fill" data-item-order="0" transform="translate(368, 38)"><g id="tx_creation_18gxgujqosgll-fill" stroke="none" fill="#b09cff"><g><text style="font: bold 25px Roboto, sans-serif; white-space: pre;" font-weight="bold" font-size="25px" font-family="Roboto, sans-serif"><tspan x="39.32" y="42.6" dominant-baseline="ideographic">Creation phase</tspan></text></g></g></g><g id="g-root-ic_2_metqx7qotwjk-fill" data-item-order="0" transform="translate(98.13099670410156, 134)"></g><g id="g-root-ic_3_2qfm3qowqa3-fill" data-item-order="0" transform="translate(458.1309814453125, 134)"></g><g id="g-root-ic_1_146q8i3qoy3nq-fill" data-item-order="0" transform="translate(818.1309814453125, 134)"></g><g id="g-root-tx_globalex_1413yq3qoshdu-fill" data-item-order="0" transform="translate(236.1309814453125, 206)"><g id="tx_globalex_1413yq3qoshdu-fill" stroke="none" fill="#1ac3fb"><g><text style="font: 15px Roboto, sans-serif; white-space: pre;" font-size="15px" font-family="Roboto, sans-serif"><tspan x="20.46" y="27.6" dominant-baseline="ideographic">Global execution </tspan><tspan x="16.52" y="45.6" dominant-baseline="ideographic">context is created</tspan></text></g></g></g><g id="g-root-tx_memoryis_18lasgbqotwjx-fill" data-item-order="0" transform="translate(578.1309814453125, 206)"><g id="tx_memoryis_18lasgbqotwjx-fill" stroke="none" fill="#a6da37"><g><text style="font: 15px Roboto, sans-serif; white-space: pre;" font-size="15px" font-family="Roboto, sans-serif"><tspan x="25.25" y="27.6" dominant-baseline="ideographic">Memory is set up for </tspan><tspan x="16.46" y="45.6" dominant-baseline="ideographic">variables and functions</tspan></text></g></g></g><g id="g-root-tx_javascri_qun91nqotvrb-fill" data-item-order="0" transform="translate(44, 319)"><g id="tx_javascri_qun91nqotvrb-fill" stroke="none" fill="#8ab6ff"><g><text style="font: 15px Roboto, sans-serif; white-space: pre;" font-size="15px" font-family="Roboto, sans-serif"><tspan x="13.07" y="27.6" dominant-baseline="ideographic">JavaScript engine reads </tspan><tspan x="51.99" y="45.6" dominant-baseline="ideographic">source code</tspan></text></g></g></g><g id="g-root-tx_globalob_8ydfuzqowphe-fill" data-item-order="0" transform="translate(398, 314)"><g id="tx_globalob_8ydfuzqowphe-fill" stroke="none" fill="#43dd93"><g><text style="font: 15px Roboto, sans-serif; white-space: pre;" font-size="15px" font-family="Roboto, sans-serif"><tspan x="15.64" y="30.6" dominant-baseline="ideographic">Global object is created</tspan></text></g></g></g><g id="g-root-tx_variable_18mjqmjqoy2vh-fill" data-item-order="0" transform="translate(763, 308)"><g id="tx_variable_18mjqmjqoy2vh-fill" stroke="none" fill="#ffe711"><g><text style="font: 15px Roboto, sans-serif; white-space: pre;" font-size="15px" font-family="Roboto, sans-serif"><tspan x="16.06" y="30.6" dominant-baseline="ideographic">Variables are stored as </tspan><tspan x="13.65" y="48.6" dominant-baseline="ideographic">undefined &amp; function as </tspan><tspan x="59.46" y="66.6" dominant-baseline="ideographic">definition </tspan></text></g></g></g><g id="g-root-ic_1_hriglnqpdjwg-fill" data-item-order="0" transform="translate(278.1310119628906, 374)"></g><g id="g-root-ic_data_qpngcrqosiyr-fill" data-item-order="0" transform="translate(638.1309814453125, 374)"></g><g id="g-root-cp_0_g-0_1d2zmobqpc6xa-stroke" data-item-order="-393083" transform="translate(38.13099670410156, 236.5)"><g id="cp_0_g-0_1d2zmobqpc6xa-stroke" fill="none" stroke-linecap="round" stroke-linejoin="round" stroke-miterlimit="4" stroke="#b7b7b7" stroke-width="2"><g><path d="M 826 51L 898 51M 646 51L 802 51M 814 10L 814 39.5M 106 51L 262 51M 286 51L 442 51M 274 63.5L 274 93M 454 10L 454 39.5M 466 51L 622 51M 634 63.5L 634 93M 10 51L 82 51M 94 10L 94 39.5"></path></g></g></g><g id="g-root-cp_1_g-1_18nslmzqpc4js-stroke" data-item-order="-393060" transform="translate(77.13099670410156, 113)"></g><g id="g-root-cp_2_g-2_147z3ijqpc5c3-stroke" data-item-order="-393056" transform="translate(257.1309814453125, 266)"></g><g id="g-root-cp_3_g-3_vcc39nqpc64u-stroke" data-item-order="-393050" transform="translate(437.1310119628906, 113)"></g><g id="g-root-cp_4_g-4_zs5le3qpc64h-stroke" data-item-order="-393044" transform="translate(617.1309814453125, 266)"></g><g id="g-root-cp_5_g-5_qwil57qpc6x8-stroke" data-item-order="-393038" transform="translate(797.1309814453125, 113)"></g><g id="g-root-tx_beginnin_vagr63qotuz2-stroke" data-item-order="0" transform="translate(74.13099670410156, 50)"></g><g id="g-root-tx_creation_18gxgujqosgll-stroke" data-item-order="0" transform="translate(368, 38)"></g><g id="g-root-ic_2_metqx7qotwjk-stroke" data-item-order="0" transform="translate(98.13099670410156, 134)"><g id="ic_2_metqx7qotwjk-stroke" fill="none" stroke-linecap="round" stroke-linejoin="round" stroke-miterlimit="4" stroke="#4f91fc" stroke-width="2"><g><path d="M 15 11L 53 11C 53 11 57 11 57 15L 57 53C 57 53 57 57 53 57L 15 57C 15 57 11 57 11 53L 11 15C 11 15 11 11 15 11M 11 21L 57 21M 18 15.5C 18.276142 15.5 18.5 15.723858 18.5 16C 18.5 16.276142 18.276142 16.5 18 16.5C 17.723858 16.5 17.5 16.276142 17.5 16C 17.5 15.723858 17.723858 15.5 18 15.5M 24 15.5C 24.276142 15.5 24.5 15.723858 24.5 16C 24.5 16.276142 24.276142 16.5 24 16.5C 23.723858 16.5 23.5 16.276142 23.5 16C 23.5 15.723858 23.723858 15.5 24 15.5M 30 15.5C 30.276142 15.5 30.5 15.723858 30.5 16C 30.5 16.276142 30.276142 16.5 30 16.5C 29.723858 16.5 29.5 16.276142 29.5 16C 29.5 15.723858 29.723858 15.5 30 15.5M 27 21L 27 57M 34 25L 50 25C 50 25 51 25 51 26L 51 34C 51 34 51 35 50 35L 34 35C 34 35 33 35 33 34L 33 26C 33 26 33 25 34 25M 34 41L 50 41C 50 41 51 41 51 42L 51 50C 51 50 51 51 50 51L 34 51C 34 51 33 51 33 50L 33 42C 33 42 33 41 34 41M 15.042 25L 19 25M 19.042 29L 23 29M 19.042 33L 23 33M 19.042 37L 23 37M 15.042 41L 19 41M 19.042 45L 23 45M 19.042 49L 23 49"></path></g></g></g><g id="g-root-ic_3_2qfm3qowqa3-stroke" data-item-order="0" transform="translate(458.1309814453125, 134)"><g id="ic_3_2qfm3qowqa3-stroke" fill="none" stroke-linecap="round" stroke-linejoin="round" stroke-miterlimit="4" stroke="#43dd93" stroke-width="2"><g><path d="M 56.999969 33.881985C 57.006596 46.626499 46.6805 56.963341 33.935982 56.969967C 21.136681 56.757404 10.900541 46.268665 10.999999 33.467983C 11.010239 21.241159 20.785963 11.262014 33.009987 10.999999C 33.341984 10.985999 33.673985 10.98 34.009983 10.98C 40.102119 10.946954 45.955563 13.346395 50.271671 17.645981C 54.587776 21.945566 57.009647 27.789764 56.999966 33.881981ZM 33.009987 10.999999C 21.009993 23.99999 21.009993 40.95998 33.009987 56.959969M 35.009983 10.999999C 47.009975 23.99999 47.009975 40.953979 35.009983 56.953968M 14.771996 20.967993L 53.039974 20.967993M 11.006 32.967987L 56.999969 32.967987M 13.969997 44.967976L 54.169968 44.967976"></path></g></g></g><g id="g-root-ic_1_146q8i3qoy3nq-stroke" data-item-order="0" transform="translate(818.1309814453125, 134)"><g id="ic_1_146q8i3qoy3nq-stroke" fill="none" stroke-linecap="round" stroke-linejoin="round" stroke-miterlimit="4" stroke="#ffe711" stroke-width="2"><g><path d="M 49 35L 49 22.956001C 49.003315 16.353855 43.652145 10.999999 37.049999 11L 13 11C 11.895431 11 11 11.895431 11 13L 11 55C 11 56.104568 11.895431 57 13 57L 31 57M 39 11.168L 39 19C 39 20.104568 39.895432 21 41 21L 48.84 21M 45 41L 45 53C 45 55.209141 43.209141 57 41 57C 38.790863 57 37 55.209141 37 53M 57 41L 52.708 41C 50.988789 41.000622 49.49548 42.182915 49.100517 43.856144C 48.705555 45.529377 49.512539 47.25465 51.050003 48.024002L 54.950001 49.973999C 56.489811 50.742203 57.298763 52.46883 56.903545 54.143627C 56.508324 55.818424 55.012798 57.00124 53.292 57L 49 57"></path></g></g></g><g id="g-root-tx_globalex_1413yq3qoshdu-stroke" data-item-order="0" transform="translate(236.1309814453125, 206)"></g><g id="g-root-tx_memoryis_18lasgbqotwjx-stroke" data-item-order="0" transform="translate(578.1309814453125, 206)"></g><g id="g-root-tx_javascri_qun91nqotvrb-stroke" data-item-order="0" transform="translate(44, 319)"></g><g id="g-root-tx_globalob_8ydfuzqowphe-stroke" data-item-order="0" transform="translate(398, 314)"></g><g id="g-root-tx_variable_18mjqmjqoy2vh-stroke" data-item-order="0" transform="translate(763, 308)"></g><g id="g-root-ic_1_hriglnqpdjwg-stroke" data-item-order="0" transform="translate(278.1310119628906, 374)"><g id="ic_1_hriglnqpdjwg-stroke" fill="none" stroke-linecap="round" stroke-linejoin="round" stroke-miterlimit="4" stroke="#1ac3fb" stroke-width="2"><g><path d="M 27.999989 13.999997L 27.999989 17.999994M 29.999987 15.999996L 25.999989 15.999996M 41.999977 51.999973L 41.999977 55.999969M 43.999977 53.999969L 39.999981 53.999969M 55.999969 37.999981L 52.599972 37.999981C 51.164032 37.999981 49.999973 39.16404 49.999973 40.599979C 49.99847 41.474728 50.433628 42.292519 51.159969 42.779976L 54.83997 45.219978C 55.566311 45.707432 56.001469 46.525227 55.999966 47.399975C 55.999969 48.835915 54.835911 49.999973 53.399971 49.999973L 49.999973 49.999973M 53.999969 37.999981L 53.999969 35.999985M 51.999973 51.999973L 51.999973 49.999973M 17.999994 13.999997L 14.599997 13.999997C 13.164058 13.999997 11.999999 15.164056 11.999999 16.599995C 11.998497 17.474745 12.433654 18.29254 13.159998 18.779993L 16.839996 21.219994C 17.566339 21.707447 18.001495 22.525242 17.999994 23.39999C 17.999994 24.83593 16.835936 25.999989 15.399997 25.999989L 11.999999 25.999989M 15.999996 13.999997L 15.999996 11.999999M 13.999997 27.999989L 13.999997 25.999989M 26.839989 32.219986L 36.119984 41.499981M 23.219992 51.999973C 20.239992 54.979969 14.519997 53.999969 14.519997 53.999969C 14.519997 53.999969 13.459998 48.279972 16.519997 45.299976C 17.34169 44.315056 18.571793 43.764267 19.853743 43.807259C 21.135693 43.850254 22.32613 44.48222 23.07999 45.519974C 24.071329 46.292545 24.662426 47.470177 24.689573 48.726707C 24.716721 49.983246 24.177038 51.185303 23.21999 51.999969ZM 51.839973 16.499996C 34.879982 14.799997 29.839987 26.779989 23.839991 37.699982L 30.619987 44.479977C 41.559978 38.45998 53.539974 33.459984 51.839973 16.499996ZM 27.519989 31.039988L 24.89999 30.159986C 23.087872 29.669016 21.151941 30.196997 19.839993 31.539986L 17.019995 34.359985C 16.692223 34.69067 16.556398 35.16605 16.659996 35.619984C 16.788229 36.044468 17.143616 36.361221 17.579994 36.43998L 23.859991 37.699982M 37.359982 40.79998L 38.179981 43.439976C 38.670952 45.252094 38.142971 47.188026 36.79998 48.499973L 33.999985 51.319973C 33.681889 51.65493 33.207996 51.792511 32.759987 51.679974C 32.325096 51.562431 31.997585 51.203732 31.919983 50.759972L 30.659986 44.479977M 38.059982 26.679989C 38.059982 28.668215 39.671757 30.279987 41.659981 30.279987C 43.648201 30.279987 45.259979 28.668215 45.259979 26.679989C 45.259979 24.691765 43.648201 23.079992 41.659981 23.079992C 39.671757 23.079992 38.059982 24.691765 38.059982 26.679989"></path></g></g></g><g id="g-root-ic_data_qpngcrqosiyr-stroke" data-item-order="0" transform="translate(638.1309814453125, 374)"><g id="ic_data_qpngcrqosiyr-stroke" fill="none" stroke-linecap="round" stroke-linejoin="round" stroke-miterlimit="4" stroke="#a6da37" stroke-width="2"><g><path d="M 52.414001 19C 52.789101 19.374985 52.999886 19.88361 53 20.414L 53 55C 53 56.104568 52.104568 57 51 57L 17 57C 15.895431 57 15 56.104568 15 55L 15 13C 15 11.895431 15.895431 11 17 11L 43.585999 11C 44.118408 11.003817 44.627319 11.219762 45 11.6ZM 45 29.129999C 45 31.444 40.021999 33.388 33.973999 33.388C 27.926001 33.388 23.028 31.514 23.028 29.188C 23.028 26.862 27.93 25 33.973999 25C 40.017998 25 45 26.813999 45 29.129999ZM 45 36.034C 45 38.349998 40.021999 40.293999 33.973999 40.293999C 27.926001 40.293999 23.028 38.416 23.028 36.094002M 23.028 29.200001L 23.028 42.821999C 23.028 45.133999 27.927999 47.021999 33.973999 47.021999C 40.02 47.021999 45 45.076 45 42.762001L 45 29.129999"></path></g></g></g></g></g></svg>