<?xml version="1.0" encoding="utf-8" standalone="yes"?>
<!DOCTYPE svg PUBLIC "-//W3C//DTD SVG 1.1//EN" "http://www.w3.org/Graphics/SVG/1.1/DTD/svg11.dtd">
<svg width="864" height="480" viewBox="0 0 864 480" style="fill:none;stroke:none;fill-rule:evenodd;clip-rule:evenodd;stroke-linecap:round;stroke-linejoin:round;stroke-miterlimit:1.5;" version="1.1" xmlns="http://www.w3.org/2000/svg" xmlns:xlink="http://www.w3.org/1999/xlink"><style class="text-font-style fontImports" data-font-family="Roboto">@import url('https://fonts.googleapis.com/css2?family=Roboto:wght@400;700&amp;display=block');</style><g id="items" style="isolation: isolate"><g id="blend" style="mix-blend-mode: normal"><g id="g-root-sy_-1_line_dgpmr3vyqf43-fill" data-item-order="-4889" transform="translate(761, 277.99609375)"></g><g id="g-root-sy_-1_vector_4lp3lbvyqcr0-fill" data-item-order="-4885" transform="translate(14, 277.99609375)"></g><g id="g-root-sy_8_cu-smallCircle_4lp3lbvyqcr1-fill" data-item-order="-4881" transform="translate(755, 275)"></g><g id="g-root-sy_7_cu-smallCircle_5vlgvvyqdja-fill" data-item-order="-4877" transform="translate(659, 275)"></g><g id="g-root-sy_6_cu-smallCircle_5vlgvvyqdjb-fill" data-item-order="-4873" transform="translate(563, 275)"></g><g id="g-root-sy_5_cu-smallCircle_5vlgvvyqdjc-fill" data-item-order="-4869" transform="translate(467, 275)"></g><g id="g-root-sy_4_cu-smallCircle_1ur65bjvyqe4h-fill" data-item-order="-4865" transform="translate(371, 275)"></g><g id="g-root-sy_3_cu-smallCircle_1ur65bjvyqe4i-fill" data-item-order="-4861" transform="translate(275, 275)"></g><g id="g-root-sy_2_cu-smallCircle_1lvj52nvyqex7-fill" data-item-order="-4857" transform="translate(179, 275)"></g><g id="g-root-sy_1_cu-smallCircle_1lvj52nvyqex8-fill" data-item-order="-4853" transform="translate(83, 275)"></g><g id="g-root-ic_3_vccyunvyt6vb-fill" data-item-order="0" transform="translate(638, 218)"></g><g id="g-root-ic_csv_i09ze7vz06ix-fill" data-item-order="0" transform="translate(446, 218)"></g><g id="g-root-tx_function_1hgc41bvyqcjp-fill" data-item-order="0" transform="translate(710, 350)"><g id="tx_function_1hgc41bvyqcjp-fill" stroke="none" fill="#f366bb"><g><text style="font: 20px Roboto, sans-serif; white-space: pre;" font-size="20px" font-family="Roboto, sans-serif"><tspan x="16.9" y="34" dominant-baseline="ideographic">Function </tspan><tspan x="20.97" y="58" dominant-baseline="ideographic">Context </tspan><tspan x="20.76" y="82" dominant-baseline="ideographic">Created</tspan></text></g></g></g><g id="g-root-ic_1_hu18j3vz5vri-fill" data-item-order="0" transform="translate(254, 218)"></g><g id="g-root-ic_sear_18egg33vynklc-fill" data-item-order="0" transform="translate(62, 218)"></g><g id="g-root-tx_globalco_18kp3sfvyqdce-fill" data-item-order="0" transform="translate(590, 158)"><g id="tx_globalco_18kp3sfvyqdce-fill" stroke="none" fill="#fb6762"><g><text style="font: 20px Roboto, sans-serif; white-space: pre;" font-size="20px" font-family="Roboto, sans-serif"><tspan x="14.27" y="34" dominant-baseline="ideographic">Global Context </tspan><tspan x="44.97" y="58" dominant-baseline="ideographic">Created</tspan></text></g></g></g><g id="g-root-tx_generate_qu1kdrvyqcjs-fill" data-item-order="0" transform="translate(410, 158)"><g id="tx_generate_qu1kdrvyqcjs-fill" stroke="none" fill="#ffe711"><g><text style="font: 20px Roboto, sans-serif; white-space: pre;" font-size="20px" font-family="Roboto, sans-serif"><tspan x="24.69" y="34" dominant-baseline="ideographic">Generates </tspan><tspan x="13.38" y="58" dominant-baseline="ideographic">Source Code</tspan></text></g></g></g><g id="g-root-tx_parserpa_dil20fvyqe4q-fill" data-item-order="0" transform="translate(206, 158)"><g id="tx_parserpa_dil20fvyqe4q-fill" stroke="none" fill="#3bc482"><g><text style="font: 20px Roboto, sans-serif; white-space: pre;" font-size="20px" font-family="Roboto, sans-serif"><tspan x="17.39" y="34" dominant-baseline="ideographic">Parser Parses </tspan><tspan x="56.36" y="58" dominant-baseline="ideographic">Code</tspan></text></g></g></g><g id="g-root-ic_docu_hz14drvykrgv-fill" data-item-order="0" transform="translate(158, 290)"></g><g id="g-root-ic_1_m8lshbvz4g79-fill" data-item-order="0" transform="translate(350, 290)"></g><g id="g-root-ic_circ_8ye8a7vyyt4w-fill" data-item-order="0" transform="translate(542, 290)"></g><g id="g-root-ic_on_1ut1kkvvyqd52-fill" data-item-order="0" transform="translate(734, 290)"></g><g id="g-root-tx_enginesc_7r0q7vyqcjw-fill" data-item-order="0" transform="translate(20, 158)"><g id="tx_enginesc_7r0q7vyqcjw-fill" stroke="none" fill="#4f91fc"><g><text style="font: 20px Roboto, sans-serif; white-space: pre;" font-size="20px" font-family="Roboto, sans-serif"><tspan x="13.66" y="34" dominant-baseline="ideographic">Engine Scans </tspan><tspan x="47.64" y="58" dominant-baseline="ideographic">Script</tspan></text></g></g></g><g id="g-root-tx_createse_dil20fvyqe4r-fill" data-item-order="0" transform="translate(134, 350)"><g id="tx_createse_dil20fvyqe4r-fill" stroke="none" fill="#1ac3fb"><g><text style="font: 20px Roboto, sans-serif; white-space: pre;" font-size="20px" font-family="Roboto, sans-serif"><tspan x="21.24" y="34" dominant-baseline="ideographic">Creates </tspan><tspan x="11.99" y="58" dominant-baseline="ideographic">Execution </tspan><tspan x="20.98" y="82" dominant-baseline="ideographic">Context</tspan></text></g></g></g><g id="g-root-tx_allocate_me829bvyqdc1-fill" data-item-order="0" transform="translate(326, 350)"><g id="tx_allocate_me829bvyqdc1-fill" stroke="none" fill="#a6da37"><g><text style="font: 20px Roboto, sans-serif; white-space: pre;" font-size="20px" font-family="Roboto, sans-serif"><tspan x="14.02" y="34" dominant-baseline="ideographic">Allocates </tspan><tspan x="18.79" y="58" dominant-baseline="ideographic">Memory</tspan></text></g></g></g><g id="g-root-tx_executes_v98lf3vyqexb-fill" data-item-order="0" transform="translate(494, 350)"><g id="tx_executes_v98lf3vyqexb-fill" stroke="none" fill="#f79438"><g><text style="font: 20px Roboto, sans-serif; white-space: pre;" font-size="20px" font-family="Roboto, sans-serif"><tspan x="16.03" y="34" dominant-baseline="ideographic">Executes Code</tspan></text></g></g></g><g id="g-root-tx_javascri_1ut1kkvvyqd51-fill" data-item-order="0" transform="translate(248, 38)"><g id="tx_javascri_1ut1kkvvyqd51-fill" stroke="none" fill="#7f64e9"><g><text style="font: 20px Roboto, sans-serif; white-space: pre;" font-size="20px" font-family="Roboto, sans-serif"><tspan x="15.36" y="34" dominant-baseline="ideographic">JavaScript Execution Context Process</tspan></text></g></g></g><g id="g-root-sy_-1_line_dgpmr3vyqf43-stroke" data-item-order="-4889" transform="translate(761, 277.99609375)"><g id="sy_-1_line_dgpmr3vyqf43-stroke" fill="none" stroke-linecap="round" stroke-linejoin="round" stroke-miterlimit="4" stroke="#ababab" stroke-width="2"><g><path d="M 77 10.003906L 10 10.003906"></path><path d="M 71 16.503906L 77.5 10.003906L 71 3.503906" stroke-dasharray="none"></path></g></g></g><g id="g-root-sy_-1_vector_4lp3lbvyqcr0-stroke" data-item-order="-4885" transform="translate(14, 277.99609375)"><g id="sy_-1_vector_4lp3lbvyqcr0-stroke" fill="none" stroke-linecap="round" stroke-linejoin="round" stroke-miterlimit="4" stroke="#ababab" stroke-width="2"><g><path d="M 751 9.999992L 661 9.999992M 655 9.999992L 565 9.999992M 559 9.999992L 469 9.999992M 463 9.999992L 373 9.999992M 367 9.999992L 277 9.999992M 271 9.999992L 181 9.999992M 174.9976 9.999992L 84.9976 9.999992M 78.9976 9.999992L 10 9.999992"></path></g></g></g><g id="g-root-sy_8_cu-smallCircle_4lp3lbvyqcr1-stroke" data-item-order="-4881" transform="translate(755, 275)"><g id="sy_8_cu-smallCircle_4lp3lbvyqcr1-stroke" fill="none" stroke-linecap="round" stroke-linejoin="round" stroke-miterlimit="4" stroke="#ababab" stroke-width="2"><g><path d="M 16 13C 16 14.6569 14.6569 16 13 16C 11.3431 16 10 14.6569 10 13C 10 11.3431 11.3431 10 13 10C 14.6569 10 16 11.3431 16 13Z"></path></g></g></g><g id="g-root-sy_7_cu-smallCircle_5vlgvvyqdja-stroke" data-item-order="-4877" transform="translate(659, 275)"><g id="sy_7_cu-smallCircle_5vlgvvyqdja-stroke" fill="none" stroke-linecap="round" stroke-linejoin="round" stroke-miterlimit="4" stroke="#ababab" stroke-width="2"><g><path d="M 16 13C 16 14.6569 14.6569 16 13 16C 11.3431 16 10 14.6569 10 13C 10 11.3431 11.3431 10 13 10C 14.6569 10 16 11.3431 16 13Z"></path></g></g></g><g id="g-root-sy_6_cu-smallCircle_5vlgvvyqdjb-stroke" data-item-order="-4873" transform="translate(563, 275)"><g id="sy_6_cu-smallCircle_5vlgvvyqdjb-stroke" fill="none" stroke-linecap="round" stroke-linejoin="round" stroke-miterlimit="4" stroke="#ababab" stroke-width="2"><g><path d="M 16 13C 16 14.6569 14.6569 16 13 16C 11.3431 16 10 14.6569 10 13C 10 11.3431 11.3431 10 13 10C 14.6569 10 16 11.3431 16 13Z"></path></g></g></g><g id="g-root-sy_5_cu-smallCircle_5vlgvvyqdjc-stroke" data-item-order="-4869" transform="translate(467, 275)"><g id="sy_5_cu-smallCircle_5vlgvvyqdjc-stroke" fill="none" stroke-linecap="round" stroke-linejoin="round" stroke-miterlimit="4" stroke="#ababab" stroke-width="2"><g><path d="M 16 13C 16 14.6569 14.6569 16 13 16C 11.3431 16 10 14.6569 10 13C 10 11.3431 11.3431 10 13 10C 14.6569 10 16 11.3431 16 13Z"></path></g></g></g><g id="g-root-sy_4_cu-smallCircle_1ur65bjvyqe4h-stroke" data-item-order="-4865" transform="translate(371, 275)"><g id="sy_4_cu-smallCircle_1ur65bjvyqe4h-stroke" fill="none" stroke-linecap="round" stroke-linejoin="round" stroke-miterlimit="4" stroke="#ababab" stroke-width="2"><g><path d="M 16 13C 16 14.6569 14.6569 16 13 16C 11.3431 16 10 14.6569 10 13C 10 11.3431 11.3431 10 13 10C 14.6569 10 16 11.3431 16 13Z"></path></g></g></g><g id="g-root-sy_3_cu-smallCircle_1ur65bjvyqe4i-stroke" data-item-order="-4861" transform="translate(275, 275)"><g id="sy_3_cu-smallCircle_1ur65bjvyqe4i-stroke" fill="none" stroke-linecap="round" stroke-linejoin="round" stroke-miterlimit="4" stroke="#ababab" stroke-width="2"><g><path d="M 16 13C 16 14.6569 14.6569 16 13 16C 11.3431 16 10 14.6569 10 13C 10 11.3431 11.3431 10 13 10C 14.6569 10 16 11.3431 16 13Z"></path></g></g></g><g id="g-root-sy_2_cu-smallCircle_1lvj52nvyqex7-stroke" data-item-order="-4857" transform="translate(179, 275)"><g id="sy_2_cu-smallCircle_1lvj52nvyqex7-stroke" fill="none" stroke-linecap="round" stroke-linejoin="round" stroke-miterlimit="4" stroke="#ababab" stroke-width="2"><g><path d="M 16 13C 16 14.6569 14.6569 16 13 16C 11.3431 16 10 14.6569 10 13C 10 11.3431 11.3431 10 13 10C 14.6569 10 16 11.3431 16 13Z"></path></g></g></g><g id="g-root-sy_1_cu-smallCircle_1lvj52nvyqex8-stroke" data-item-order="-4853" transform="translate(83, 275)"><g id="sy_1_cu-smallCircle_1lvj52nvyqex8-stroke" fill="none" stroke-linecap="round" stroke-linejoin="round" stroke-miterlimit="4" stroke="#ababab" stroke-width="2"><g><path d="M 16 13C 16 14.6569 14.6569 16 13 16C 11.3431 16 10 14.6569 10 13C 10 11.3431 11.3431 10 13 10C 14.6569 10 16 11.3431 16 13Z"></path></g></g></g><g id="g-root-ic_3_vccyunvyt6vb-stroke" data-item-order="0" transform="translate(638, 218)"><g id="ic_3_vccyunvyt6vb-stroke" fill="none" stroke-linecap="round" stroke-linejoin="round" stroke-miterlimit="4" stroke="#fb6762" stroke-width="2"><g><path d="M 57 33.882C 57.006626 46.626522 46.680523 56.963371 33.935997 56.969997C 21.136688 56.757435 10.900542 46.268688 11 33.467999C 11.010239 21.241167 20.785971 11.262015 33.010002 11C 33.341999 10.986 33.674 10.98 34.010002 10.98C 40.102139 10.946955 45.955585 13.346396 50.271698 17.645985C 54.587807 21.945574 57.009678 27.789776 56.999996 33.881996ZM 33.010002 11C 21.01 24 21.01 40.959999 33.010002 56.959999M 35.010002 11C 47.009998 24 47.009998 40.954002 35.010002 56.953999M 14.771999 20.968L 53.040001 20.968M 11.006001 32.968002L 57 32.968002M 13.97 44.967999L 54.169998 44.967999"></path></g></g></g><g id="g-root-ic_csv_i09ze7vz06ix-stroke" data-item-order="0" transform="translate(446, 218)"><g id="ic_csv_i09ze7vz06ix-stroke" fill="none" stroke-linecap="round" stroke-linejoin="round" stroke-miterlimit="4" stroke="#ffe711" stroke-width="2"><g><path d="M 51 57C 52.104568 57 53 56.104568 53 55L 53 22.956001C 53.003315 16.353855 47.652145 10.999999 41.049999 11L 17 11C 15.895431 11 15 11.895431 15 13L 15 55C 15 56.104568 15.895431 57 17 57ZM 43 11.168L 43 19C 43 20.104568 43.895432 21 45 21L 52.84 21M 27 47C 23.686291 47 21 44.313709 21 41C 21 37.686295 23.686291 35 27 35M 37 35L 33.599998 35C 32.448231 34.992489 31.428791 35.743656 31.094774 36.845955C 30.760759 37.94825 31.191784 39.138935 32.153999 39.771999L 35.834 42.226002C 36.796234 42.857189 37.229076 44.045841 36.898022 45.147976C 36.566963 46.250114 35.550777 47.00351 34.400002 47L 31 47M 47 35L 47 38C 47.000004 41.245552 45.947334 44.403561 44 47.000004C 42.05267 44.403561 41 41.245552 41 38L 41 35"></path></g></g></g><g id="g-root-tx_function_1hgc41bvyqcjp-stroke" data-item-order="0" transform="translate(710, 350)"></g><g id="g-root-ic_1_hu18j3vz5vri-stroke" data-item-order="0" transform="translate(254, 218)"><g id="ic_1_hu18j3vz5vri-stroke" fill="none" stroke-linecap="round" stroke-linejoin="round" stroke-miterlimit="4" stroke="#43dd93" stroke-width="2"><g><path d="M 24.022858 14.08C 25.258335 15.286715 25.992985 16.915182 26.08 18.639999L 32.354286 12.4C 32.790134 11.91136 33.413795 11.631939 34.068573 11.631939C 34.723347 11.631939 35.347008 11.91136 35.782856 12.4L 40.857143 17.68C 40.13644 18.029476 39.476597 18.492525 38.902859 19.05143C 36.366226 21.841013 36.468044 26.131165 39.134155 28.797272C 41.800262 31.463381 46.090416 31.565199 48.879997 29.02857C 49.438904 28.454834 49.901951 27.794989 50.251427 27.074286L 55.600002 32.354286C 56.088642 32.790134 56.368061 33.413795 56.368061 34.068573C 56.368061 34.723347 56.088642 35.347008 55.600002 35.782856L 49.360001 41.920002C 53.124832 42.147659 56.03883 45.306301 55.962902 49.077248C 55.886978 52.84819 52.84819 55.886978 49.077248 55.962902C 45.306301 56.03883 42.147659 53.124832 41.920002 49.360001L 35.645714 55.600002C 35.209866 56.088642 34.586205 56.368061 33.931427 56.368061C 33.276653 56.368061 32.652992 56.088642 32.217144 55.600002L 27.142857 50.32C 27.86356 49.970524 28.523405 49.507477 29.097143 48.948574C 31.852257 46.174526 31.836906 41.692257 29.062859 38.937145C 26.288811 36.182034 21.806541 36.197384 19.05143 38.971432C 18.492525 39.545166 18.029476 40.205009 17.68 40.925716L 12.4 35.645714C 11.91136 35.209866 11.631939 34.586205 11.631939 33.931427C 11.631939 33.276653 11.91136 32.652992 12.4 32.217144L 18.639999 26.08C 16.915182 25.992985 15.286715 25.258335 14.08 24.022858C 11.335168 21.277073 11.335553 16.826168 14.080861 14.080861C 16.826168 11.335553 21.277073 11.335168 24.022856 14.08Z"></path></g></g></g><g id="g-root-ic_sear_18egg33vynklc-stroke" data-item-order="0" transform="translate(62, 218)"><g id="ic_sear_18egg33vynklc-stroke" fill="none" stroke-linecap="round" stroke-linejoin="round" stroke-miterlimit="4" stroke="#4f91fc" stroke-width="2"><g><path d="M 45.166 45.118L 57.077999 57.029999M 11 31C 11 42.045696 19.954306 51 31 51C 42.045696 51 51 42.045696 51 31C 51 19.954306 42.045696 11 31 11C 19.954306 11 11 19.954306 11 31ZM 37.077999 37.029999C 37.078003 40.343712 34.391708 43.030003 31.078001 43.030003C 27.764292 43.030003 25.078001 40.343712 25.078001 37.029999L 25.077999 27.030001L 37.077999 27.030001ZM 37.077999 27.030001C 37.078003 23.716293 34.391708 21.030001 31.078001 21.030001C 27.764292 21.030001 25.078001 23.716293 25.078001 27.030001ZM 42.077999 38.029999C 39.316574 38.029999 37.078003 35.791424 37.078003 33.029999C 37.078003 30.268576 39.316574 28.030001 42.077999 28.030001M 42.077999 33.029999L 37.077999 33.029999M 20.077999 38.029999C 22.839424 38.029999 25.077999 35.791424 25.077999 33.029999C 25.077999 30.268576 22.839424 28.030001 20.077999 28.030001M 20.077999 33.029999L 25.077999 33.029999M 37.077999 18.029999C 37.079662 19.752495 36.339233 21.392223 35.046001 22.530001M 27.110001 22.529999C 25.816338 21.39254 25.075817 19.752605 25.077999 18.029999"></path></g></g></g><g id="g-root-tx_globalco_18kp3sfvyqdce-stroke" data-item-order="0" transform="translate(590, 158)"></g><g id="g-root-tx_generate_qu1kdrvyqcjs-stroke" data-item-order="0" transform="translate(410, 158)"></g><g id="g-root-tx_parserpa_dil20fvyqe4q-stroke" data-item-order="0" transform="translate(206, 158)"></g><g id="g-root-ic_docu_hz14drvykrgv-stroke" data-item-order="0" transform="translate(158, 290)"><g id="ic_docu_hz14drvykrgv-stroke" fill="none" stroke-linecap="round" stroke-linejoin="round" stroke-miterlimit="4" stroke="#1ac3fb" stroke-width="2"><g><path d="M 50.8438 32.966L 50.8438 26.242001C 50.843601 25.446899 50.527802 24.684399 49.965801 24.122L 38.221802 12.378C 37.659401 11.815964 36.896797 11.50017 36.101799 11.5L 14.84376 11.5C 13.20974 11.5 11.84375 12.866 11.84375 14.5L 11.84375 53.5C 11.84375 55.133999 13.20976 56.5 14.84376 56.5L 32.8438 56.5M 50.8438 26.5L 38.8438 26.5C 38.048203 26.5 37.285 26.18392 36.722401 25.621319C 36.159798 25.05872 35.8438 24.295639 35.8438 23.5L 35.8438 11.5M 10 10M 39.5704 44.8204L 56.1562 44.8204M 10 10M 39.5704 38.984398L 56.1562 38.984398M 10 10M 39.5704 50.6562L 56.1562 50.6562M 10 10M 39.5704 56.492199L 56.1562 56.492199"></path></g></g></g><g id="g-root-ic_1_m8lshbvz4g79-stroke" data-item-order="0" transform="translate(350, 290)"><g id="ic_1_m8lshbvz4g79-stroke" fill="none" stroke-linecap="round" stroke-linejoin="round" stroke-miterlimit="4" stroke="#a6da37" stroke-width="2"><g><path d="M 57.125999 23.936001L 24.063999 57L 11.126 44.063999L 25.5 29.688L 27.656 31.844C 28.851603 33.008926 30.761555 32.996292 31.941645 31.815657C 33.121735 30.635019 33.13348 28.725061 31.967999 27.529999L 29.813999 25.375999L 44.186001 11ZM 21.905777 46.217598L 27.655857 40.470123L 31.24856 44.064457L 25.498478 49.811932ZM 40.595001 27.531538L 46.345192 21.781345L 49.938709 25.374863L 44.188519 31.125055ZM 14.752 40.503998L 17.591999 43.344002M 18.346001 36.908001L 21.186001 39.75M 21.939999 33.316002L 24.779999 36.155998M 33.405998 21.779999L 36.279999 24.656M 37 18.188L 39.874001 21.062M 40.594002 14.594L 43.467999 17.468"></path></g></g></g><g id="g-root-ic_circ_8ye8a7vyyt4w-stroke" data-item-order="0" transform="translate(542, 290)"><g id="ic_circ_8ye8a7vyyt4w-stroke" fill="none" stroke-linecap="round" stroke-linejoin="round" stroke-miterlimit="4" stroke="#f79438" stroke-width="2"><g><path d="M 11.714286 34C 11.714287 46.308064 21.69194 56.285713 34 56.285713C 46.308064 56.285713 56.285713 46.308064 56.285713 34C 56.285713 21.69194 46.308064 11.714287 34 11.714287C 21.69194 11.714287 11.714287 21.69194 11.714287 34M 28.857143 25.428572L 42.57143 34L 28.857143 42.57143L 28.857143 25.428572Z"></path></g></g></g><g id="g-root-ic_on_1ut1kkvvyqd52-stroke" data-item-order="0" transform="translate(734, 290)"><g id="ic_on_1ut1kkvvyqd52-stroke" fill="none" stroke-linecap="round" stroke-linejoin="round" stroke-miterlimit="4" stroke="#f366bb" stroke-width="2"><g><path d="M 46 37.428574C 46.022171 31.506199 41.720341 26.453302 35.870296 25.530289C 30.020248 24.607275 24.371649 28.090206 22.569283 33.731705C 20.766918 39.373199 23.34985 45.48597 28.651428 48.125717L 28.651428 54.022858C 28.670025 54.747917 29.263273 55.325954 29.988571 55.325714L 38.011429 55.325714C 38.736725 55.325954 39.329975 54.747917 39.348572 54.022858L 39.348572 48.022858C 43.376583 46.017712 45.944405 41.927727 46 37.428574ZM 34 12.777143L 34 17.92M 47.714287 17.68L 44.079998 21.348572M 55.531429 28.308573L 50.388573 28.308573M 20.285715 17.68L 23.92 21.348572M 12.468572 28.308573L 17.611429 28.308573"></path></g></g></g><g id="g-root-tx_enginesc_7r0q7vyqcjw-stroke" data-item-order="0" transform="translate(20, 158)"></g><g id="g-root-tx_createse_dil20fvyqe4r-stroke" data-item-order="0" transform="translate(134, 350)"></g><g id="g-root-tx_allocate_me829bvyqdc1-stroke" data-item-order="0" transform="translate(326, 350)"></g><g id="g-root-tx_executes_v98lf3vyqexb-stroke" data-item-order="0" transform="translate(494, 350)"></g><g id="g-root-tx_javascri_1ut1kkvvyqd51-stroke" data-item-order="0" transform="translate(248, 38)"></g></g></g></svg>