<?xml version="1.0" encoding="utf-8" standalone="yes"?>
<!DOCTYPE svg PUBLIC "-//W3C//DTD SVG 1.1//EN" "http://www.w3.org/Graphics/SVG/1.1/DTD/svg11.dtd">
<svg width="672" height="636" viewBox="0 0 672 636" style="fill:none;stroke:none;fill-rule:evenodd;clip-rule:evenodd;stroke-linecap:round;stroke-linejoin:round;stroke-miterlimit:1.5;" version="1.1" xmlns="http://www.w3.org/2000/svg" xmlns:xlink="http://www.w3.org/1999/xlink"><style class="text-font-style fontImports" data-font-family="Roboto">@import url('https://fonts.googleapis.com/css2?family=Roboto:wght@400;700&amp;display=block');</style><rect id="" x="0" y="0" width="672" height="636" style="fill: #2b2d31;"></rect><g id="items" style="isolation: isolate"><g id="blend" style="mix-blend-mode: normal"><g id="g-root-tf_1uuwn9cygwjk9-fill" data-item-order="-427392"><g id="tf_1uuwn9cygwjk9-fill" stroke="none" fill="#2b2d31"><g><path d="M 0 0L 672 0L 672 636L 0 636Z"></path></g></g></g><g id="g-root-cr_5_cr-small-5_3ztmoygo5xg-fill" data-item-order="-113797" transform="translate(149.1328125, 282.025390625)"><g id="cr_5_cr-small-5_3ztmoygo5xg-fill" stroke="none" fill="#f79438"><g><path d="M 10 46C 10 65.882251 26.117749 82 46 82C 65.882251 82 82 65.882251 82 46C 82 26.117749 65.882251 10 46 10C 26.117749 10 10 26.117749 10 46"></path></g></g></g><g id="g-root-sy_5_line_1q9gvcwygo6j1-fill" data-item-order="-113792" transform="translate(176.13009643554688, 367.31640625)"></g><g id="g-root-cr_4_cr-small-4_1q9gvcwygo6j2-fill" data-item-order="-113789" transform="translate(199.375, 442.9501953125)"><g id="cr_4_cr-small-4_1q9gvcwygo6j2-fill" stroke="none" fill="#ffe711"><g><path d="M 10 46C 10 65.882251 26.117749 82 46 82C 65.882251 82 82 65.882251 82 46C 82 26.117749 65.882251 10 46 10C 26.117749 10 10 26.117749 10 46"></path></g></g></g><g id="g-root-sy_4_line_1lu9ubkygo45j-fill" data-item-order="-113784" transform="translate(280.4609680175781, 500.52734375)"></g><g id="g-root-cr_3_cr-small-3_1lu9ubkygo45k-fill" data-item-order="-113781" transform="translate(368.5625, 442.9501953125)"><g id="cr_3_cr-small-3_1lu9ubkygo45k-fill" stroke="none" fill="#a6da37"><g><path d="M 10 46C 10 65.882251 26.117749 82 46 82C 65.882251 82 82 65.882251 82 46C 82 26.117749 65.882251 10 46 10C 26.117749 10 10 26.117749 10 46"></path></g></g></g><g id="g-root-sy_3_line_1lu9ubkygo45l-fill" data-item-order="-113776" transform="translate(439.2607421875, 365.5068359375)"></g><g id="g-root-cr_2_cr-small-2_1hegc74ygo4xu-fill" data-item-order="-113773" transform="translate(418.9345703125, 282.025390625)"><g id="cr_2_cr-small-2_1hegc74ygo4xu-fill" stroke="none" fill="#43dd93"><g><path d="M 10 46C 10 65.882251 26.117749 82 46 82C 65.882251 82 82 65.882251 82 46C 82 26.117749 65.882251 10 46 10C 26.117749 10 10 26.117749 10 46"></path></g></g></g><g id="g-root-sy_2_line_1hegc74ygo4xv-fill" data-item-order="-113768" transform="translate(367.90045166015625, 226.6474609375)"></g><g id="g-root-cr_1_cr-small-1_1hegc74ygo4xw-fill" data-item-order="-113765" transform="translate(284, 182)"><g id="cr_1_cr-small-1_1hegc74ygo4xw-fill" stroke="none" fill="#1ac3fb"><g><path d="M 10 46C 10 65.882251 26.117749 82 46 82C 65.882251 82 82 65.882251 82 46C 82 26.117749 65.882251 10 46 10C 26.117749 10 10 26.117749 10 46"></path></g></g></g><g id="g-root-sy_1_line_18itby8ygo5ql-fill" data-item-order="-113760" transform="translate(205.900390625, 226.9970703125)"></g><g id="g-root-tx_starting_dgpa68ygo6iy-fill" data-item-order="0" transform="translate(248, 122)"><g id="tx_starting_dgpa68ygo6iy-fill" stroke="none" fill="#e5f8ff"><g><text style="font: 20px Roboto, sans-serif; white-space: pre;" font-size="20px" font-family="Roboto, sans-serif"><tspan x="16.61" y="34" dominant-baseline="ideographic">Start in Global </tspan><tspan x="44.98" y="58" dominant-baseline="ideographic">Context</tspan></text></g></g></g><g id="g-root-ic_2_4mapsygv66n-fill" data-item-order="0" transform="translate(296, 194)"></g><g id="g-root-ic_paym_91i94wygo45f-fill" data-item-order="0" transform="translate(161, 294)"></g><g id="g-root-ic_plat_1uljiyoygtqti-fill" data-item-order="0" transform="translate(431, 294)"></g><g id="g-root-tx_returnva_142zttsygo6iu-fill" data-item-order="0" transform="translate(14, 308)"><g id="tx_returnva_142zttsygo6iu-fill" stroke="none" fill="#fff0e2"><g><text style="font: 20px Roboto, sans-serif; white-space: pre;" font-size="20px" font-family="Roboto, sans-serif"><tspan x="15.05" y="34" dominant-baseline="ideographic">Return Value</tspan></text></g></g></g><g id="g-root-tx_receiveu_mccaf4ygo5q9-fill" data-item-order="0" transform="translate(506, 296)"><g id="tx_receiveu_mccaf4ygo5q9-fill" stroke="none" fill="#dffff0"><g><text style="font: 20px Roboto, sans-serif; white-space: pre;" font-size="20px" font-family="Roboto, sans-serif"><tspan x="12" y="34" dominant-baseline="ideographic">Receive User </tspan><tspan x="12" y="58" dominant-baseline="ideographic">Input</tspan></text></g></g></g><g id="g-root-ic_2_qteqpsygpkhw-fill" data-item-order="0" transform="translate(212, 455)"></g><g id="g-root-ic_3_zqap4wygqyh9-fill" data-item-order="0" transform="translate(380, 455)"></g><g id="g-root-tx_processd_v7zao0ygo45r-fill" data-item-order="0" transform="translate(104, 530)"><g id="tx_processd_v7zao0ygo45r-fill" stroke="none" fill="#fffbd5"><g><text style="font: 20px Roboto, sans-serif; white-space: pre;" font-size="20px" font-family="Roboto, sans-serif"><tspan x="21.29" y="34" dominant-baseline="ideographic">Process Data</tspan></text></g></g></g><g id="g-root-tx_createne_qs5sjkygo4y0-fill" data-item-order="0" transform="translate(404, 530)"><g id="tx_createne_qs5sjkygo4y0-fill" stroke="none" fill="#f2ffd7"><g><text style="font: 20px Roboto, sans-serif; white-space: pre;" font-size="20px" font-family="Roboto, sans-serif"><tspan x="12" y="34" dominant-baseline="ideographic">Create New </tspan><tspan x="12" y="58" dominant-baseline="ideographic">Context</tspan></text></g></g></g><g id="g-root-tf_1uuwn9cygwjk9-stroke" data-item-order="-427392"></g><g id="g-root-cr_5_cr-small-5_3ztmoygo5xg-stroke" data-item-order="-113797" transform="translate(149.1328125, 282.025390625)"><g id="cr_5_cr-small-5_3ztmoygo5xg-stroke" fill="none" stroke-linecap="round" stroke-linejoin="round" stroke-miterlimit="4" stroke="#2c2c2c" stroke-width="2"><g><path d="M 10 46C 10 65.882251 26.117749 82 46 82C 65.882251 82 82 65.882251 82 46C 82 26.117749 65.882251 10 46 10C 26.117749 10 10 26.117749 10 46"></path></g></g></g><g id="g-root-sy_5_line_1q9gvcwygo6j1-stroke" data-item-order="-113792" transform="translate(176.13009643554688, 367.31640625)"><g id="sy_5_line_1q9gvcwygo6j1-stroke" fill="none" stroke-linecap="round" stroke-linejoin="round" stroke-miterlimit="4" stroke="#f4f4f4" stroke-width="2"><g><path d="M 10.079895 11.932617C 11.359895 39.912617 20.639895 65.792617 35.669895 87.382617"></path><path d="M 17.079895 17.532617L 10.079895 11.532617L 4.079895 18.432617" stroke-dasharray="none"></path></g></g></g><g id="g-root-cr_4_cr-small-4_1q9gvcwygo6j2-stroke" data-item-order="-113789" transform="translate(199.375, 442.9501953125)"><g id="cr_4_cr-small-4_1q9gvcwygo6j2-stroke" fill="none" stroke-linecap="round" stroke-linejoin="round" stroke-miterlimit="4" stroke="#2c2c2c" stroke-width="2"><g><path d="M 10 46C 10 65.882251 26.117749 82 46 82C 65.882251 82 82 65.882251 82 46C 82 26.117749 65.882251 10 46 10C 26.117749 10 10 26.117749 10 46"></path></g></g></g><g id="g-root-sy_4_line_1lu9ubkygo45j-stroke" data-item-order="-113784" transform="translate(280.4609680175781, 500.52734375)"><g id="sy_4_line_1lu9ubkygo45j-stroke" fill="none" stroke-linecap="round" stroke-linejoin="round" stroke-miterlimit="4" stroke="#f4f4f4" stroke-width="2"><g><path d="M 11.999023 11.00293C 23.979023 14.23293 36.589023 15.97293 49.589023 15.97293C 63.319023 15.97293 77.679023 13.88293 90.709023 10.00293"></path><path d="M 19.299023 6.00293L 11.499023 10.80293L 16.299023 18.60293" stroke-dasharray="none"></path></g></g></g><g id="g-root-cr_3_cr-small-3_1lu9ubkygo45k-stroke" data-item-order="-113781" transform="translate(368.5625, 442.9501953125)"><g id="cr_3_cr-small-3_1lu9ubkygo45k-stroke" fill="none" stroke-linecap="round" stroke-linejoin="round" stroke-miterlimit="4" stroke="#2c2c2c" stroke-width="2"><g><path d="M 10 46C 10 65.882251 26.117749 82 46 82C 65.882251 82 82 65.882251 82 46C 82 26.117749 65.882251 10 46 10C 26.117749 10 10 26.117749 10 46"></path></g></g></g><g id="g-root-sy_3_line_1lu9ubkygo45l-stroke" data-item-order="-113776" transform="translate(439.2607421875, 365.5068359375)"><g id="sy_3_line_1lu9ubkygo45l-stroke" fill="none" stroke-linecap="round" stroke-linejoin="round" stroke-miterlimit="4" stroke="#f4f4f4" stroke-width="2"><g><path d="M 11.099243 86.13293C 25.549243 64.20293 34.169243 38.08293 34.739243 10.00293"></path><path d="M 8.699243 77.50293L 10.799243 86.50293L 19.699243 84.40293" stroke-dasharray="none"></path></g></g></g><g id="g-root-cr_2_cr-small-2_1hegc74ygo4xu-stroke" data-item-order="-113773" transform="translate(418.9345703125, 282.025390625)"><g id="cr_2_cr-small-2_1hegc74ygo4xu-stroke" fill="none" stroke-linecap="round" stroke-linejoin="round" stroke-miterlimit="4" stroke="#2c2c2c" stroke-width="2"><g><path d="M 10 46C 10 65.882251 26.117749 82 46 82C 65.882251 82 82 65.882251 82 46C 82 26.117749 65.882251 10 46 10C 26.117749 10 10 26.117749 10 46"></path></g></g></g><g id="g-root-sy_2_line_1hegc74ygo4xv-stroke" data-item-order="-113768" transform="translate(367.90045166015625, 226.6474609375)"><g id="sy_2_line_1hegc74ygo4xv-stroke" fill="none" stroke-linecap="round" stroke-linejoin="round" stroke-miterlimit="4" stroke="#f4f4f4" stroke-width="2"><g><path d="M 74.299573 55.54293C 57.679573 34.91293 35.479573 18.97293 9.999573 10.00293"></path><path d="M 65.399573 55.20293L 74.599573 56.00293L 75.299573 46.80293" stroke-dasharray="none"></path></g></g></g><g id="g-root-cr_1_cr-small-1_1hegc74ygo4xw-stroke" data-item-order="-113765" transform="translate(284, 182)"><g id="cr_1_cr-small-1_1hegc74ygo4xw-stroke" fill="none" stroke-linecap="round" stroke-linejoin="round" stroke-miterlimit="4" stroke="#2c2c2c" stroke-width="2"><g><path d="M 10 46C 10 65.882251 26.117749 82 46 82C 65.882251 82 82 65.882251 82 46C 82 26.117749 65.882251 10 46 10C 26.117749 10 10 26.117749 10 46"></path></g></g></g><g id="g-root-sy_1_line_18itby8ygo5ql-stroke" data-item-order="-113760" transform="translate(205.900390625, 226.9970703125)"><g id="sy_1_line_18itby8ygo5ql-stroke" fill="none" stroke-linecap="round" stroke-linejoin="round" stroke-miterlimit="4" stroke="#f4f4f4" stroke-width="2"><g><path d="M 73.399603 10.703125C 48.109603 20.233125 26.209603 36.663125 9.999603 57.713125"></path><path d="M 70.399603 19.003125L 73.899603 10.603125L 65.399603 7.003125" stroke-dasharray="none"></path></g></g></g><g id="g-root-tx_starting_dgpa68ygo6iy-stroke" data-item-order="0" transform="translate(248, 122)"></g><g id="g-root-ic_2_4mapsygv66n-stroke" data-item-order="0" transform="translate(296, 194)"><g id="ic_2_4mapsygv66n-stroke" fill="none" stroke-linecap="round" stroke-linejoin="round" stroke-miterlimit="4" stroke="#2c2c2c" stroke-width="2"><g><path d="M 12.82 26.976L 14.5 43.391998M 25 48.242001L 25 48.242001L 25 56.75M 13 56.75L 14.5 48.242001M 34 38.293999L 34 56.472M 42.958 21.122C 42.589718 24.857742 39.941444 27.972557 36.313583 28.936949C 32.68573 29.901342 28.840315 28.512743 26.66559 25.453009C 24.490866 22.393272 24.44363 18.305096 26.547077 15.195931C 28.650524 12.086765 32.46283 10.609688 36.112 11.49M 43 13.498L 34.799999 21.698C 34.588268 21.911003 34.300331 22.030773 34 22.030773C 33.699665 22.030773 33.411732 21.911003 33.199997 21.698L 33.200001 21.698L 30.622 19.118M 14.5 43.400002L 24.672001 43.400002C 25.776569 43.400002 26.672001 44.295429 26.672001 45.400002L 26.672001 45.889999C 26.672001 46.994568 25.776569 47.889999 24.672001 47.889999L 14.5 47.889999L 14.5 47.889999L 14.5 43.400002L 14.5 43.400002ZM 55.18 26.976L 53.5 43.391998M 43 48.242001L 43 48.242001L 43 56.75M 55 56.75L 53.5 48.242001M 53.500004 47.875999L 43.328003 47.875999C 42.223434 47.875999 41.328003 46.980572 41.328003 45.875999L 41.328003 45.386002C 41.328003 44.281433 42.223434 43.386002 43.328003 43.386002L 53.500004 43.386002L 53.500004 43.386002L 53.500004 47.875999L 53.500004 47.875999ZM 25.771999 33.75L 42.228001 33.75C 42.228001 33.75 44.5 33.75 44.5 36.021999L 44.5 36.021999C 44.5 36.021999 44.5 38.293999 42.228001 38.293999L 25.771999 38.293999C 25.771999 38.293999 23.5 38.293999 23.5 36.021999L 23.5 36.021999C 23.5 36.021999 23.5 33.75 25.771999 33.75M 31.77 56.472L 36.426003 56.472"></path></g></g></g><g id="g-root-ic_paym_91i94wygo45f-stroke" data-item-order="0" transform="translate(161, 294)"><g id="ic_paym_91i94wygo45f-stroke" fill="none" stroke-linecap="round" stroke-linejoin="round" stroke-miterlimit="4" stroke="#2c2c2c" stroke-width="2"><g><path d="M 20.922001 45.720001C 22.953997 49.345497 26.798012 51.577877 30.953999 51.545998L 35.209999 51.546001M 10 10M 31.610001 56.716L 35.732002 51.431999L 31.716 46.470001M 56.501999 22.4C 54.489609 18.705984 50.606464 16.42038 46.399998 16.454L 42.146 16.454M 10 10M 45.745998 11.284L 41.622002 16.568001L 45.639999 21.529999M 47.015999 52.096001C 48.081749 53.496017 49.763947 54.287464 51.521999 54.216C 54.279999 54.216 56.521999 52.535999 56.521999 50.466C 56.521999 48.396 54.282001 46.717999 51.521999 46.717999C 48.762001 46.717999 46.521999 45.037998 46.521999 42.958C 46.521999 40.877998 48.762001 39.208 51.521999 39.208C 53.279301 39.139721 54.959774 39.931454 56.026001 41.330002M 51.521999 54.216L 51.521999 56.716M 51.521999 36.716L 51.521999 39.216M 12.776 31.156L 14.252 34.043999C 14.936205 35.381218 16.311903 36.222397 17.813999 36.222L 34.954002 36.222C 36.455376 36.221645 37.830124 35.380577 38.514 34.043999L 40 31.156M 11.48 31.156L 41.288002 31.156M 24.439999 17.548C 24.439804 18.62178 25.310219 19.492355 26.383999 19.492355C 27.457781 19.492355 28.328196 18.62178 28.327999 17.548C 28.328196 16.47422 27.457781 15.603645 26.383999 15.603645C 25.310219 15.603645 24.439804 16.47422 24.439999 17.548M 14.719999 31.156C 14.719999 24.714149 19.94215 19.492001 26.383999 19.492001C 32.825851 19.492001 38.047997 24.714149 38.047997 31.156"></path></g></g></g><g id="g-root-ic_plat_1uljiyoygtqti-stroke" data-item-order="0" transform="translate(431, 294)"><g id="ic_plat_1uljiyoygtqti-stroke" fill="none" stroke-linecap="round" stroke-linejoin="round" stroke-miterlimit="4" stroke="#2c2c2c" stroke-width="2"><g><path d="M 30 15C 30 17.209139 31.790861 19 34 19C 36.209137 19 38 17.209139 38 15C 38 12.790861 36.209137 11 34 11C 31.790861 11 30 12.790861 30 15ZM 38 57C 39.104568 57 40 56.104568 40 55L 40 29.308001C 41.16375 30.259514 42.586643 30.839262 44.084 30.972C 44.430599 31.000307 44.77869 31.005651 45.125996 30.987999C 46.980137 30.891815 48.731686 30.107327 50.037998 28.787998L 51.414001 27.412001C 51.933914 26.909851 52.142426 26.166245 51.959393 25.466986C 51.776363 24.767727 51.230274 24.221638 50.531013 24.038605C 49.831757 23.855576 49.08815 24.064087 48.585999 24.584L 47.209999 25.958C 46.464092 26.704052 45.424446 27.078777 44.374092 26.980162C 43.323734 26.881546 42.372005 26.319855 41.778 25.448C 40.66708 23.885883 38.858627 22.97044 36.942001 23L 31.058001 23C 29.137197 22.972162 27.325716 23.891365 26.214001 25.458C 25.619194 26.323713 24.670479 26.880384 23.624607 26.977362C 22.578732 27.074337 21.543839 26.701591 20.799999 25.959999L 19.424 24.586C 18.643085 23.802216 17.374634 23.799934 16.590904 24.580902C 15.807175 25.36187 15.804978 26.630322 16.585999 27.414L 17.962 28.790001C 20.673843 31.525822 25.021923 31.749334 28 29.306L 28 55C 28 56.104568 28.89543 57 30 57ZM 31.058001 23L 33.101997 27.167999C 33.269089 27.512991 33.618675 27.732111 34.001999 27.732111C 34.385323 27.732111 34.734913 27.512991 34.902 27.167999L 36.942001 23M 11 23L 23 23M 22 23C 22 20.238577 19.761425 18 17 18C 14.238577 18 12 20.238577 12 23M 17 18L 17 16M 45 23L 57 23M 56 23C 56 20.238577 53.761425 18 51 18C 48.238575 18 46 20.238577 46 23M 51 18L 51 16M 28 39L 40 39M 34 57L 34 44"></path></g></g></g><g id="g-root-tx_returnva_142zttsygo6iu-stroke" data-item-order="0" transform="translate(14, 308)"></g><g id="g-root-tx_receiveu_mccaf4ygo5q9-stroke" data-item-order="0" transform="translate(506, 296)"></g><g id="g-root-ic_2_qteqpsygpkhw-stroke" data-item-order="0" transform="translate(212, 455)"><g id="ic_2_qteqpsygpkhw-stroke" fill="none" stroke-linecap="round" stroke-linejoin="round" stroke-miterlimit="4" stroke="#2c2c2c" stroke-width="2"><g><path d="M 11 41.487999L 11 57M 37 57L 37 41.487999M 36.400002 40.368C 36.750061 40.639114 36.968231 41.046368 37 41.487999C 37 43.556 31.18 45.231998 24 45.231998C 16.82 45.231998 11 43.556 11 41.487999C 11 40.888 11.498 40.312 12.384 39.806M 37 48.256001C 37 50.324001 31.158001 52 23.952 52C 17.284 52 11.784 50.563999 11 48.712002M 22.512001 20.993999L 21.638 14.846001L 17.162001 11.896L 13.684 15.976L 14.808001 23.880001L 16.382 25.448L 15.306 27.393999L 17.194 40.674M 32.716 41.428001L 32.716 35.548L 31.378 33.771999L 32.716 31.997999L 32.716 24.014L 28.700001 20.466L 24.681999 24.014L 24.681999 31.997999L 26.021999 33.771999L 24.681999 35.548L 24.681999 41.886002M 31.448 13.09C 31.447998 11.934943 32.384941 10.998895 33.540001 11L 54.91 11C 56.064274 11 56.999996 11.935724 56.999996 13.09L 57 40.52C 56.999996 41.674274 56.064274 42.609997 54.909996 42.609997L 44.223999 42.610001M 38.5 16.806L 46.868 16.806M 38.5 22.124001L 51.368 22.124001M 38.5 27.441999L 51.368 27.441999M 38.5 32.760002L 51.368 32.760002"></path></g></g></g><g id="g-root-ic_3_zqap4wygqyh9-stroke" data-item-order="0" transform="translate(380, 455)"><g id="ic_3_zqap4wygqyh9-stroke" fill="none" stroke-linecap="round" stroke-linejoin="round" stroke-miterlimit="4" stroke="#2c2c2c" stroke-width="2"><g><path d="M 30 43C 30.745581 43.666 31.716555 44.023502 32.716003 44L 33.281998 44C 34.282028 44.023407 35.253593 43.665951 36 43M 31 36C 30.568993 35.32309 29.800135 34.93866 29 35C 28.19969 34.937756 27.430391 35.322403 27 36M 39 36C 38.568993 35.32309 37.800133 34.93866 37 35C 36.199692 34.937756 35.430389 35.322403 35 36M 20.646 38.501999C 20.25979 41.352135 18.783703 43.941563 16.528 45.726002C 16.232445 45.893532 16.042164 46.199661 16.022758 46.538841C 16.003353 46.878021 16.15748 47.203854 16.431999 47.403999C 18.091599 48.695992 20.156769 49.355312 22.257999 49.264M 45.369999 38.501999C 45.756115 41.352642 47.233067 43.942326 49.490002 45.726002C 49.785305 45.893894 49.975185 46.200222 49.994186 46.539391C 50.013184 46.878555 49.858707 47.204174 49.584 47.403999C 47.924732 48.696621 45.859329 49.356022 43.758003 49.264M 26 49.445999L 26 52.310001C 29.97666 55.898888 36.023338 55.898888 40 52.309998L 40 49.445999M 10 10M 33 50.001999L 33 55.001999M 26 46.438L 26 49.438C 25.989235 50.332241 25.389511 51.112045 24.528 51.352001L 14.528 54.501999C 13.150921 55.006378 11.933136 55.868629 11 57M 40 46.444L 40 49.444C 40.006493 50.339062 40.606907 51.120827 41.470001 51.358002L 51.470001 54.507999C 52.847122 55.010384 54.065563 55.870541 55 57M 21 23.24L 21 34.021999C 19.307999 34.936001 19.855999 38.806 22 39.778C 22.606421 40.054306 23.035381 40.61451 23.144001 41.271999C 24.024 46.560001 30.228001 50 33 50L 33 50C 35.774002 50 41.98 46.557999 42.863998 41.27C 42.9716 40.61496 43.397194 40.055992 44 39.778C 46.139999 38.806 46.688 34.93 45 34.02L 45 23.242001C 46.65136 22.142475 47.387333 20.090885 46.81147 18.192383C 46.235607 16.293877 44.483917 14.996858 42.5 15C 41.479534 15.001967 40.490837 15.355074 39.699997 16C 39.895813 16.648735 39.996857 17.322363 40 18M 21 23.24C 19.35284 22.137867 18.620647 20.087856 19.19689 18.191603C 19.77313 16.295347 21.522123 14.999331 23.504 15C 24.524406 15.002293 25.513 15.355362 26.303999 16C 26.105862 16.648317 26.003448 17.32209 26 18M 26.298 16C 27.191502 13.047094 29.912876 11.027313 32.998001 11.027313C 36.083126 11.027313 38.804497 13.047094 39.698002 16M 26 18C 26.000204 17.322582 26.099249 16.648819 26.294001 16M 21 33.414001C 28.676369 30.195894 37.323631 30.195894 45 33.414001"></path></g></g></g><g id="g-root-tx_processd_v7zao0ygo45r-stroke" data-item-order="0" transform="translate(104, 530)"></g><g id="g-root-tx_createne_qs5sjkygo4y0-stroke" data-item-order="0" transform="translate(404, 530)"></g></g></g></svg>