<?xml version="1.0" encoding="utf-8" standalone="yes"?>
<!DOCTYPE svg PUBLIC "-//W3C//DTD SVG 1.1//EN" "http://www.w3.org/Graphics/SVG/1.1/DTD/svg11.dtd">
<svg width="864" height="207" viewBox="0 0 864 207" style="fill:none;stroke:none;fill-rule:evenodd;clip-rule:evenodd;stroke-linecap:round;stroke-linejoin:round;stroke-miterlimit:1.5;" version="1.1" xmlns="http://www.w3.org/2000/svg" xmlns:xlink="http://www.w3.org/1999/xlink"><style class="text-font-style fontImports" data-font-family="Roboto">@import url('https://fonts.googleapis.com/css2?family=Roboto:wght@400;700&amp;display=block');</style><g id="items" style="isolation: isolate"><g id="blend" style="mix-blend-mode: normal"><g id="g-root-ro_1cxdsq7vewtfw-fill" data-item-order="1999983152" transform="translate(530, 23)"><g id="ro_1cxdsq7vewtfw-fill" stroke="none" fill="#cb68f9"><g><path d="M 22 10L 310 10C 310 10 322 10 322 22L 322 52C 322 52 322 64 310 64L 22 64C 22 64 10 64 10 52L 10 22C 10 22 10 10 22 10"></path></g></g></g><g id="g-root-ro_1q5pxnzvf3uv8-fill" data-item-order="1999984448" transform="translate(2, 23)"><g id="ro_1q5pxnzvf3uv8-fill" stroke="none" fill="#ffe711"><g><path d="M 22 10L 286 10C 286 10 298 10 298 22L 298 52C 298 52 298 64 286 64L 22 64C 22 64 10 64 10 52L 10 22C 10 22 10 10 22 10"></path></g></g></g><g id="g-root-ro_18k26y7ver7ri-fill" data-item-order="1999984880" transform="translate(350, 47)"><g id="ro_18k26y7ver7ri-fill" stroke="none" fill="#2b2d31"><g><path d="M 22 10L 118 10C 118 10 130 10 130 22L 130 124C 130 124 130 136 118 136L 22 136C 22 136 10 136 10 124L 10 22C 10 22 10 10 22 10"></path></g></g></g><g id="g-root-cu_1cuvwdrvf3tad-fill" data-item-order="2000000000" transform="translate(290, 50)"></g><g id="g-root-tx_localsco_qqwr73vewtfk-fill" data-item-order="2000000000" transform="translate(578, 125)"><g id="tx_localsco_qqwr73vewtfk-fill" stroke="none" fill="#cb68f9"><g><text style="font: 20px Roboto, sans-serif; white-space: pre;" font-size="20px" font-family="Roboto, sans-serif"><tspan x="15.53" y="34" dominant-baseline="ideographic">Local Scope</tspan></text></g></g></g><g id="g-root-tx_globalsc_zlxacvvewv0u-fill" data-item-order="2000000000" transform="translate(110, 125)"><g id="tx_globalsc_zlxacvvewv0u-fill" stroke="none" fill="#f0d80d"><g><text style="font: 20px Roboto, sans-serif; white-space: pre;" font-size="20px" font-family="Roboto, sans-serif"><tspan x="17.29" y="34" dominant-baseline="ideographic">Global Scope</tspan></text></g></g></g><g id="g-root-tx_function_v6q9bjvewsnb-fill" data-item-order="2000000000" transform="translate(578, 89)"><g id="tx_function_v6q9bjvewsnb-fill" stroke="none" fill="#cb68f9"><g><text style="font: 20px Roboto, sans-serif; white-space: pre;" font-size="20px" font-family="Roboto, sans-serif"><tspan x="12.09" y="34" dominant-baseline="ideographic">Function Call</tspan></text></g></g></g><g id="g-root-cu_18f2e9bvf3u2o-fill" data-item-order="2000000000" transform="translate(470, 50)"></g><g id="g-root-tx_scriptst_18hkalrvewu85-fill" data-item-order="2000000000" transform="translate(134, 89)"><g id="tx_scriptst_18hkalrvewu85-fill" stroke="none" fill="#f0d80d"><g><text style="font: 20px Roboto, sans-serif; white-space: pre;" font-size="20px" font-family="Roboto, sans-serif"><tspan x="14.09" y="34" dominant-baseline="ideographic">Script Start</tspan></text></g></g></g><g id="g-root-cu_18f2e9bvf3u2r-fill" data-item-order="2000000000" transform="translate(248, 77)"></g><g id="g-root-cu_zjfe0fvf3uvi-fill" data-item-order="2000000000" transform="translate(248, 77)"></g><g id="g-root-cu_v3lvvzvf3vnv-fill" data-item-order="2000000000" transform="translate(554, 77)"></g><g id="g-root-cu_v3lvvzvf3vns-fill" data-item-order="2000000000" transform="translate(554, 77)"></g><g id="g-root-tx_executio_1lvipbjver66k-fill" data-item-order="3000000000" transform="translate(362, 113)"><g id="tx_executio_1lvipbjver66k-fill" stroke="none" fill="#ffffff"><g><text style="font: 20px Roboto, sans-serif; white-space: pre;" font-size="20px" font-family="Roboto, sans-serif"><tspan x="11.99" y="34" dominant-baseline="ideographic">Execution </tspan><tspan x="20.97" y="58" dominant-baseline="ideographic">Context</tspan></text></g></g></g><g id="g-root-ic_code_18k26y7ver7rh-fill" data-item-order="3000000000" transform="translate(386, 59)"></g><g id="g-root-tx_function_2qsa7vewuf6-fill" data-item-order="3000000000" transform="translate(578, 38)"><g id="tx_function_2qsa7vewuf6-fill" stroke="none" fill="#2c2c2c"><g><text style="font: 20px Roboto, sans-serif; white-space: pre;" font-size="20px" font-family="Roboto, sans-serif"><tspan x="14.35" y="34" dominant-baseline="ideographic">Function Execution Context</tspan></text></g></g></g><g id="g-root-ic_logo_1lt0sz3vewsn7-fill" data-item-order="3000000000" transform="translate(542, 35)"></g><g id="g-root-tx_globalex_i0w0q7vf2ghu-fill" data-item-order="3000000000" transform="translate(14, 38)"><g id="tx_globalex_i0w0q7vf2ghu-fill" stroke="none" fill="#2c2c2c"><g><text style="font: 20px Roboto, sans-serif; white-space: pre;" font-size="20px" font-family="Roboto, sans-serif"><tspan x="12.54" y="34" dominant-baseline="ideographic">Global Execution Context</tspan></text></g></g></g><g id="g-root-ic_acce_1uljfsfvf3u2z-fill" data-item-order="3000000000" transform="translate(248, 35)"></g><g id="g-root-ro_1cxdsq7vewtfw-stroke" data-item-order="1999983152" transform="translate(530, 23)"></g><g id="g-root-ro_1q5pxnzvf3uv8-stroke" data-item-order="1999984448" transform="translate(2, 23)"></g><g id="g-root-ro_18k26y7ver7ri-stroke" data-item-order="1999984880" transform="translate(350, 47)"><g id="ro_18k26y7ver7ri-stroke" fill="none" stroke-linecap="round" stroke-linejoin="round" stroke-miterlimit="4" stroke="#2c2c2c" stroke-width="2"><g><path d="M 22 10L 118 10C 118 10 130 10 130 22L 130 124C 130 124 130 136 118 136L 22 136C 22 136 10 136 10 124L 10 22C 10 22 10 10 22 10"></path></g></g></g><g id="g-root-cu_1cuvwdrvf3tad-stroke" data-item-order="2000000000" transform="translate(290, 50)"><g id="cu_1cuvwdrvf3tad-stroke" fill="none" stroke-linecap="round" stroke-linejoin="round" stroke-miterlimit="4" stroke="#426397" stroke-width="2" stroke-dasharray="5.0, 7.0"><g><path d="M 70 49L 66.3 49L 64 49C 58.931689 49.007319 53.488958 47.076027 48.499997 43.500002C 45.518041 41.331369 42.429804 36.244861 40 29.499999C 37.570195 22.755136 34.481958 17.668629 31.5 15.5C 26.511037 11.923976 21.068306 9.992684 16 10L 15.9 10L 10 10"></path></g></g></g><g id="g-root-tx_localsco_qqwr73vewtfk-stroke" data-item-order="2000000000" transform="translate(578, 125)"></g><g id="g-root-tx_globalsc_zlxacvvewv0u-stroke" data-item-order="2000000000" transform="translate(110, 125)"></g><g id="g-root-tx_function_v6q9bjvewsnb-stroke" data-item-order="2000000000" transform="translate(578, 89)"></g><g id="g-root-cu_18f2e9bvf3u2o-stroke" data-item-order="2000000000" transform="translate(470, 50)"><g id="cu_18f2e9bvf3u2o-stroke" fill="none" stroke-linecap="round" stroke-linejoin="round" stroke-miterlimit="4" stroke="#426397" stroke-width="2" stroke-dasharray="5.0, 7.0"><g><path d="M 10 49L 13.8 49L 16 49C 21.068307 49.007316 26.511038 47.076024 31.5 43.499999C 34.481959 41.331368 37.570196 36.244861 40.000001 29.499999C 42.429805 22.755136 45.518042 17.668629 48.5 15.5C 53.48896 11.923974 58.93169 9.992682 63.999997 9.999998L 64.1 10L 70 10"></path></g></g></g><g id="g-root-tx_scriptst_18hkalrvewu85-stroke" data-item-order="2000000000" transform="translate(134, 89)"></g><g id="g-root-cu_18f2e9bvf3u2r-stroke" data-item-order="2000000000" transform="translate(248, 77)"><g id="cu_18f2e9bvf3u2r-stroke" fill="none" stroke-linecap="round" stroke-linejoin="round" stroke-miterlimit="4" stroke="#ffe711" stroke-width="2" stroke-dasharray="5.0, 7.0"><g><path d="M 28 10L 28 22L 28 34L 19 34L 10 34"></path></g></g></g><g id="g-root-cu_zjfe0fvf3uvi-stroke" data-item-order="2000000000" transform="translate(248, 77)"><g id="cu_zjfe0fvf3uvi-stroke" fill="none" stroke-linecap="round" stroke-linejoin="round" stroke-miterlimit="4" stroke="#ffe711" stroke-width="2" stroke-dasharray="5.0, 7.0"><g><path d="M 28 10L 28 17.5L 28 58C 27.999999 64.627415 22.627416 69.999998 16 69.999998L 15.9 70L 10 70"></path></g></g></g><g id="g-root-cu_v3lvvzvf3vnv-stroke" data-item-order="2000000000" transform="translate(554, 77)"><g id="cu_v3lvvzvf3vnv-stroke" fill="none" stroke-linecap="round" stroke-linejoin="round" stroke-miterlimit="4" stroke="#cb68f9" stroke-width="2" stroke-dasharray="5.0, 7.0"><g><path d="M 10 10L 10 17.5L 10 58C 10.000002 64.627417 15.372585 70 22.000002 69.999999L 22.1 70L 28 70"></path></g></g></g><g id="g-root-cu_v3lvvzvf3vns-stroke" data-item-order="2000000000" transform="translate(554, 77)"><g id="cu_v3lvvzvf3vns-stroke" fill="none" stroke-linecap="round" stroke-linejoin="round" stroke-miterlimit="4" stroke="#cb68f9" stroke-width="2" stroke-dasharray="5.0, 7.0"><g><path d="M 10 10L 10 22L 10 34L 19 34L 28 34"></path></g></g></g><g id="g-root-tx_executio_1lvipbjver66k-stroke" data-item-order="3000000000" transform="translate(362, 113)"></g><g id="g-root-ic_code_18k26y7ver7rh-stroke" data-item-order="3000000000" transform="translate(386, 59)"><g id="ic_code_18k26y7ver7rh-stroke" fill="none" stroke-linecap="round" stroke-linejoin="round" stroke-miterlimit="4" stroke="#ffffff" stroke-width="2"><g><path d="M 11 16C 11 18.761425 13.238577 21 16 21C 18.761425 21 21 18.761425 21 16C 21 13.238577 18.761425 11 16 11C 13.238577 11 11 13.238577 11 16M 57 16C 57 18.761425 54.761425 21 52 21L 32 21C 29.238577 21 27 18.761425 27 16C 27 13.238577 29.238577 11 32 11L 52 11C 54.761425 11 57 13.238576 57 16ZM 11 34C 11 36.761425 13.238577 39 16 39C 18.761425 39 21 36.761425 21 34C 21 31.238577 18.761425 29 16 29C 13.238577 29 11 31.238577 11 34M 11 52C 11 54.761425 13.238577 57 16 57C 18.761425 57 21 54.761425 21 52C 21 49.238575 18.761425 47 16 47C 13.238577 47 11 49.238575 11 52M 45 34C 45 36.761425 42.761425 39 40 39L 32 39C 29.238577 39 27 36.761425 27 34C 27 31.238577 29.238577 29 32 29L 40 29C 42.761425 29 45 31.238577 45 34Z"></path></g></g></g><g id="g-root-tx_function_2qsa7vewuf6-stroke" data-item-order="3000000000" transform="translate(578, 38)"></g><g id="g-root-ic_logo_1lt0sz3vewsn7-stroke" data-item-order="3000000000" transform="translate(542, 35)"><g id="ic_logo_1lt0sz3vewsn7-stroke" fill="none" stroke-linecap="round" stroke-linejoin="round" stroke-miterlimit="4" stroke="#2c2c2c" stroke-width="2"><g><path d="M 30.357141 32.5L 30.357141 36.785713C 30.357141 37.969181 29.397753 38.92857 28.214285 38.92857L 13.214286 38.92857C 12.030818 38.92857 11.071428 37.969181 11.071428 36.785713L 11.071428 13.214286C 11.071428 12.030818 12.030818 11.071428 13.214286 11.071428L 28.214285 11.071428C 29.397753 11.071428 30.357141 12.030818 30.357141 13.214286L 30.357141 17.5M 23.928572 25L 38.92857 25M 34.642857 20.714285L 38.92857 25L 34.642857 29.285713"></path></g></g></g><g id="g-root-tx_globalex_i0w0q7vf2ghu-stroke" data-item-order="3000000000" transform="translate(14, 38)"></g><g id="g-root-ic_acce_1uljfsfvf3u2z-stroke" data-item-order="3000000000" transform="translate(248, 35)"><g id="ic_acce_1uljfsfvf3u2z-stroke" fill="none" stroke-linecap="round" stroke-linejoin="round" stroke-miterlimit="4" stroke="#2c2c2c" stroke-width="2"><g><path d="M 25 34.013874C 29.978251 34.013874 34.013874 29.978251 34.013874 25C 34.013874 20.021763 29.978251 15.9861 25 15.9861C 20.021763 15.9861 15.9861 20.021763 15.9861 25C 15.9861 29.978251 20.021763 34.013874 25 34.013874ZM 16.501238 28.0905L 33.498875 28.0905M 16.501238 22.038275L 33.498875 22.038275M 23.068375 16.198351C 22.424562 18.640825 22.038275 21.340412 22.038275 24.040001C 22.038275 27.510876 22.682125 30.853251 23.841 33.938374M 26.931625 16.198351C 27.5755 18.640825 27.96175 21.340412 27.96175 24.040001C 27.96175 27.510876 27.317875 30.853251 26.159 33.938374M 10 10M 37.789749 15.01L 37.1535 18.191563L 34.099251 17.55525M 10.9375 25.063625C 10.9375 17.300625 17.173363 11.064758 24.936375 11.064758C 30.154125 11.064758 34.735626 13.991787 37.153625 18.19145M 15.900713 35.626377C 13.864512 33.844749 12.337362 31.554001 11.573788 28.8815M 22.772749 38.935249C 21.500187 38.680748 20.227551 38.299 19.082188 37.789875M 29.390625 38.299126C 28.626999 38.553623 27.863375 38.680874 26.972626 38.808125M 34.60825 35.244625C 33.972 35.753624 33.335625 36.262749 32.699375 36.771751M 37.789875 30.663376C 37.535374 31.172375 37.280876 31.681499 37.026249 32.190498M 39.0625 25.572874C 39.0625 26.081999 39.0625 26.463749 38.935249 26.845501"></path></g></g></g></g></g></svg>