<?xml version="1.0" encoding="utf-8" standalone="yes"?>
<!DOCTYPE svg PUBLIC "-//W3C//DTD SVG 1.1//EN" "http://www.w3.org/Graphics/SVG/1.1/DTD/svg11.dtd">
<svg width="636" height="480" viewBox="0 0 636 480" style="fill:none;stroke:none;fill-rule:evenodd;clip-rule:evenodd;stroke-linecap:round;stroke-linejoin:round;stroke-miterlimit:1.5;" version="1.1" xmlns="http://www.w3.org/2000/svg" xmlns:xlink="http://www.w3.org/1999/xlink"><style class="text-font-style fontImports" data-font-family="Roboto">@import url('https://fonts.googleapis.com/css2?family=Roboto:wght@400;700&amp;display=block');</style><g id="items" style="isolation: isolate"><g id="blend" style="mix-blend-mode: normal"><g id="g-root-ro_18i6bwb14khzpk-fill" data-item-order="-10368" transform="translate(14, 122)"><g id="ro_18i6bwb14khzpk-fill" stroke="none" fill="#4f91fc"><g><path d="M 22 10L 190 10C 190 10 202 10 202 22L 202 52C 202 52 202 64 190 64L 22 64C 22 64 10 64 10 52L 10 22C 10 22 10 10 22 10"></path></g></g></g><g id="g-root-ro_1qf2m6314kayo0-fill" data-item-order="-10368" transform="translate(410, 122)"><g id="ro_1qf2m6314kayo0-fill" stroke="none" fill="#cb68f9"><g><path d="M 22 10L 190 10C 190 10 202 10 202 22L 202 52C 202 52 202 64 190 64L 22 64C 22 64 10 64 10 52L 10 22C 10 22 10 10 22 10"></path></g></g></g><g id="g-root-ro_dl22t714kf8cs-fill" data-item-order="-9720" transform="translate(218, 296)"><g id="ro_dl22t714kf8cs-fill" stroke="none" fill="#ffe711"><g><path d="M 22 10L 178 10C 178 10 190 10 190 22L 190 52C 190 52 190 64 178 64L 22 64C 22 64 10 64 10 52L 10 22C 10 22 10 10 22 10"></path></g></g></g><g id="g-root-ro_v8l8sb14k85ca-fill" data-item-order="-8568" transform="translate(266, 146)"><g id="ro_v8l8sb14k85ca-fill" stroke="none" fill="#de8431"><g><path d="M 22 10L 82 10C 82 10 94 10 94 22L 94 100C 94 100 94 112 82 112L 22 112C 22 112 10 112 10 100L 10 22C 10 22 10 10 22 10"></path></g></g></g><g id="g-root-cu_142ctrv14ki0ht-fill" data-item-order="0" transform="translate(206, 149)"></g><g id="g-root-cu_hvvs8r14ki0hw-fill" data-item-order="0" transform="translate(242, 350)"></g><g id="g-root-cu_hvvs8r14ki0hz-fill" data-item-order="0" transform="translate(242, 350)"></g><g id="g-root-cu_142ctrv14ki0hw-fill" data-item-order="0" transform="translate(350, 149)"></g><g id="g-root-tx_scriptmo_8vvge314kgkjp-fill" data-item-order="0" transform="translate(38, 188)"><g id="tx_scriptmo_8vvge314kgkjp-fill" stroke="none" fill="#4e88e6"><g><text style="font: 20px Roboto, sans-serif; white-space: pre;" font-size="20px" font-family="Roboto, sans-serif"><tspan x="16.26" y="34" dominant-baseline="ideographic">Script Mode</tspan></text></g></g></g><g id="g-root-tx_blocksco_zjey7v14kgmpu-fill" data-item-order="0" transform="translate(266, 398)"><g id="tx_blocksco_zjey7v14kgmpu-fill" stroke="none" fill="#f0d80d"><g><text style="font: 20px Roboto, sans-serif; white-space: pre;" font-size="20px" font-family="Roboto, sans-serif"><tspan x="15.06" y="34" dominant-baseline="ideographic">Block Scope</tspan></text></g></g></g><g id="g-root-cu_qqwbej14ki231-fill" data-item-order="0" transform="translate(164, 176)"></g><g id="g-root-cu_qqwbej14ki233-fill" data-item-order="0" transform="translate(434, 176)"></g><g id="g-root-cu_mbpad714khzpm-fill" data-item-order="0" transform="translate(434, 176)"></g><g id="g-root-tx_modulemo_1lpvzqz14kgmq7-fill" data-item-order="0" transform="translate(458, 188)"><g id="tx_modulemo_1lpvzqz14kgmq7-fill" stroke="none" fill="#b95ce3"><g><text style="font: 20px Roboto, sans-serif; white-space: pre;" font-size="20px" font-family="Roboto, sans-serif"><tspan x="14.82" y="34" dominant-baseline="ideographic">Module Mode</tspan></text></g></g></g><g id="g-root-tx_notype_1ulizzv14kglxi-fill" data-item-order="0" transform="translate(74, 224)"><g id="tx_notype_1ulizzv14kglxi-fill" stroke="none" fill="#4e88e6"><g><text style="font: 20px Roboto, sans-serif; white-space: pre;" font-size="20px" font-family="Roboto, sans-serif"><tspan x="15.61" y="34" dominant-baseline="ideographic">No Type</tspan></text></g></g></g><g id="g-root-tx_function_13z8gcb14kglxl-fill" data-item-order="0" transform="translate(266, 362)"><g id="tx_function_13z8gcb14kglxl-fill" stroke="none" fill="#f0d80d"><g><text style="font: 20px Roboto, sans-serif; white-space: pre;" font-size="20px" font-family="Roboto, sans-serif"><tspan x="13.11" y="34" dominant-baseline="ideographic">Function Scope</tspan></text></g></g></g><g id="g-root-tx_reactnex_1cuvgl714kgl4w-fill" data-item-order="0" transform="translate(458, 224)"><g id="tx_reactnex_1cuvgl714kgl4w-fill" stroke="none" fill="#b95ce3"><g><text style="font: 20px Roboto, sans-serif; white-space: pre;" font-size="20px" font-family="Roboto, sans-serif"><tspan x="15.6" y="34" dominant-baseline="ideographic">React/Next.js</tspan></text></g></g></g><g id="g-root-cu_142ctrv14ki0hz-fill" data-item-order="0" transform="translate(308, 248)"></g><g id="g-root-tx_javascri_dg2a4b14ki1a9-fill" data-item-order="0" transform="translate(92, 38)"><g id="tx_javascri_dg2a4b14ki1a9-fill" stroke="none" fill="#de8431"><g><text style="font: 25px Roboto, sans-serif; white-space: pre;" font-size="25px" font-family="Roboto, sans-serif"><tspan x="13.76" y="42.6" dominant-baseline="ideographic">JavaScript Scope Hierarchy and Types</tspan></text></g></g></g><g id="g-root-cu_zmjbnf14ki1aa-fill" data-item-order="0" transform="translate(164, 176)"></g><g id="g-root-ic_feat_1uu9n7f14kb11j-fill" data-item-order="3000000000" transform="translate(422, 134)"></g><g id="g-root-tx_globalsc_1lt0d6j14ki1ae-fill" data-item-order="3000000000" transform="translate(26, 137)"><g id="tx_globalsc_1lt0d6j14ki1ae-fill" stroke="none" fill="#ffffff"><g><text style="font: 20px Roboto, sans-serif; white-space: pre;" font-size="20px" font-family="Roboto, sans-serif"><tspan x="17.29" y="34" dominant-baseline="ideographic">Global Scope</tspan></text></g></g></g><g id="g-root-ic_exce_143lry314k87pd-fill" data-item-order="3000000000" transform="translate(284, 158)"></g><g id="g-root-tx_modulesc_94m3ln14kaznq-fill" data-item-order="3000000000" transform="translate(458, 137)"><g id="tx_modulesc_94m3ln14kaznq-fill" stroke="none" fill="#ffffff"><g><text style="font: 20px Roboto, sans-serif; white-space: pre;" font-size="20px" font-family="Roboto, sans-serif"><tspan x="12.41" y="34" dominant-baseline="ideographic">Module Scope</tspan></text></g></g></g><g id="g-root-tx_scope_1hf2abf14k864g-fill" data-item-order="3000000000" transform="translate(278, 212)"><g id="tx_scope_1hf2abf14k864g-fill" stroke="none" fill="#ffffff"><g><text style="font: 20px Roboto, sans-serif; white-space: pre;" font-size="20px" font-family="Roboto, sans-serif"><tspan x="12.21" y="34" dominant-baseline="ideographic">Scope</tspan></text></g></g></g><g id="g-root-ic_pure_1cxdcxn14ki233-fill" data-item-order="3000000000" transform="translate(164, 134)"></g><g id="g-root-ic_foun_dl22t714kf8cr-fill" data-item-order="3000000000" transform="translate(230, 308)"></g><g id="g-root-tx_localsco_qwil6j14kf6ru-fill" data-item-order="3000000000" transform="translate(266, 311)"><g id="tx_localsco_qwil6j14kf6ru-fill" stroke="none" fill="#ffffff"><g><text style="font: 20px Roboto, sans-serif; white-space: pre;" font-size="20px" font-family="Roboto, sans-serif"><tspan x="15.53" y="34" dominant-baseline="ideographic">Local Scope</tspan></text></g></g></g><g id="g-root-ro_18i6bwb14khzpk-stroke" data-item-order="-10368" transform="translate(14, 122)"><g id="ro_18i6bwb14khzpk-stroke" fill="none" stroke-linecap="round" stroke-linejoin="round" stroke-miterlimit="4" stroke="#2c2c2c" stroke-width="2"><g><path d="M 22 10L 190 10C 190 10 202 10 202 22L 202 52C 202 52 202 64 190 64L 22 64C 22 64 10 64 10 52L 10 22C 10 22 10 10 22 10"></path></g></g></g><g id="g-root-ro_1qf2m6314kayo0-stroke" data-item-order="-10368" transform="translate(410, 122)"><g id="ro_1qf2m6314kayo0-stroke" fill="none" stroke-linecap="round" stroke-linejoin="round" stroke-miterlimit="4" stroke="#2c2c2c" stroke-width="2"><g><path d="M 22 10L 190 10C 190 10 202 10 202 22L 202 52C 202 52 202 64 190 64L 22 64C 22 64 10 64 10 52L 10 22C 10 22 10 10 22 10"></path></g></g></g><g id="g-root-ro_dl22t714kf8cs-stroke" data-item-order="-9720" transform="translate(218, 296)"><g id="ro_dl22t714kf8cs-stroke" fill="none" stroke-linecap="round" stroke-linejoin="round" stroke-miterlimit="4" stroke="#2c2c2c" stroke-width="2"><g><path d="M 22 10L 178 10C 178 10 190 10 190 22L 190 52C 190 52 190 64 178 64L 22 64C 22 64 10 64 10 52L 10 22C 10 22 10 10 22 10"></path></g></g></g><g id="g-root-ro_v8l8sb14k85ca-stroke" data-item-order="-8568" transform="translate(266, 146)"></g><g id="g-root-cu_142ctrv14ki0ht-stroke" data-item-order="0" transform="translate(206, 149)"><g id="cu_142ctrv14ki0ht-stroke" fill="none" stroke-linecap="round" stroke-linejoin="round" stroke-miterlimit="4" stroke="#f79438" stroke-width="2" stroke-dasharray="5.0, 7.0"><g><path d="M 70 41L 66.3 41L 64 41C 59.434861 41.007216 54.483504 39.552971 49.700002 36.800004C 46.84128 35.133817 43.352063 31.06906 40 25.499999C 36.647936 19.930937 33.15872 15.86618 30.3 14.199999C 25.516499 11.447034 20.565141 9.992789 16 10L 15.9 10L 10 10"></path></g></g></g><g id="g-root-cu_hvvs8r14ki0hw-stroke" data-item-order="0" transform="translate(242, 350)"><g id="cu_hvvs8r14ki0hw-stroke" fill="none" stroke-linecap="round" stroke-linejoin="round" stroke-miterlimit="4" stroke="#ffe711" stroke-width="2" stroke-dasharray="5.0, 7.0"><g><path d="M 10 10L 10 22L 10 34L 19 34L 28 34"></path></g></g></g><g id="g-root-cu_hvvs8r14ki0hz-stroke" data-item-order="0" transform="translate(242, 350)"><g id="cu_hvvs8r14ki0hz-stroke" fill="none" stroke-linecap="round" stroke-linejoin="round" stroke-miterlimit="4" stroke="#ffe711" stroke-width="2" stroke-dasharray="5.0, 7.0"><g><path d="M 10 10L 10 17.5L 10 58C 10.000002 64.627417 15.372585 70 22.000002 69.999999L 22.1 70L 28 70"></path></g></g></g><g id="g-root-cu_142ctrv14ki0hw-stroke" data-item-order="0" transform="translate(350, 149)"><g id="cu_142ctrv14ki0hw-stroke" fill="none" stroke-linecap="round" stroke-linejoin="round" stroke-miterlimit="4" stroke="#f79438" stroke-width="2" stroke-dasharray="5.0, 7.0"><g><path d="M 10 41L 13.8 41L 16 41C 20.565141 41.007213 25.516499 39.552968 30.300001 36.8C 33.15872 35.133819 36.647936 31.069062 40 25.5C 43.352063 19.930938 46.84128 15.866181 49.7 14.200001C 54.483504 11.447031 59.434861 9.992785 64.000002 9.999997L 64.1 10L 70 10"></path></g></g></g><g id="g-root-tx_scriptmo_8vvge314kgkjp-stroke" data-item-order="0" transform="translate(38, 188)"></g><g id="g-root-tx_blocksco_zjey7v14kgmpu-stroke" data-item-order="0" transform="translate(266, 398)"></g><g id="g-root-cu_qqwbej14ki231-stroke" data-item-order="0" transform="translate(164, 176)"><g id="cu_qqwbej14ki231-stroke" fill="none" stroke-linecap="round" stroke-linejoin="round" stroke-miterlimit="4" stroke="#4f91fc" stroke-width="2" stroke-dasharray="5.0, 7.0"><g><path d="M 28 10L 28 17.5L 28 58C 27.999999 64.627415 22.627416 69.999998 16 69.999998L 15.9 70L 10 70"></path></g></g></g><g id="g-root-cu_qqwbej14ki233-stroke" data-item-order="0" transform="translate(434, 176)"><g id="cu_qqwbej14ki233-stroke" fill="none" stroke-linecap="round" stroke-linejoin="round" stroke-miterlimit="4" stroke="#cb68f9" stroke-width="2" stroke-dasharray="5.0, 7.0"><g><path d="M 10 10L 10 22L 10 34L 19 34L 28 34"></path></g></g></g><g id="g-root-cu_mbpad714khzpm-stroke" data-item-order="0" transform="translate(434, 176)"><g id="cu_mbpad714khzpm-stroke" fill="none" stroke-linecap="round" stroke-linejoin="round" stroke-miterlimit="4" stroke="#cb68f9" stroke-width="2" stroke-dasharray="5.0, 7.0"><g><path d="M 10 10L 10 17.5L 10 58C 10.000002 64.627417 15.372585 70 22.000002 69.999999L 22.1 70L 28 70"></path></g></g></g><g id="g-root-tx_modulemo_1lpvzqz14kgmq7-stroke" data-item-order="0" transform="translate(458, 188)"></g><g id="g-root-tx_notype_1ulizzv14kglxi-stroke" data-item-order="0" transform="translate(74, 224)"></g><g id="g-root-tx_function_13z8gcb14kglxl-stroke" data-item-order="0" transform="translate(266, 362)"></g><g id="g-root-tx_reactnex_1cuvgl714kgl4w-stroke" data-item-order="0" transform="translate(458, 224)"></g><g id="g-root-cu_142ctrv14ki0hz-stroke" data-item-order="0" transform="translate(308, 248)"><g id="cu_142ctrv14ki0hz-stroke" fill="none" stroke-linecap="round" stroke-linejoin="round" stroke-miterlimit="4" stroke="#f4f4f4" stroke-width="2" stroke-dasharray="5.0, 7.0"><g><path d="M 10 10L 10 34L 10 58"></path></g></g></g><g id="g-root-tx_javascri_dg2a4b14ki1a9-stroke" data-item-order="0" transform="translate(92, 38)"></g><g id="g-root-cu_zmjbnf14ki1aa-stroke" data-item-order="0" transform="translate(164, 176)"><g id="cu_zmjbnf14ki1aa-stroke" fill="none" stroke-linecap="round" stroke-linejoin="round" stroke-miterlimit="4" stroke="#4f91fc" stroke-width="2" stroke-dasharray="5.0, 7.0"><g><path d="M 28 10L 28 22L 28 34L 19 34L 10 34"></path></g></g></g><g id="g-root-ic_feat_1uu9n7f14kb11j-stroke" data-item-order="3000000000" transform="translate(422, 134)"><g id="ic_feat_1uu9n7f14kb11j-stroke" fill="none" stroke-linecap="round" stroke-linejoin="round" stroke-miterlimit="4" stroke="#ffffff" stroke-width="2"><g><path d="M 10.625 21.25L 39.375 21.25L 39.375 28.75L 10.625 28.75ZM 21.25 10.625L 28.75 10.625L 28.75 18.125L 21.25 18.125ZM 21.25 31.875L 28.75 31.875L 28.75 39.375L 21.25 39.375Z"></path></g></g></g><g id="g-root-tx_globalsc_1lt0d6j14ki1ae-stroke" data-item-order="3000000000" transform="translate(26, 137)"></g><g id="g-root-ic_exce_143lry314k87pd-stroke" data-item-order="3000000000" transform="translate(284, 158)"><g id="ic_exce_143lry314k87pd-stroke" fill="none" stroke-linecap="round" stroke-linejoin="round" stroke-miterlimit="4" stroke="#ffffff" stroke-width="2"><g><path d="M 23 46L 23 52C 23 53.104568 23.895432 54 25 54L 55 54C 56.104568 54 57 53.104568 57 52L 57 16C 57 14.895431 56.104568 14 55 14L 25 14C 23.895432 14 23 14.895431 23 16L 23 22M 35 34L 57 34M 35 24L 57 24M 13 22L 33 22C 33 22 35 22 35 24L 35 44C 35 44 35 46 33 46L 13 46C 13 46 11 46 11 44L 11 24C 11 24 11 22 13 22M 18 28L 28 40M 28 28L 18 40M 40.260002 14L 40.260002 44L 57 44"></path></g></g></g><g id="g-root-tx_modulesc_94m3ln14kaznq-stroke" data-item-order="3000000000" transform="translate(458, 137)"></g><g id="g-root-tx_scope_1hf2abf14k864g-stroke" data-item-order="3000000000" transform="translate(278, 212)"></g><g id="g-root-ic_pure_1cxdcxn14ki233-stroke" data-item-order="3000000000" transform="translate(164, 134)"><g id="ic_pure_1cxdcxn14ki233-stroke" fill="none" stroke-linecap="round" stroke-linejoin="round" stroke-miterlimit="4" stroke="#ffffff" stroke-width="2"><g><path d="M 21.25 23.75L 18.75 26.25L 28.75 26.25L 31.25 23.75L 21.25 23.75ZM 21.25 20.9375L 18.75 18.4375L 28.75 18.4375L 31.25 20.9375L 21.25 20.9375ZM 21.25 31.5625L 18.75 29.0625L 28.75 29.0625L 31.25 31.5625L 21.25 31.5625ZM 16.5625 33.950001L 10.9875 28.387501C 10.750859 28.152792 10.617752 27.833298 10.617752 27.5C 10.617752 27.166702 10.750859 26.847208 10.9875 26.612499L 16.5625 21.049999L 18.325001 22.8125L 13.6375 27.5L 18.325001 32.1875ZM 33.4375 16.049999L 39.012497 21.612499C 39.249142 21.847208 39.382248 22.166702 39.382248 22.5C 39.382248 22.833298 39.249142 23.152792 39.012497 23.387501L 33.4375 28.950001L 31.674999 27.1875L 36.362499 22.5L 31.674999 17.8125Z"></path></g></g></g><g id="g-root-ic_foun_dl22t714kf8cr-stroke" data-item-order="3000000000" transform="translate(230, 308)"><g id="ic_foun_dl22t714kf8cr-stroke" fill="none" stroke-linecap="round" stroke-linejoin="round" stroke-miterlimit="4" stroke="#ffffff" stroke-width="2"><g><path d="M 10.625 10.625L 10.625 18.75L 16.25 18.75L 16.25 16.25L 33.75 16.25L 33.75 33.75L 31.25 33.75L 31.25 39.375L 39.375 39.375L 39.375 10.625L 10.625 10.625ZM 27.5 33.75L 16.25 33.75L 16.25 22.5L 10.625 22.5L 10.625 39.375L 27.5 39.375L 27.5 33.75Z"></path></g></g></g><g id="g-root-tx_localsco_qwil6j14kf6ru-stroke" data-item-order="3000000000" transform="translate(266, 311)"></g></g></g></svg>