<?xml version="1.0" encoding="utf-8" standalone="yes"?>
<!DOCTYPE svg PUBLIC "-//W3C//DTD SVG 1.1//EN" "http://www.w3.org/Graphics/SVG/1.1/DTD/svg11.dtd">
<svg width="588" height="481" viewBox="0 0 588 481" style="fill:none;stroke:none;fill-rule:evenodd;clip-rule:evenodd;stroke-linecap:round;stroke-linejoin:round;stroke-miterlimit:1.5;" version="1.1" xmlns="http://www.w3.org/2000/svg" xmlns:xlink="http://www.w3.org/1999/xlink"><style class="text-font-style fontImports" data-font-family="Roboto">@import url('https://fonts.googleapis.com/css2?family=Roboto:wght@400;700&amp;display=block');</style><g id="items" style="isolation: isolate"><g id="blend" style="mix-blend-mode: normal"><g id="g-root-sy_3_cu_Vector_1d30f57186l62w-fill" data-item-order="-104970" transform="translate(230, 98)"><g id="sy_3_cu_Vector_1d30f57186l62w-fill" stroke="none" fill="#43dd93"><g><path d="M 172 334C 261.47 334 334 261.47 334 172C 334 82.5299 261.47 10 172 10C 82.5299 10 10 82.5299 10 172C 10 261.337 82.7137 333.784 172 334C 105.9097 333.784 52 280.141 52 214C 52 147.726 105.7258 94 172 94C 238.274 94 292 147.726 292 214C 292 280.274 238.274 334 172 334Z"></path></g></g></g><g id="g-root-sy_2_cu_Vector_1d30f57186l62x-fill" data-item-order="-104966" transform="translate(272, 182)"><g id="sy_2_cu_Vector_1d30f57186l62x-fill" stroke="none" fill="#1ac3fb"><g><path d="M 130 250C 196.274 250 250 196.274 250 130C 250 63.7258 196.274 10 130 10C 63.7258 10 10 63.7258 10 130C 10 196.141 63.9097 249.784 130 250C 87.1057 249.785 52 214.945 52 172C 52 128.922 86.9218 94 130 94C 173.078 94 208 128.922 208 172C 208 215.078 173.078 250 130 250Z"></path></g></g></g><g id="g-root-sy_1_cu_Vector_18n6x0r186l6v6-fill" data-item-order="-104962" transform="translate(314, 266)"><g id="sy_1_cu_Vector_18n6x0r186l6v6-fill" stroke="none" fill="#4f91fc"><g><path d="M 166 88C 166 131.078 131.078 166 88 166C 45.1057 165.785 10 130.945 10 88C 10 44.9218 44.9218 10 88 10C 131.078 10 166 44.9218 166 88Z"></path></g></g></g><g id="g-root-tx_javascri_18n6x0r186l6v7-fill" data-item-order="0" transform="translate(146, 38)"><g id="tx_javascri_18n6x0r186l6v7-fill" stroke="none" fill="#f0d80d"><g><text style="font: 20px Roboto, sans-serif; white-space: pre;" font-size="20px" font-family="Roboto, sans-serif"><tspan x="14" y="34" dominant-baseline="ideographic">JavaScript Scope Hierarchy</tspan></text></g></g></g><g id="g-root-tx_defaults_i0wdd7186l6va-fill" data-item-order="0" transform="translate(26, 122)"><g id="tx_defaults_i0wdd7186l6va-fill" stroke="none" fill="#43dd93"><g><text style="font: 20px Roboto, sans-serif; white-space: pre;" font-size="20px" font-family="Roboto, sans-serif"><tspan x="22.91" y="34" dominant-baseline="ideographic">Default scope for </tspan><tspan x="70" y="58" dominant-baseline="ideographic">script mode</tspan></text></g></g></g><g id="g-root-tx_globalsc_4g2qp7186mjux-fill" data-item-order="0" transform="translate(326, 134)"><g id="tx_globalsc_4g2qp7186mjux-fill" stroke="none" fill="#2c2c2c"><g><text style="font: 20px Roboto, sans-serif; white-space: pre;" font-size="20px" font-family="Roboto, sans-serif"><tspan x="17.29" y="34" dominant-baseline="ideographic">Global Scope</tspan></text></g></g></g><g id="g-root-tx_separate_mgpvhn186l631-fill" data-item-order="0" transform="translate(14, 206)"><g id="tx_separate_mgpvhn186l631-fill" stroke="none" fill="#1ac3fb"><g><text style="font: 20px Roboto, sans-serif; white-space: pre;" font-size="20px" font-family="Roboto, sans-serif"><tspan x="19.9" y="34" dominant-baseline="ideographic">Separate scope for </tspan><tspan x="41.84" y="58" dominant-baseline="ideographic">each module file</tspan></text></g></g></g><g id="g-root-tx_modulesc_4g2qp7186mjuw-fill" data-item-order="0" transform="translate(326, 218)"><g id="tx_modulesc_4g2qp7186mjuw-fill" stroke="none" fill="#2c2c2c"><g><text style="font: 20px Roboto, sans-serif; white-space: pre;" font-size="20px" font-family="Roboto, sans-serif"><tspan x="12.41" y="34" dominant-baseline="ideographic">Module Scope</tspan></text></g></g></g><g id="g-root-tx_miniworl_vccvqj186l5ac-fill" data-item-order="0" transform="translate(14, 320)"><g id="tx_miniworl_vccvqj186l5ac-fill" stroke="none" fill="#4f91fc"><g><text style="font: 20px Roboto, sans-serif; white-space: pre;" font-size="20px" font-family="Roboto, sans-serif"><tspan x="36.56" y="34" dominant-baseline="ideographic">Mini-world within </tspan><tspan x="17.79" y="58" dominant-baseline="ideographic">functions or blocks</tspan></text></g></g></g><g id="g-root-tx_localsco_8vw8tn186mj2n-fill" data-item-order="0" transform="translate(332, 332)"><g id="tx_localsco_8vw8tn186mj2n-fill" stroke="none" fill="#2c2c2c"><g><text style="font: 20px Roboto, sans-serif; white-space: pre;" font-size="20px" font-family="Roboto, sans-serif"><tspan x="15.53" y="34" dominant-baseline="ideographic">Local Scope</tspan></text></g></g></g><g id="g-root-sy_3_cu_Vector_1d30f57186l62w-stroke" data-item-order="-104970" transform="translate(230, 98)"></g><g id="g-root-sy_2_cu_Vector_1d30f57186l62x-stroke" data-item-order="-104966" transform="translate(272, 182)"></g><g id="g-root-sy_1_cu_Vector_18n6x0r186l6v6-stroke" data-item-order="-104962" transform="translate(314, 266)"></g><g id="g-root-tx_javascri_18n6x0r186l6v7-stroke" data-item-order="0" transform="translate(146, 38)"></g><g id="g-root-tx_defaults_i0wdd7186l6va-stroke" data-item-order="0" transform="translate(26, 122)"></g><g id="g-root-tx_globalsc_4g2qp7186mjux-stroke" data-item-order="0" transform="translate(326, 134)"></g><g id="g-root-tx_separate_mgpvhn186l631-stroke" data-item-order="0" transform="translate(14, 206)"></g><g id="g-root-tx_modulesc_4g2qp7186mjuw-stroke" data-item-order="0" transform="translate(326, 218)"></g><g id="g-root-tx_miniworl_vccvqj186l5ac-stroke" data-item-order="0" transform="translate(14, 320)"></g><g id="g-root-tx_localsco_8vw8tn186mj2n-stroke" data-item-order="0" transform="translate(332, 332)"></g></g></g></svg>