<?xml version="1.0" encoding="utf-8" standalone="yes"?>
<!DOCTYPE svg PUBLIC "-//W3C//DTD SVG 1.1//EN" "http://www.w3.org/Graphics/SVG/1.1/DTD/svg11.dtd">
<svg width="864" height="480" viewBox="0 0 864 480" style="fill:none;stroke:none;fill-rule:evenodd;clip-rule:evenodd;stroke-linecap:round;stroke-linejoin:round;stroke-miterlimit:1.5;" version="1.1" xmlns="http://www.w3.org/2000/svg" xmlns:xlink="http://www.w3.org/1999/xlink"><style class="text-font-style fontImports" data-font-family="Shantell Sans">@import url('https://fonts.googleapis.com/css2?family=Shantell+Sans:wght@300..800&amp;display=block');</style><rect id="" x="0" y="0" width="864" height="480" style="fill: #2b2d31;"></rect><g id="items" style="isolation: isolate"><g id="blend" style="mix-blend-mode: normal"><g id="g-root-tf_18hkah6gfk5xm-fill" data-item-order="-414720"><g id="tf_18hkah6gfk5xm-fill" stroke="none" fill="#2b2d31"><g><path d="M 0 0L 864 0L 864 480L 0 480Z"></path></g></g></g><g id="g-root-sy_-1_line_dbpb0qgfd3bc-fill" data-item-order="-4889" transform="translate(761, 277.99609375)"></g><g id="g-root-sy_-1_vector_8vvswagfd43l-fill" data-item-order="-4885" transform="translate(14, 277.99609375)"></g><g id="g-root-sy_8_cu-smallCircle_8vvswagfd43m-fill" data-item-order="-4881" transform="translate(755, 275)"></g><g id="g-root-sy_7_cu-smallCircle_8snegfd4wb-fill" data-item-order="-4877" transform="translate(659, 275)"></g><g id="g-root-sy_6_cu-smallCircle_8snegfd4wc-fill" data-item-order="-4873" transform="translate(563, 275)"></g><g id="g-root-sy_5_cu-smallCircle_1uljci2gfd5hh-fill" data-item-order="-4869" transform="translate(467, 275)"></g><g id="g-root-sy_4_cu-smallCircle_1uljci2gfd5hi-fill" data-item-order="-4865" transform="translate(371, 275)"></g><g id="g-root-sy_3_cu-smallCircle_1uljci2gfd5hj-fill" data-item-order="-4861" transform="translate(275, 275)"></g><g id="g-root-sy_2_cu-smallCircle_1q6cbgqgfd340-fill" data-item-order="-4857" transform="translate(179, 275)"></g><g id="g-root-sy_1_cu-smallCircle_1q6cbgqgfd341-fill" data-item-order="-4853" transform="translate(83, 275)"></g><g id="g-root-ic_figm_zqaioagfmyvb-fill" data-item-order="0" transform="translate(446, 218)"></g><g id="g-root-ic_illu_140hr0qgfhbtb-fill" data-item-order="0" transform="translate(638, 218)"></g><g id="g-root-ic_powe_zkoc22gf8xs7-fill" data-item-order="0" transform="translate(254, 218)"></g><g id="g-root-tx_handledy_1cuvt3egfd4oy-fill" data-item-order="0" transform="translate(710, 350)"><g id="tx_handledy_1cuvt3egfd4oy-fill" stroke="none" fill="#f4f4f4"><g><text style="font: 20px &quot;Shantell Sans&quot;, cursive; white-space: pre;" font-size="20px" font-family="'Shantell Sans', cursive"><tspan x="20.19" y="35.6" dominant-baseline="ideographic">Handle </tspan><tspan x="13.71" y="59.6" dominant-baseline="ideographic">Dynamic </tspan><tspan x="23.22" y="83.6" dominant-baseline="ideographic">Typing</tspan></text></g></g></g><g id="g-root-ic_miro_4hxt6ygffwn5-fill" data-item-order="0" transform="translate(62, 218)"></g><g id="g-root-tx_executei_13z8suigfd5hn-fill" data-item-order="0" transform="translate(590, 158)"><g id="tx_executei_13z8suigfd5hn-fill" stroke="none" fill="#f4f4f4"><g><text style="font: 20px &quot;Shantell Sans&quot;, cursive; white-space: pre;" font-size="20px" font-family="'Shantell Sans', cursive"><tspan x="32.74" y="35.6" dominant-baseline="ideographic">Execute in </tspan><tspan x="15.61" y="59.6" dominant-baseline="ideographic">Single Thread</tspan></text></g></g></g><g id="g-root-tx_storedat_qoerkagfd3wt-fill" data-item-order="0" transform="translate(398, 158)"><g id="tx_storedat_qoerkagfd3wt-fill" stroke="none" fill="#f4f4f4"><g><text style="font: 20px &quot;Shantell Sans&quot;, cursive; white-space: pre;" font-size="20px" font-family="'Shantell Sans', cursive"><tspan x="17.15" y="35.6" dominant-baseline="ideographic">Store Data in </tspan><tspan x="13.09" y="59.6" dominant-baseline="ideographic">Heap Memory</tspan></text></g></g></g><g id="g-root-tx_executec_dcy96ygfd5hr-fill" data-item-order="0" transform="translate(206, 158)"><g id="tx_executec_dcy96ygfd5hr-fill" stroke="none" fill="#f4f4f4"><g><text style="font: 20px &quot;Shantell Sans&quot;, cursive; white-space: pre;" font-size="20px" font-family="'Shantell Sans', cursive"><tspan x="14.84" y="35.6" dominant-baseline="ideographic">Execute Code </tspan><tspan x="21.4" y="59.6" dominant-baseline="ideographic">Line by Line</tspan></text></g></g></g><g id="g-root-ic_coda_qn5wjugfd4hs-fill" data-item-order="0" transform="translate(158, 290)"></g><g id="g-root-ic_docs_1lpwc96gfoemg-fill" data-item-order="0" transform="translate(350, 290)"></g><g id="g-root-ic_canv_92r0uigfk5xm-fill" data-item-order="0" transform="translate(542, 290)"></g><g id="g-root-ic_ai_1q7l9mygfd5ab-fill" data-item-order="0" transform="translate(734, 290)"></g><g id="g-root-tx_writejav_4hxq16gfd3wh-fill" data-item-order="0" transform="translate(26, 134)"><g id="tx_writejav_4hxq16gfd3wh-fill" stroke="none" fill="#f4f4f4"><g><text style="font: 20px &quot;Shantell Sans&quot;, cursive; white-space: pre;" font-size="20px" font-family="'Shantell Sans', cursive"><tspan x="40.38" y="35.6" dominant-baseline="ideographic">Write </tspan><tspan x="16.09" y="59.6" dominant-baseline="ideographic">JavaScript </tspan><tspan x="42.71" y="83.6" dominant-baseline="ideographic">Code</tspan></text></g></g></g><g id="g-root-tx_interpre_8xr85mgfd348-fill" data-item-order="0" transform="translate(116, 350)"><g id="tx_interpre_8xr85mgfd348-fill" stroke="none" fill="#f4f4f4"><g><text style="font: 20px &quot;Shantell Sans&quot;, cursive; white-space: pre;" font-size="20px" font-family="'Shantell Sans', cursive"><tspan x="18.78" y="35.6" dominant-baseline="ideographic">Interpreter </tspan><tspan x="16.74" y="59.6" dominant-baseline="ideographic">Reads Code</tspan></text></g></g></g><g id="g-root-tx_storedat_m8l9fugfd4p2-fill" data-item-order="0" transform="translate(302, 350)"><g id="tx_storedat_m8l9fugfd4p2-fill" stroke="none" fill="#f4f4f4"><g><text style="font: 20px &quot;Shantell Sans&quot;, cursive; white-space: pre;" font-size="20px" font-family="'Shantell Sans', cursive"><tspan x="18.04" y="35.6" dominant-baseline="ideographic">Store Data in </tspan><tspan x="12.2" y="59.6" dominant-baseline="ideographic">Stack Memory</tspan></text></g></g></g><g id="g-root-tx_checkpro_zk1rt6gfd344-fill" data-item-order="0" transform="translate(512, 350)"><g id="tx_checkpro_zk1rt6gfd344-fill" stroke="none" fill="#f4f4f4"><g><text style="font: 20px &quot;Shantell Sans&quot;, cursive; white-space: pre;" font-size="20px" font-family="'Shantell Sans', cursive"><tspan x="35.72" y="35.6" dominant-baseline="ideographic">Check </tspan><tspan x="16.88" y="59.6" dominant-baseline="ideographic">Prototype</tspan></text></g></g></g><g id="g-root-tx_javascri_1unerregfd4i2-fill" data-item-order="0" transform="translate(224, 26)"><g id="tx_javascri_1unerregfd4i2-fill" stroke="none" fill="#f4f4f4"><g><text style="font: bold 25px &quot;Shantell Sans&quot;, cursive; white-space: pre;" font-weight="bold" font-size="25px" font-family="'Shantell Sans', cursive"><tspan x="17.41" y="44.2" dominant-baseline="ideographic">JavaScript Execution Process</tspan></text></g></g></g><g id="g-root-tf_18hkah6gfk5xm-stroke" data-item-order="-414720"></g><g id="g-root-sy_-1_line_dbpb0qgfd3bc-stroke" data-item-order="-4889" transform="translate(761, 277.99609375)"><g id="sy_-1_line_dbpb0qgfd3bc-stroke" fill="none" stroke-linecap="round" stroke-linejoin="round" stroke-miterlimit="4" stroke="#ababab" stroke-width="2"><g><path d="M 77 10.003906L 10 10.003906"></path><path d="M 71 16.503906L 77.5 10.003906L 71 3.503906" stroke-dasharray="none"></path></g></g></g><g id="g-root-sy_-1_vector_8vvswagfd43l-stroke" data-item-order="-4885" transform="translate(14, 277.99609375)"><g id="sy_-1_vector_8vvswagfd43l-stroke" fill="none" stroke-linecap="round" stroke-linejoin="round" stroke-miterlimit="4" stroke="#ababab" stroke-width="2"><g><path d="M 751 9.999992L 661 9.999992M 655 9.999992L 565 9.999992M 559 9.999992L 469 9.999992M 463 9.999992L 373 9.999992M 367 9.999992L 277 9.999992M 271 9.999992L 181 9.999992M 174.9976 9.999992L 84.9976 9.999992M 78.9976 9.999992L 10 9.999992"></path></g></g></g><g id="g-root-sy_8_cu-smallCircle_8vvswagfd43m-stroke" data-item-order="-4881" transform="translate(755, 275)"><g id="sy_8_cu-smallCircle_8vvswagfd43m-stroke" fill="none" stroke-linecap="round" stroke-linejoin="round" stroke-miterlimit="4" stroke="#ababab" stroke-width="2"><g><path d="M 16 13C 16 14.6569 14.6569 16 13 16C 11.3431 16 10 14.6569 10 13C 10 11.3431 11.3431 10 13 10C 14.6569 10 16 11.3431 16 13Z"></path></g></g></g><g id="g-root-sy_7_cu-smallCircle_8snegfd4wb-stroke" data-item-order="-4877" transform="translate(659, 275)"><g id="sy_7_cu-smallCircle_8snegfd4wb-stroke" fill="none" stroke-linecap="round" stroke-linejoin="round" stroke-miterlimit="4" stroke="#ababab" stroke-width="2"><g><path d="M 16 13C 16 14.6569 14.6569 16 13 16C 11.3431 16 10 14.6569 10 13C 10 11.3431 11.3431 10 13 10C 14.6569 10 16 11.3431 16 13Z"></path></g></g></g><g id="g-root-sy_6_cu-smallCircle_8snegfd4wc-stroke" data-item-order="-4873" transform="translate(563, 275)"><g id="sy_6_cu-smallCircle_8snegfd4wc-stroke" fill="none" stroke-linecap="round" stroke-linejoin="round" stroke-miterlimit="4" stroke="#ababab" stroke-width="2"><g><path d="M 16 13C 16 14.6569 14.6569 16 13 16C 11.3431 16 10 14.6569 10 13C 10 11.3431 11.3431 10 13 10C 14.6569 10 16 11.3431 16 13Z"></path></g></g></g><g id="g-root-sy_5_cu-smallCircle_1uljci2gfd5hh-stroke" data-item-order="-4869" transform="translate(467, 275)"><g id="sy_5_cu-smallCircle_1uljci2gfd5hh-stroke" fill="none" stroke-linecap="round" stroke-linejoin="round" stroke-miterlimit="4" stroke="#ababab" stroke-width="2"><g><path d="M 16 13C 16 14.6569 14.6569 16 13 16C 11.3431 16 10 14.6569 10 13C 10 11.3431 11.3431 10 13 10C 14.6569 10 16 11.3431 16 13Z"></path></g></g></g><g id="g-root-sy_4_cu-smallCircle_1uljci2gfd5hi-stroke" data-item-order="-4865" transform="translate(371, 275)"><g id="sy_4_cu-smallCircle_1uljci2gfd5hi-stroke" fill="none" stroke-linecap="round" stroke-linejoin="round" stroke-miterlimit="4" stroke="#ababab" stroke-width="2"><g><path d="M 16 13C 16 14.6569 14.6569 16 13 16C 11.3431 16 10 14.6569 10 13C 10 11.3431 11.3431 10 13 10C 14.6569 10 16 11.3431 16 13Z"></path></g></g></g><g id="g-root-sy_3_cu-smallCircle_1uljci2gfd5hj-stroke" data-item-order="-4861" transform="translate(275, 275)"><g id="sy_3_cu-smallCircle_1uljci2gfd5hj-stroke" fill="none" stroke-linecap="round" stroke-linejoin="round" stroke-miterlimit="4" stroke="#ababab" stroke-width="2"><g><path d="M 16 13C 16 14.6569 14.6569 16 13 16C 11.3431 16 10 14.6569 10 13C 10 11.3431 11.3431 10 13 10C 14.6569 10 16 11.3431 16 13Z"></path></g></g></g><g id="g-root-sy_2_cu-smallCircle_1q6cbgqgfd340-stroke" data-item-order="-4857" transform="translate(179, 275)"><g id="sy_2_cu-smallCircle_1q6cbgqgfd340-stroke" fill="none" stroke-linecap="round" stroke-linejoin="round" stroke-miterlimit="4" stroke="#ababab" stroke-width="2"><g><path d="M 16 13C 16 14.6569 14.6569 16 13 16C 11.3431 16 10 14.6569 10 13C 10 11.3431 11.3431 10 13 10C 14.6569 10 16 11.3431 16 13Z"></path></g></g></g><g id="g-root-sy_1_cu-smallCircle_1q6cbgqgfd341-stroke" data-item-order="-4853" transform="translate(83, 275)"><g id="sy_1_cu-smallCircle_1q6cbgqgfd341-stroke" fill="none" stroke-linecap="round" stroke-linejoin="round" stroke-miterlimit="4" stroke="#ababab" stroke-width="2"><g><path d="M 16 13C 16 14.6569 14.6569 16 13 16C 11.3431 16 10 14.6569 10 13C 10 11.3431 11.3431 10 13 10C 14.6569 10 16 11.3431 16 13Z"></path></g></g></g><g id="g-root-ic_figm_zqaioagfmyvb-stroke" data-item-order="0" transform="translate(446, 218)"><g id="ic_figm_zqaioagfmyvb-stroke" fill="none" stroke-linecap="round" stroke-linejoin="round" stroke-miterlimit="4" stroke="#ffe711" stroke-width="2"><g><path d="M 25.9461 11.715L 40.8876 11.715C 44.9364 11.715 48.2476 15.05966 48.2476 19.14058C 48.2476 23.2215 44.9364 26.5662 40.8876 26.5662L 25.9461 26.5662C 21.8973 26.5662 18.58609 23.2215 18.58609 19.14058C 18.58609 15.05966 21.8973 11.715 25.9461 11.715ZM 33.417 26.7013L 33.417 11.86719M 40.8681 41.4412C 36.8033 41.4412 33.4425 38.0804 33.4425 34.0156C 33.4425 29.9508 36.8033 26.59 40.8681 26.59C 44.9329 26.59 48.2937 29.9508 48.2937 34.0156C 48.2937 38.0804 44.9329 41.4412 40.8681 41.4412ZM 25.9451 26.5705L 33.4372 26.5705L 33.4372 41.4216L 25.9451 41.4216C 21.8971 41.4216 18.58609 38.0766 18.58609 33.996C 18.58609 29.9154 21.8971 26.5705 25.9451 26.5705ZM 25.9451 41.4338L 33.4372 41.4338L 33.4372 48.9259C 33.4372 52.9739 30.0923 56.2849 26.0117 56.2849C 21.9474 56.2849 18.58609 52.9236 18.58609 48.8593C 18.58609 44.7787 21.8971 41.4338 25.9451 41.4338Z"></path></g></g></g><g id="g-root-ic_illu_140hr0qgfhbtb-stroke" data-item-order="0" transform="translate(638, 218)"><g id="ic_illu_140hr0qgfhbtb-stroke" fill="none" stroke-linecap="round" stroke-linejoin="round" stroke-miterlimit="4" stroke="#fb6762" stroke-width="2"><g><path d="M 15.23518 11.886478L 52.787079 11.886478C 52.787079 11.886478 56.217079 11.886478 56.217079 15.246478L 56.217079 52.004292C 56.217079 52.004292 56.217079 55.364292 52.787079 55.364292L 15.23518 55.364292C 15.23518 55.364292 11.80518 55.364292 11.80518 52.004292L 11.80518 15.246478C 11.80518 15.246478 11.80518 11.886478 15.23518 11.886478M 21.549801 43.835983L 24.4522 36.210449M 37.301201 43.835983L 34.129799 36.210449M 34.129799 36.210449L 29.0767 22.922188L 24.4522 36.210449M 34.129799 36.210449L 24.4522 36.210449M 43.936501 43.700214L 43.936501 27.984718M 43.936501 24.842581L 43.936501 22.26018"></path></g></g></g><g id="g-root-ic_powe_zkoc22gf8xs7-stroke" data-item-order="0" transform="translate(254, 218)"><g id="ic_powe_zkoc22gf8xs7-stroke" fill="none" stroke-linecap="round" stroke-linejoin="round" stroke-miterlimit="4" stroke="#a6da37" stroke-width="2"><g><path d="M 30.4454 23.5391L 15.18293 23.5391C 13.28859 23.5391 11.75293 25.0747 11.75293 26.9691L 11.75293 41.1349C 11.75293 43.0292 13.2886 44.5649 15.18293 44.5649L 30.4454 44.5649C 32.3397 44.5649 33.8754 43.0292 33.8754 41.1349L 33.8754 26.9691C 33.8754 25.0747 32.3397 23.5391 30.4454 23.5391ZM 17.1416 23.5326C 20.7554 17.21052 27.4759 13.01562 35.2795 13.01562C 46.8656 13.01562 56.258 22.408 56.258 33.9941C 56.258 45.5803 46.8656 54.9727 35.2795 54.9727C 27.5893 54.9727 20.9106 50.7292 17.25836 44.5584M 39.4224 13.42578L 39.4224 28.6972C 39.4224 30.5915 40.958 32.1272 42.8524 32.1272L 56.1758 32.1272M 18.5625 41.2071L 18.5625 35.4064M 18.5625 35.4064L 18.5625 28.7189L 22.3802 28.7189C 23.6824 28.7086 26.2869 29.4044 26.2869 32.2693C 26.2869 35.1342 23.6824 35.5544 22.3802 35.4064L 18.5625 35.4064Z"></path></g></g></g><g id="g-root-tx_handledy_1cuvt3egfd4oy-stroke" data-item-order="0" transform="translate(710, 350)"></g><g id="g-root-ic_miro_4hxt6ygffwn5-stroke" data-item-order="0" transform="translate(62, 218)"><g id="ic_miro_4hxt6ygffwn5-stroke" fill="none" stroke-linecap="round" stroke-linejoin="round" stroke-miterlimit="4" stroke="#4f91fc" stroke-width="2"><g><path d="M 14 11L 54 11C 54 11 57 11 57 14L 57 54C 57 54 57 57 54 57L 14 57C 14 57 11 57 11 54L 11 14C 11 14 11 11 14 11M 21.589619 50.608799L 18.34178 50.608799L 22.66116 28.553221L 22.71608 28.27282L 22.614559 28.005739L 18.576839 17.38282L 21.86834 17.38282L 30.9506 26.274599L 21.589619 50.608799ZM 31.7766 50.612598L 28.53824 50.612598L 33.1022 26.197781L 33.163799 25.868721L 33.014801 25.56892L 28.94776 17.386721L 32.149597 17.386721L 41.1478 24.14554L 31.7766 50.612598ZM 42.003601 50.608799L 38.771202 50.608799L 43.325802 23.948399L 43.390999 23.56584L 43.181198 23.23934L 39.4174 17.38282L 42.469601 17.38282L 51.003201 22.263359L 42.003601 50.608799Z"></path></g></g></g><g id="g-root-tx_executei_13z8suigfd5hn-stroke" data-item-order="0" transform="translate(590, 158)"></g><g id="g-root-tx_storedat_qoerkagfd3wt-stroke" data-item-order="0" transform="translate(398, 158)"></g><g id="g-root-tx_executec_dcy96ygfd5hr-stroke" data-item-order="0" transform="translate(206, 158)"></g><g id="g-root-ic_coda_qn5wjugfd4hs-stroke" data-item-order="0" transform="translate(158, 290)"><g id="ic_coda_qn5wjugfd4hs-stroke" fill="none" stroke-linecap="round" stroke-linejoin="round" stroke-miterlimit="4" stroke="#43dd93" stroke-width="2"><g><path d="M 11 14C 11 12.34314 12.34314 11 14 11L 54 11C 55.656799 11 57 12.34314 57 14L 57 25.5359C 57 26.3445 56.344601 27 55.535999 27C 55.114201 27 54.662201 26.799761 54.264599 26.418779C 52.379398 24.611839 49.8186 23.5 47 23.5C 41.201 23.5 36.5 28.201 36.5 34C 36.5 39.799 41.201 44.5 47 44.5C 49.8186 44.5 52.379398 43.388199 54.264599 41.5812C 54.662201 41.200199 55.114201 41 55.535999 41C 56.344601 41 57 41.655399 57 42.464001L 57 54C 57 55.656799 55.656799 57 54 57L 14 57C 12.34314 57 11 55.656799 11 54L 11 14Z"></path></g></g></g><g id="g-root-ic_docs_1lpwc96gfoemg-stroke" data-item-order="0" transform="translate(350, 290)"><g id="ic_docs_1lpwc96gfoemg-stroke" fill="none" stroke-linecap="round" stroke-linejoin="round" stroke-miterlimit="4" stroke="#1ac3fb" stroke-width="2"><g><path d="M 25.5 29.7539L 42.5 29.7539M 25.5 36.0234L 42.5 36.0234M 25.5 42.6055L 37.5 42.6055M 48.9581 22.3634L 38.9979 12.70231C 38.3579 12.08155 37.5014 11.73438 36.6098 11.73438L 21.43 11.73438C 19.53566 11.73438 18 13.27004 18 15.16438L 18 52.8386C 18 54.7329 19.53566 56.2686 21.43 56.2686L 46.57 56.2686C 48.4643 56.2686 50 54.7329 50 52.8386L 50 24.8255C 50 23.8976 49.6241 23.0094 48.9581 22.3634ZM 38.5 12.23828L 38.5 20.4479C 38.5 22.3422 40.0357 23.8779 41.93 23.8779L 50 23.8779"></path></g></g></g><g id="g-root-ic_canv_92r0uigfk5xm-stroke" data-item-order="0" transform="translate(542, 290)"><g id="ic_canv_92r0uigfk5xm-stroke" fill="none" stroke-linecap="round" stroke-linejoin="round" stroke-miterlimit="4" stroke="#f79438" stroke-width="2"><g><path d="M 11.715 34C 11.715 46.307666 21.692335 56.285 34 56.285C 46.307666 56.285 56.285 46.307666 56.285 34C 56.285 21.692335 46.307666 11.715 34 11.715C 21.692335 11.715 11.715 21.692335 11.715 34M 26.5233 38.782C 26.5233 26.3958 33.0013 19.97979 37.8898 19.97979C 42.7783 19.97979 42.1796 26.0728 38.167 29.8544C 37.6575 30.3345 40.7063 30.2127 42.5084 27.8953C 45.9355 23.4884 42.6132 18.25104 37.4699 18.56844C 28.234 19.1384 20.1945 35.6508 23.3149 43.0368C 26.9634 51.673 35.1213 49.9306 38.4471 47.5703C 41.773 45.21 45.2845 40.7829 45.0163 40.2465C 44.748 39.71 44.3795 39.6577 43.7894 40.516C 43.1994 41.3743 39.8747 47.2362 33.8218 47.2362C 27.4382 47.2362 26.5233 40.0716 26.5233 38.782Z"></path></g></g></g><g id="g-root-ic_ai_1q7l9mygfd5ab-stroke" data-item-order="0" transform="translate(734, 290)"><g id="ic_ai_1q7l9mygfd5ab-stroke" fill="none" stroke-linecap="round" stroke-linejoin="round" stroke-miterlimit="4" stroke="#f366bb" stroke-width="2"><g><path d="M 29.002359 56.6702L 29.0005 56.670399L 27.656321 51.669601L 44.941399 41.741199L 29.751699 56.868999C 29.75164 56.868999 29.7516 56.868999 29.751539 56.869202C 29.5068 57.1124 29.090719 56.997799 29.002359 56.6702ZM 18.86812 11.06159L 18.86894 11.062056L 28.190519 16.421501L 18.200001 22.163841L 18.200001 11.438958C 18.200001 11.110486 18.5658 10.88739 18.86812 11.06159ZM 18.200001 36.385597L 18.200001 28.914221L 34.0616 19.80398L 40.552399 23.539139L 18.200001 36.385597ZM 51.744801 29.9851L 51.744801 29.978201L 46.423 26.9154L 18.200001 43.1362L 18.200001 49.8554C 18.200001 50.152599 18.512459 50.3834 18.825581 50.247601L 52.245602 31.0284L 51.744801 29.9851ZM 51.744801 29.9851L 52.245602 30.2736M 51.744801 29.9851L 52.245602 30.2736M 52.245602 30.2736C 52.538399 30.4424 52.538799 30.858801 52.246399 31.028L 52.245602 30.2736Z"></path></g></g></g><g id="g-root-tx_writejav_4hxq16gfd3wh-stroke" data-item-order="0" transform="translate(26, 134)"></g><g id="g-root-tx_interpre_8xr85mgfd348-stroke" data-item-order="0" transform="translate(116, 350)"></g><g id="g-root-tx_storedat_m8l9fugfd4p2-stroke" data-item-order="0" transform="translate(302, 350)"></g><g id="g-root-tx_checkpro_zk1rt6gfd344-stroke" data-item-order="0" transform="translate(512, 350)"></g><g id="g-root-tx_javascri_1unerregfd4i2-stroke" data-item-order="0" transform="translate(224, 26)"></g></g></g></svg>