<?xml version="1.0" encoding="utf-8" standalone="yes"?>
<!DOCTYPE svg PUBLIC "-//W3C//DTD SVG 1.1//EN" "http://www.w3.org/Graphics/SVG/1.1/DTD/svg11.dtd">
<svg width="828" height="486" viewBox="0 0 828 486" style="fill:none;stroke:none;fill-rule:evenodd;clip-rule:evenodd;stroke-linecap:round;stroke-linejoin:round;stroke-miterlimit:1.5;" version="1.1" xmlns="http://www.w3.org/2000/svg" xmlns:xlink="http://www.w3.org/1999/xlink"><style class="text-font-style fontImports" data-font-family="Roboto">@import url('https://fonts.googleapis.com/css2?family=Roboto:wght@400;700&amp;display=block');</style><g id="items" style="isolation: isolate"><g id="blend" style="mix-blend-mode: normal"><g id="g-root-ro_zqas8kk1nbpc-fill" data-item-order="-14904" transform="translate(14, 200)"><g id="ro_zqas8kk1nbpc-fill" stroke="none" fill="#f79438"><g><path d="M 22 10L 274 10C 274 10 286 10 286 22L 286 52C 286 52 286 64 274 64L 22 64C 22 64 10 64 10 52L 10 22C 10 22 10 10 22 10"></path></g></g></g><g id="g-root-ro_v63s6sk1khl9-fill" data-item-order="-13608" transform="translate(542, 200)"><g id="ro_v63s6sk1khl9-fill" stroke="none" fill="#cb68f9"><g><path d="M 22 10L 250 10C 250 10 262 10 262 22L 262 52C 262 52 262 64 250 64L 22 64C 22 64 10 64 10 52L 10 22C 10 22 10 10 22 10"></path></g></g></g><g id="g-root-ro_1qcl5kkk1nax0-fill" data-item-order="-12960" transform="translate(542, 296)"><g id="ro_1qcl5kkk1nax0-fill" stroke="none" fill="#ffe711"><g><path d="M 22 10L 238 10C 238 10 250 10 250 22L 250 52C 250 52 250 64 238 64L 22 64C 22 64 10 64 10 52L 10 22C 10 22 10 10 22 10"></path></g></g></g><g id="g-root-ro_zqx9bok16h37-fill" data-item-order="-12960" transform="translate(466, 122)"><g id="ro_zqx9bok16h37-fill" stroke="none" fill="#1ac3fb"><g><path d="M 22 10L 238 10C 238 10 250 10 250 22L 250 52C 250 52 250 64 238 64L 22 64C 22 64 10 64 10 52L 10 22C 10 22 10 10 22 10"></path></g></g></g><g id="g-root-ro_1cuw5tgk1aosv-fill" data-item-order="-11664" transform="translate(150, 374)"><g id="ro_1cuw5tgk1aosv-fill" stroke="none" fill="#43dd93"><g><path d="M 22 10L 214 10C 214 10 226 10 226 22L 226 52C 226 52 226 64 214 64L 22 64C 22 64 10 64 10 52L 10 22C 10 22 10 10 22 10"></path></g></g></g><g id="g-root-ro_1d0iflgk1anf3-fill" data-item-order="-11016" transform="translate(162, 122)"><g id="ro_1d0iflgk1anf3-fill" stroke="none" fill="#cb68f9"><g><path d="M 22 10L 202 10C 202 10 214 10 214 22L 214 52C 214 52 214 64 202 64L 22 64C 22 64 10 64 10 52L 10 22C 10 22 10 10 22 10"></path></g></g></g><g id="g-root-ro_1lvisfok1khl6-fill" data-item-order="-11016" transform="translate(466, 374)"><g id="ro_1lvisfok1khl6-fill" stroke="none" fill="#a6da37"><g><path d="M 22 10L 202 10C 202 10 214 10 214 22L 214 52C 214 52 214 64 202 64L 22 64C 22 64 10 64 10 52L 10 22C 10 22 10 10 22 10"></path></g></g></g><g id="g-root-ro_1uuwtisk152bk-fill" data-item-order="-10368" transform="translate(98, 296)"><g id="ro_1uuwtisk152bk-fill" stroke="none" fill="#8769fd"><g><path d="M 22 10L 190 10C 190 10 202 10 202 22L 202 52C 202 52 202 64 190 64L 22 64C 22 64 10 64 10 52L 10 22C 10 22 10 10 22 10"></path></g></g></g><g id="g-root-ic_scri_1cz94s4k1hpfs-fill" data-item-order="-7482" transform="translate(372.75, 230)"><g id="ic_scri_1cz94s4k1hpfs-fill" stroke="none" fill="#f0d80d"><g><path d="M 89.291672 10L 17.208334 10C 13.227281 10 10 13.227281 10 17.208334L 10 89.291672C 10 93.272728 13.227281 96.5 17.208334 96.5L 89.291672 96.5C 93.272728 96.5 96.5 93.272728 96.5 89.291672L 96.5 17.208334C 96.5 13.227281 93.272728 10 89.291672 10ZM 55.052086 74.875C 55.052086 81.841843 49.404343 87.489586 42.4375 87.489586C 35.470661 87.489586 29.822918 81.841843 29.822918 74.875L 38.833336 74.875C 38.833336 76.865524 40.446972 78.479172 42.4375 78.479172C 44.428028 78.479172 46.041668 76.865524 46.041668 74.875L 46.041668 46.041668L 55.052086 46.041668ZM 74.875 87.489586C 69.856285 87.492737 65.31311 84.520561 63.30563 79.920837C 62.816494 78.804199 62.924976 77.515991 63.59396 76.49688C 64.264099 75.479256 65.403015 74.869118 66.62146 74.875L 68.639793 74.875C 69.91967 74.882729 71.099449 75.568642 71.739372 76.677086C 72.548576 78.105103 74.220413 78.806023 75.806061 78.382057C 77.391716 77.958084 78.490639 76.516312 78.479172 74.875C 78.479172 73.865829 78.479172 72.712502 73.433334 71.054588C 70.1175 69.937286 62.260418 67.450417 62.260418 58.65625C 62.251785 52.675606 66.443939 47.510895 72.298515 46.289371C 78.153091 45.067852 84.06076 48.125301 86.444382 53.61042C 87.001411 54.776611 86.891403 56.151787 86.156044 57.214584C 85.485909 58.232204 84.346985 58.842342 83.128548 58.83646L 81.110207 58.83646C 79.83033 58.828732 78.650551 58.142818 78.010628 57.034378C 77.201424 55.606361 75.529587 54.905437 73.943939 55.329407C 72.358292 55.75338 71.259361 57.195148 71.270836 58.83646C 71.270836 59.845627 71.270836 60.998959 76.316666 62.656876C 79.6325 63.77417 87.489586 66.26104 87.489586 75.055206C 87.39106 81.951584 81.772079 87.490295 74.875 87.489594Z"></path></g></g></g><g id="g-root-cu_zpoeb8k1amml-fill" data-item-order="0" transform="translate(436, 149)"></g><g id="g-root-cu_18koxh0k1aozm-fill" data-item-order="0" transform="translate(366, 149)"></g><g id="g-root-cu_144vfckk1aozz-fill" data-item-order="0" transform="translate(436, 320)"></g><g id="g-root-cu_18koxh0k1ao7c-fill" data-item-order="0" transform="translate(290, 227)"></g><g id="g-root-cu_18koxh0k1ao7f-fill" data-item-order="0" transform="translate(459.25, 227)"></g><g id="g-root-cu_144vfckk1aozt-fill" data-item-order="0" transform="translate(290, 290)"></g><g id="g-root-cu_18koxh0k1ao7i-fill" data-item-order="0" transform="translate(459.25, 284)"></g><g id="g-root-cu_144vfckk1aozw-fill" data-item-order="0" transform="translate(366, 320)"></g><g id="g-root-tx_javascri_145hwfok1amm8-fill" data-item-order="0" transform="translate(182, 38)"><g id="tx_javascri_145hwfok1amm8-fill" stroke="none" fill="#f0d80d"><g><text style="font: 25px Roboto, sans-serif; white-space: pre;" font-size="25px" font-family="Roboto, sans-serif"><tspan x="15.66" y="42.6" dominant-baseline="ideographic">JavaScript: Key Features and Concepts</tspan></text></g></g></g><g id="g-root-tx_environm_i09t2sk152j2-fill" data-item-order="2000000000" transform="translate(110, 311)"><g id="tx_environm_i09t2sk152j2-fill" stroke="none" fill="#2c2c2c"><g><text style="font: 20px Roboto, sans-serif; white-space: pre;" font-size="20px" font-family="Roboto, sans-serif"><tspan x="14.97" y="34" dominant-baseline="ideographic">Environments</tspan></text></g></g></g><g id="g-root-ic_word_dl2s1gk1505j-fill" data-item-order="2000000000" transform="translate(248, 308)"></g><g id="g-root-tx_firstcla_1hcktpwk1kidf-fill" data-item-order="2000000000" transform="translate(590, 215)"><g id="tx_firstcla_1hcktpwk1kidf-fill" stroke="none" fill="#2c2c2c"><g><text style="font: 20px Roboto, sans-serif; white-space: pre;" font-size="20px" font-family="Roboto, sans-serif"><tspan x="12.78" y="34" dominant-baseline="ideographic">First Class Functions</tspan></text></g></g></g><g id="g-root-ic_glob_141qsfok1kgsk-fill" data-item-order="2000000000" transform="translate(554, 212)"></g><g id="g-root-ic_inte_4mxlysk1n9j7-fill" data-item-order="2000000000" transform="translate(554, 308)"></g><g id="g-root-ic_righ_1464ad0k1nax3-fill" data-item-order="2000000000" transform="translate(248, 212)"></g><g id="g-root-tx_scriptin_hxrn90k1nb42-fill" data-item-order="2000000000" transform="translate(590, 311)"><g id="tx_scriptin_hxrn90k1nb42-fill" stroke="none" fill="#2c2c2c"><g><text style="font: 20px Roboto, sans-serif; white-space: pre;" font-size="20px" font-family="Roboto, sans-serif"><tspan x="14.24" y="34" dominant-baseline="ideographic">Scripting Language</tspan></text></g></g></g><g id="g-root-tx_lightwei_18lxshgk1na4u-fill" data-item-order="2000000000" transform="translate(26, 215)"><g id="tx_lightwei_18lxshgk1na4u-fill" stroke="none" fill="#2c2c2c"><g><text style="font: 20px Roboto, sans-serif; white-space: pre;" font-size="20px" font-family="Roboto, sans-serif"><tspan x="15.03" y="34" dominant-baseline="ideographic">Lightweight Interpreted</tspan></text></g></g></g><g id="g-root-tx_dynamicl_1d2drp0k16fi9-fill" data-item-order="2000000000" transform="translate(514, 137)"><g id="tx_dynamicl_1d2drp0k16fi9-fill" stroke="none" fill="#2c2c2c"><g><text style="font: 20px Roboto, sans-serif; white-space: pre;" font-size="20px" font-family="Roboto, sans-serif"><tspan x="14.99" y="34" dominant-baseline="ideographic">Dynamic Language</tspan></text></g></g></g><g id="g-root-tx_prototyp_1q6co6sk1an7x-fill" data-item-order="2000000000" transform="translate(162, 389)"><g id="tx_prototyp_1q6co6sk1an7x-fill" stroke="none" fill="#2c2c2c"><g><text style="font: 20px Roboto, sans-serif; white-space: pre;" font-size="20px" font-family="Roboto, sans-serif"><tspan x="14.36" y="34" dominant-baseline="ideographic">Prototype-Based</tspan></text></g></g></g><g id="g-root-ic_cube_1lqj62ck1ao06-fill" data-item-order="2000000000" transform="translate(324, 386)"></g><g id="g-root-tx_multipar_5v8twk1kg7c-fill" data-item-order="2000000000" transform="translate(514, 389)"><g id="tx_multipar_5v8twk1kg7c-fill" stroke="none" fill="#2c2c2c"><g><text style="font: 20px Roboto, sans-serif; white-space: pre;" font-size="20px" font-family="Roboto, sans-serif"><tspan x="14.71" y="34" dominant-baseline="ideographic">Multi-paradigm</tspan></text></g></g></g><g id="g-root-ic_scri_146qrg4k16gay-fill" data-item-order="2000000000" transform="translate(478, 134)"></g><g id="g-root-tx_singleth_1qbcgvok1aozx-fill" data-item-order="2000000000" transform="translate(174, 137)"><g id="tx_singleth_1qbcgvok1aozx-fill" stroke="none" fill="#2c2c2c"><g><text style="font: 20px Roboto, sans-serif; white-space: pre;" font-size="20px" font-family="Roboto, sans-serif"><tspan x="15.81" y="34" dominant-baseline="ideographic">Single Threded</tspan></text></g></g></g><g id="g-root-ic_chec_1lw5fuck1amme-fill" data-item-order="2000000000" transform="translate(324, 134)"></g><g id="g-root-ic_code_1ur5sokk1kgsh-fill" data-item-order="2000000000" transform="translate(478, 386)"></g><g id="g-root-ro_zqas8kk1nbpc-stroke" data-item-order="-14904" transform="translate(14, 200)"></g><g id="g-root-ro_v63s6sk1khl9-stroke" data-item-order="-13608" transform="translate(542, 200)"></g><g id="g-root-ro_1qcl5kkk1nax0-stroke" data-item-order="-12960" transform="translate(542, 296)"></g><g id="g-root-ro_zqx9bok16h37-stroke" data-item-order="-12960" transform="translate(466, 122)"></g><g id="g-root-ro_1cuw5tgk1aosv-stroke" data-item-order="-11664" transform="translate(150, 374)"></g><g id="g-root-ro_1d0iflgk1anf3-stroke" data-item-order="-11016" transform="translate(162, 122)"></g><g id="g-root-ro_1lvisfok1khl6-stroke" data-item-order="-11016" transform="translate(466, 374)"></g><g id="g-root-ro_1uuwtisk152bk-stroke" data-item-order="-10368" transform="translate(98, 296)"></g><g id="g-root-ic_scri_1cz94s4k1hpfs-stroke" data-item-order="-7482" transform="translate(372.75, 230)"></g><g id="g-root-cu_zpoeb8k1amml-stroke" data-item-order="0" transform="translate(436, 149)"><g id="cu_zpoeb8k1amml-stroke" fill="none" stroke-linecap="round" stroke-linejoin="round" stroke-miterlimit="4" stroke="#fff06b" stroke-width="2" stroke-dasharray="5.0, 7.0"><g><path d="M 10 91L 10 80.9L 10 34C 10 20.745166 20.745166 10 33.999999 10L 34.1 10L 40 10"></path></g></g></g><g id="g-root-cu_18koxh0k1aozm-stroke" data-item-order="0" transform="translate(366, 149)"><g id="cu_18koxh0k1aozm-stroke" fill="none" stroke-linecap="round" stroke-linejoin="round" stroke-miterlimit="4" stroke="#fff06b" stroke-width="2" stroke-dasharray="5.0, 7.0"><g><path d="M 40 91L 40 80.9L 40 34C 40 20.745165 29.254834 9.999999 16 10L 15.9 10L 10 10"></path></g></g></g><g id="g-root-cu_144vfckk1aozz-stroke" data-item-order="0" transform="translate(436, 320)"><g id="cu_144vfckk1aozz-stroke" fill="none" stroke-linecap="round" stroke-linejoin="round" stroke-miterlimit="4" stroke="#fff06b" stroke-width="2" stroke-dasharray="5.0, 7.0"><g><path d="M 10 10L 10 20.1L 10 67C 10.000001 80.254833 20.745167 90.999998 34.000001 90.999998L 34.1 91L 40 91"></path></g></g></g><g id="g-root-cu_18koxh0k1ao7c-stroke" data-item-order="0" transform="translate(290, 227)"><g id="cu_18koxh0k1ao7c-stroke" fill="none" stroke-linecap="round" stroke-linejoin="round" stroke-miterlimit="4" stroke="#fff06b" stroke-width="2" stroke-dasharray="5.0, 7.0"><g><path d="M 92.8 41L 87.6 41L 75.4 41C 70.834862 41.007217 65.883504 39.552972 61.100002 36.800004C 58.24128 35.133817 54.752063 31.06906 51.4 25.499999C 48.047936 19.930937 44.55872 15.86618 41.7 14.199999C 36.916499 11.447035 31.965142 9.99279 27.400001 10.000001L 27.3 10L 10 10"></path></g></g></g><g id="g-root-cu_18koxh0k1ao7f-stroke" data-item-order="0" transform="translate(459.25, 227)"><g id="cu_18koxh0k1ao7f-stroke" fill="none" stroke-linecap="round" stroke-linejoin="round" stroke-miterlimit="4" stroke="#fff06b" stroke-width="2" stroke-dasharray="5.0, 7.0"><g><path d="M 10 37L 15.2 37L 27.4 37C 31.725885 36.989948 36.436171 35.752209 41.099999 33.400001C 43.909226 32.021412 47.600552 28.473439 51.400003 23.500001C 55.145176 18.583788 58.793476 15.042791 61.600004 13.600001C 66.300364 11.229371 71.047307 9.991038 75.399998 10.000002L 75.5 10L 92.8 10"></path></g></g></g><g id="g-root-cu_144vfckk1aozt-stroke" data-item-order="0" transform="translate(290, 290)"><g id="cu_144vfckk1aozt-stroke" fill="none" stroke-linecap="round" stroke-linejoin="round" stroke-miterlimit="4" stroke="#fff06b" stroke-width="2" stroke-dasharray="5.0, 7.0"><g><path d="M 93.8 10L 88.5 10L 75.9 10C 71.211722 9.982971 66.137996 11.54679 61.300001 14.500004C 58.404777 16.324984 55.017724 20.648881 51.900002 26.5C 48.739153 32.410412 45.30963 36.74244 42.400002 38.5C 37.597094 41.431754 32.561092 42.994651 27.900003 43L 27.8 43L 10 43"></path></g></g></g><g id="g-root-cu_18koxh0k1ao7i-stroke" data-item-order="0" transform="translate(459.25, 284)"><g id="cu_18koxh0k1ao7i-stroke" fill="none" stroke-linecap="round" stroke-linejoin="round" stroke-miterlimit="4" stroke="#fff06b" stroke-width="2" stroke-dasharray="5.0, 7.0"><g><path d="M 10 10L 15.2 10L 27.4 10C 32.440779 10.018097 37.844707 11.948072 42.799998 15.500001C 45.806398 17.599689 48.936564 22.695308 51.4 29.499999C 53.829804 36.244861 56.918041 41.331369 59.9 43.499998C 64.888958 47.076027 70.331689 49.007319 75.399995 49.000003L 75.5 49L 92.8 49"></path></g></g></g><g id="g-root-cu_144vfckk1aozw-stroke" data-item-order="0" transform="translate(366, 320)"><g id="cu_144vfckk1aozw-stroke" fill="none" stroke-linecap="round" stroke-linejoin="round" stroke-miterlimit="4" stroke="#fff06b" stroke-width="2" stroke-dasharray="5.0, 7.0"><g><path d="M 40 10L 40 20.1L 40 67C 39.999999 80.254831 29.254833 90.999997 16 90.999997L 15.9 91L 10 91"></path></g></g></g><g id="g-root-tx_javascri_145hwfok1amm8-stroke" data-item-order="0" transform="translate(182, 38)"></g><g id="g-root-tx_environm_i09t2sk152j2-stroke" data-item-order="2000000000" transform="translate(110, 311)"></g><g id="g-root-ic_word_dl2s1gk1505j-stroke" data-item-order="2000000000" transform="translate(248, 308)"><g id="ic_word_dl2s1gk1505j-stroke" fill="none" stroke-linecap="round" stroke-linejoin="round" stroke-miterlimit="4" stroke="#2c2c2c" stroke-width="2"><g><path d="M 18.125 32.5L 18.125 36.25C 18.125 36.940353 18.684645 37.5 19.375 37.5L 38.125 37.5C 38.815353 37.5 39.375 36.940353 39.375 36.25L 39.375 13.75C 39.375 13.059644 38.815353 12.5 38.125 12.5L 19.375 12.5C 18.684645 12.5 18.125 13.059644 18.125 13.75L 18.125 17.5M 25.625 25L 39.375 25M 25.625 18.75L 39.375 18.75M 25.625 31.25L 39.375 31.25M 11.875 17.5L 24.375 17.5C 24.375 17.5 25.625 17.5 25.625 18.75L 25.625 31.25C 25.625 31.25 25.625 32.5 24.375 32.5L 11.875 32.5C 11.875 32.5 10.625 32.5 10.625 31.25L 10.625 18.75C 10.625 18.75 10.625 17.5 11.875 17.5M 13.75 21.25L 15.625 28.75L 18.125 21.25L 20.625 28.75L 22.5 21.25"></path></g></g></g><g id="g-root-tx_firstcla_1hcktpwk1kidf-stroke" data-item-order="2000000000" transform="translate(590, 215)"></g><g id="g-root-ic_glob_141qsfok1kgsk-stroke" data-item-order="2000000000" transform="translate(554, 212)"><g id="ic_glob_141qsfok1kgsk-stroke" fill="none" stroke-linecap="round" stroke-linejoin="round" stroke-miterlimit="4" stroke="#2c2c2c" stroke-width="2"><g><path d="M 25 39.0625C 17.233496 39.0625 10.9375 32.766502 10.9375 25C 10.9375 17.233496 17.233496 10.9375 25 10.9375M 11.7475 20.3125L 24.0625 20.3125M 11.7525 29.6875L 24.0625 29.6875M 25 39.0625C 21.375 39.0625 18.4375 32.766251 18.4375 25C 18.4375 17.233749 21.375 10.9375 25 10.9375M 29.375 13.4375L 29.375 36.5625M 29.375 13.4375L 39.0625 13.4375M 29.375 22.1875L 39.0625 22.1875M 27.0525 27.1875L 34.6875 27.1875"></path></g></g></g><g id="g-root-ic_inte_4mxlysk1n9j7-stroke" data-item-order="2000000000" transform="translate(554, 308)"><g id="ic_inte_4mxlysk1n9j7-stroke" fill="none" stroke-linecap="round" stroke-linejoin="round" stroke-miterlimit="4" stroke="#2c2c2c" stroke-width="2"><g><path d="M 13.125 11.25L 36.875 11.25C 36.875 11.25 39.375 11.25 39.375 13.75L 39.375 36.25C 39.375 36.25 39.375 38.75 36.875 38.75L 13.125 38.75C 13.125 38.75 10.625 38.75 10.625 36.25L 10.625 13.75C 10.625 13.75 10.625 11.25 13.125 11.25M 10.625 17.5L 39.375 17.5M 15 14.0625C 15.172588 14.0625 15.3125 14.202411 15.3125 14.375C 15.3125 14.547589 15.172588 14.6875 15 14.6875C 14.827411 14.6875 14.6875 14.547589 14.6875 14.375C 14.6875 14.202411 14.827411 14.0625 15 14.0625M 18.75 14.0625C 18.922588 14.0625 19.0625 14.202411 19.0625 14.375C 19.0625 14.547589 18.922588 14.6875 18.75 14.6875C 18.577412 14.6875 18.4375 14.547589 18.4375 14.375C 18.4375 14.202411 18.577412 14.0625 18.75 14.0625M 22.5 14.0625C 22.672588 14.0625 22.8125 14.202411 22.8125 14.375C 22.8125 14.547589 22.672588 14.6875 22.5 14.6875C 22.327412 14.6875 22.1875 14.547589 22.1875 14.375C 22.1875 14.202411 22.327412 14.0625 22.5 14.0625M 17.168751 33.4375C 17.168751 33.782677 17.448572 34.0625 17.793751 34.0625C 18.138927 34.0625 18.418751 33.782677 18.418751 33.4375C 18.418751 33.092323 18.138927 32.8125 17.793751 32.8125C 17.448572 32.8125 17.168751 33.092323 17.168751 33.4375M 24.375 33.4375C 24.375 33.782677 24.654823 34.0625 25 34.0625C 25.345177 34.0625 25.625 33.782677 25.625 33.4375C 25.625 33.092323 25.345177 32.8125 25 32.8125C 24.654823 32.8125 24.375 33.092323 24.375 33.4375M 31.581249 33.4375C 31.581249 33.782677 31.861073 34.0625 32.206249 34.0625C 32.551426 34.0625 32.831249 33.782677 32.831249 33.4375C 32.831249 33.092323 32.551426 32.8125 32.206249 32.8125C 31.861073 32.8125 31.581249 33.092323 31.581249 33.4375M 17.793751 23.125L 15.29375 25.625L 17.793751 28.125M 32.206249 23.125L 34.706249 25.625L 32.206249 28.125"></path></g></g></g><g id="g-root-ic_righ_1464ad0k1nax3-stroke" data-item-order="2000000000" transform="translate(248, 212)"><g id="ic_righ_1464ad0k1nax3-stroke" fill="none" stroke-linecap="round" stroke-linejoin="round" stroke-miterlimit="4" stroke="#2c2c2c" stroke-width="2"><g><path d="M 11.071428 13.214286L 23.928572 13.214286M 15.357142 21.785713L 23.928572 21.785713M 11.071428 30.357141L 23.928572 30.357141M 15.357142 38.92857L 23.928572 38.92857M 38.92857 20.714285L 34.642857 25L 38.92857 29.285713M 29.285713 38.92857L 29.285713 11.071428"></path></g></g></g><g id="g-root-tx_scriptin_hxrn90k1nb42-stroke" data-item-order="2000000000" transform="translate(590, 311)"></g><g id="g-root-tx_lightwei_18lxshgk1na4u-stroke" data-item-order="2000000000" transform="translate(26, 215)"></g><g id="g-root-tx_dynamicl_1d2drp0k16fi9-stroke" data-item-order="2000000000" transform="translate(514, 137)"></g><g id="g-root-tx_prototyp_1q6co6sk1an7x-stroke" data-item-order="2000000000" transform="translate(162, 389)"></g><g id="g-root-ic_cube_1lqj62ck1ao06-stroke" data-item-order="2000000000" transform="translate(324, 386)"><g id="ic_cube_1lqj62ck1ao06-stroke" fill="none" stroke-linecap="round" stroke-linejoin="round" stroke-miterlimit="4" stroke="#2c2c2c" stroke-width="2"><g><path d="M 20 25C 20.690357 25 21.25 24.440357 21.25 23.75L 21.25 14.58C 21.249929 14.248507 21.118187 13.930615 20.883749 13.69625L 18.178751 10.99125C 17.944384 10.756813 17.626493 10.625071 17.295 10.625L 11.875 10.625C 11.184644 10.625 10.625 11.184644 10.625 11.875L 10.625 23.75C 10.625 24.440357 11.184644 25 11.875 25ZM 26.25 30.625L 35 30.625L 35 39.375L 26.25 39.375ZM 35 39.375L 39.375 35L 39.375 26.25L 30.625 26.25L 26.25 30.625M 35 30.625L 39.375 26.25M 36.25 18.75C 34.288147 15.707995 30.914761 13.871561 27.295 13.875L 25.358749 13.875M 28.26375 10.965L 25.358749 13.87125L 28.26375 16.776251M 11.25 30C 13.211853 33.042007 16.585241 34.878441 20.205 34.875L 22.141251 34.875M 19.23625 37.785L 22.141251 34.87875L 19.23625 31.973751"></path></g></g></g><g id="g-root-tx_multipar_5v8twk1kg7c-stroke" data-item-order="2000000000" transform="translate(514, 389)"></g><g id="g-root-ic_scri_146qrg4k16gay-stroke" data-item-order="2000000000" transform="translate(478, 134)"><g id="ic_scri_146qrg4k16gay-stroke" fill="none" stroke-linecap="round" stroke-linejoin="round" stroke-miterlimit="4" stroke="#2c2c2c" stroke-width="2"><g><path d="M 38.92857 12.142857L 27.142857 12.142857M 38.92857 18.571428L 27.142857 18.571428M 38.92857 25L 27.142857 25M 38.92857 37.857143L 27.142857 37.857143M 38.92857 31.42857L 27.142857 31.42857M 11.071428 21.785713L 11.071428 13.214286C 11.071428 13.214286 11.071428 12.142857 12.142857 12.142857L 20.714285 12.142857C 20.714285 12.142857 21.785713 12.142857 21.785713 13.214286L 21.785713 21.785713C 21.785713 21.785713 21.785713 22.857143 20.714285 22.857143L 12.142857 22.857143C 12.142857 22.857143 11.071428 22.857143 11.071428 21.785713M 11.071428 36.785713L 11.071428 28.214285C 11.071428 28.214285 11.071428 27.142857 12.142857 27.142857L 20.714285 27.142857C 20.714285 27.142857 21.785713 27.142857 21.785713 28.214285L 21.785713 36.785713C 21.785713 36.785713 21.785713 37.857143 20.714285 37.857143L 12.142857 37.857143C 12.142857 37.857143 11.071428 37.857143 11.071428 36.785713"></path></g></g></g><g id="g-root-tx_singleth_1qbcgvok1aozx-stroke" data-item-order="2000000000" transform="translate(174, 137)"></g><g id="g-root-ic_chec_1lw5fuck1amme-stroke" data-item-order="2000000000" transform="translate(324, 134)"><g id="ic_chec_1lw5fuck1amme-stroke" fill="none" stroke-linecap="round" stroke-linejoin="round" stroke-miterlimit="4" stroke="#2c2c2c" stroke-width="2"><g><path d="M 32.4375 19.000088L 17.437511 19.000088L 17.437511 39.000126L 32.4375 39.000126L 32.4375 19.000088ZM 34.9375 25.999874L 38.9375 25.999874M 34.9375 30.999874L 38.9375 30.999874M 34.9375 35.999874L 37.6875 35.999874C 38.4375 35.999874 38.9375 35.499874 38.9375 34.749874L 38.9375 22.249912C 38.9375 21.499912 38.4375 20.999912 37.6875 20.999912L 34.9375 20.999912M 18.062511 25.624874L 32.4375 25.624874M 18.062511 32.499878L 32.4375 32.499878M 14.937488 25.999874L 10.9375 25.999874M 14.937488 30.999874L 10.9375 30.999874M 14.9375 35.999874L 12.1875 35.999874C 11.4375 35.999874 10.9375 35.499874 10.9375 34.749874L 10.9375 22.249912C 10.9375 21.499912 11.4375 20.999912 12.1875 20.999912L 14.9375 20.999912M 10 10M 23.0625 12.249912L 24.9375 13.9999L 28.0625 10.999908"></path></g></g></g><g id="g-root-ic_code_1ur5sokk1kgsh-stroke" data-item-order="2000000000" transform="translate(478, 386)"><g id="ic_code_1ur5sokk1kgsh-stroke" fill="none" stroke-linecap="round" stroke-linejoin="round" stroke-miterlimit="4" stroke="#2c2c2c" stroke-width="2"><g><path d="M 25.67 38.036251C 25.66931 38.775822 25.069574 39.375 24.330002 39.375L 12.27625 39.375C 11.537165 39.37431 10.93819 38.775337 10.9375 38.036251L 10.9375 34.6875C 10.9375 30.619232 14.235483 27.321251 18.303751 27.321251C 22.372019 27.321251 25.67 30.619232 25.67 34.6875ZM 15.49125 31.875C 15.49125 32.047588 15.631161 32.1875 15.80375 32.1875C 15.976339 32.1875 16.116251 32.047588 16.116251 31.875C 16.116251 31.702412 15.976339 31.5625 15.80375 31.5625C 15.631161 31.5625 15.49125 31.702412 15.49125 31.875M 20.491249 31.8675C 20.491249 32.040089 20.631161 32.18 20.803749 32.18C 20.976339 32.18 21.116249 32.040089 21.116249 31.8675C 21.116249 31.69491 20.976339 31.555 20.803749 31.555C 20.631161 31.555 20.491249 31.69491 20.491249 31.8675M 18.303751 27.321251L 18.303751 24.6425M 16.295 22.633751C 16.295 23.743153 17.194347 24.642502 18.303751 24.642502C 19.413153 24.642502 20.3125 23.743153 20.3125 22.633751C 20.3125 21.524349 19.413153 20.625 18.303751 20.625C 17.194347 20.625 16.295 21.524349 16.295 22.633751M 10.9375 36.018749L 25.67 36.018749M 34.0625 11.25L 39.0625 16.25L 34.0625 21.25M 24.0625 11.25L 19.0625 16.25L 24.0625 21.25M 30.3125 10.625L 27.8125 21.875"></path></g></g></g></g></g></svg>