<?xml version="1.0" encoding="utf-8" standalone="yes"?>
<!DOCTYPE svg PUBLIC "-//W3C//DTD SVG 1.1//EN" "http://www.w3.org/Graphics/SVG/1.1/DTD/svg11.dtd">
<svg width="828" height="756" viewBox="0 0 828 756" style="fill:none;stroke:none;fill-rule:evenodd;clip-rule:evenodd;stroke-linecap:round;stroke-linejoin:round;stroke-miterlimit:1.5;" version="1.1" xmlns="http://www.w3.org/2000/svg" xmlns:xlink="http://www.w3.org/1999/xlink"><style class="text-font-style fontImports" data-font-family="Roboto">@import url('https://fonts.googleapis.com/css2?family=Roboto:wght@400;700&amp;display=block');</style><rect id="" x="0" y="0" width="828" height="756" style="fill: #2b2d31;"></rect><g id="items" style="isolation: isolate"><g id="blend" style="mix-blend-mode: normal"><g id="g-root-tf_1hapucjl5enlt-fill" data-item-order="-625968"><g id="tf_1hapucjl5enlt-fill" stroke="none" fill="#2b2d31"><g><path d="M0 0h828 v756 h -828 Z"></path></g></g></g><g id="g-root-ro_zlxq77l568sj-fill" data-item-order="-14904" transform="translate(14, 272)"><g id="ro_zlxq77l568sj-fill" stroke="none" fill="#f79438"><g><path d="M 22 10L 274 10C 274 10 286 10 286 22L 286 52C 286 52 286 64 274 64L 22 64C 22 64 10 64 10 52L 10 22C 10 22 10 10 22 10"></path></g></g></g><g id="g-root-ro_1czvylfl5k93b-fill" data-item-order="-13608" transform="translate(542, 272)"><g id="ro_1czvylfl5k93b-fill" stroke="none" fill="#cb68f9"><g><path d="M 22 10L 250 10C 250 10 262 10 262 22L 262 52C 262 52 262 64 250 64L 22 64C 22 64 10 64 10 52L 10 22C 10 22 10 10 22 10"></path></g></g></g><g id="g-root-ro_7r0tfl521vr-fill" data-item-order="-12960" transform="translate(466, 122)"><g id="ro_7r0tfl521vr-fill" stroke="none" fill="#1ac3fb"><g><path d="M 22 10L 238 10C 238 10 250 10 250 22L 250 52C 250 52 250 64 238 64L 22 64C 22 64 10 64 10 52L 10 22C 10 22 10 10 22 10"></path></g></g></g><g id="g-root-ro_1qbz17nl50mj0-fill" data-item-order="-12960" transform="translate(542, 422)"><g id="ro_1qbz17nl50mj0-fill" stroke="none" fill="#ffe711"><g><path d="M 22 10L 238 10C 238 10 250 10 250 22L 250 52C 250 52 250 64 238 64L 22 64C 22 64 10 64 10 52L 10 22C 10 22 10 10 22 10"></path></g></g></g><g id="g-root-ro_594gzl5d895-fill" data-item-order="-11664" transform="translate(150, 572)"><g id="ro_594gzl5d895-fill" stroke="none" fill="#43dd93"><g><path d="M 22 10L 214 10C 214 10 226 10 226 22L 226 52C 226 52 226 64 214 64L 22 64C 22 64 10 64 10 52L 10 22C 10 22 10 10 22 10"></path></g></g></g><g id="g-root-ro_4hbowzl5bu2r-fill" data-item-order="-11016" transform="translate(466, 572)"><g id="ro_4hbowzl5bu2r-fill" stroke="none" fill="#a6da37"><g><path d="M 22 10L 202 10C 202 10 214 10 214 22L 214 52C 214 52 214 64 202 64L 22 64C 22 64 10 64 10 52L 10 22C 10 22 10 10 22 10"></path></g></g></g><g id="g-root-ro_1d15337l5d9fz-fill" data-item-order="-11016" transform="translate(162, 122)"><g id="ro_1d15337l5d9fz-fill" stroke="none" fill="#cb68f9"><g><path d="M 22 10L 202 10C 202 10 214 10 214 22L 214 52C 214 52 214 64 202 64L 22 64C 22 64 10 64 10 52L 10 22C 10 22 10 10 22 10"></path></g></g></g><g id="g-root-ro_dcysbnl5ah3i-fill" data-item-order="-10368" transform="translate(98, 422)"><g id="ro_dcysbnl5ah3i-fill" stroke="none" fill="#8769fd"><g><path d="M 22 10L 190 10C 190 10 202 10 202 22L 202 52C 202 52 202 64 190 64L 22 64C 22 64 10 64 10 52L 10 22C 10 22 10 10 22 10"></path></g></g></g><g id="g-root-ic_scri_qnsnabl5d8ne-fill" data-item-order="-8327" transform="translate(372.75, 365)"><g id="ic_scri_qnsnabl5d8ne-fill" stroke="none" fill="#f0d80d"><g><path d="M 93.645828 10L 17.604166 10C 13.404501 10 10 13.404501 10 17.604166L 10 93.645828C 10 97.845497 13.404501 101.25 17.604166 101.25L 93.645828 101.25C 97.845497 101.25 101.25 97.845497 101.25 93.645828L 101.25 17.604166C 101.25 13.404501 97.845497 10 93.645828 10ZM 57.526039 78.4375C 57.526039 85.786911 51.568165 91.744789 44.21875 91.744789C 36.869335 91.744789 30.911459 85.786911 30.911459 78.4375L 40.416664 78.4375C 40.416664 80.537331 42.118916 82.239578 44.21875 82.239578C 46.318584 82.239578 48.020832 80.537331 48.020832 78.4375L 48.020832 48.020832L 57.526039 48.020832ZM 78.4375 91.744789C 73.143188 91.748116 68.350533 88.612732 66.232819 83.760422C 65.71682 82.582458 65.831261 81.223511 66.53698 80.148438C 67.243912 79.074936 68.445374 78.43129 69.730728 78.4375L 71.859894 78.4375C 73.210052 78.445648 74.45462 79.169228 75.129684 80.338539C 75.983322 81.844978 77.746964 82.584389 79.419685 82.137131C 81.092415 81.68988 82.251686 80.168938 82.239578 78.4375C 82.239578 77.37291 82.239578 76.15625 76.916664 74.407295C 73.418747 73.228638 65.130211 70.605202 65.130211 61.328125C 65.121101 55.019062 69.543465 49.57074 75.719528 48.282139C 81.895599 46.993542 88.12767 50.218887 90.642189 56.005207C 91.229813 57.235439 91.113762 58.686131 90.338013 59.807293C 89.631088 60.880791 88.429619 61.524433 87.144272 61.51823L 85.015099 61.51823C 83.66494 61.510078 82.42038 60.786499 81.745316 59.617188C 80.89167 58.110752 79.128029 57.371338 77.455307 57.818592C 75.782585 58.265846 74.623314 59.786789 74.635414 61.51823C 74.635414 62.582809 74.635414 63.799477 79.958328 65.548431C 83.456245 66.727081 91.744789 69.350517 91.744789 78.627602C 91.640854 85.902672 85.71331 91.745537 78.4375 91.744797Z"></path></g></g></g><g id="g-root-tx_inputout_qnstlvl53eh0-fill" data-item-order="0" transform="translate(114, 188)"><g id="tx_inputout_qnstlvl53eh0-fill" stroke="none" fill="#f4f4f4"><g><text style="font: 20px Roboto, sans-serif; white-space: pre;" font-size="20px" font-family="Roboto, sans-serif"><tspan x="12.95" y="34" dominant-baseline="ideographic">Input/Output Handling</tspan></text></g></g></g><g id="g-root-cu_hrjc9vl5em86-fill" data-item-order="0" transform="translate(324, 176)"></g><g id="g-root-cu_dbpu5fl5en0h-fill" data-item-order="0" transform="translate(324, 176)"></g><g id="g-root-cu_dbpu5fl5en0j-fill" data-item-order="0" transform="translate(490, 176)"></g><g id="g-root-cu_4g2twjl5enta-fill" data-item-order="0" transform="translate(490, 176)"></g><g id="g-root-tx_variable_dccb8jl53g1y-fill" data-item-order="0" transform="translate(514, 188)"><g id="tx_variable_dccb8jl53g1y-fill" stroke="none" fill="#f4f4f4"><g><text style="font: 20px Roboto, sans-serif; white-space: pre;" font-size="20px" font-family="Roboto, sans-serif"><tspan x="13.76" y="34" dominant-baseline="ideographic">Variable Flexibility</tspan></text></g></g></g><g id="g-root-tx_threadma_hs5tczl53f9p-fill" data-item-order="0" transform="translate(126, 224)"><g id="tx_threadma_hs5tczl53f9p-fill" stroke="none" fill="#f4f4f4"><g><text style="font: 20px Roboto, sans-serif; white-space: pre;" font-size="20px" font-family="Roboto, sans-serif"><tspan x="13.45" y="34" dominant-baseline="ideographic">Thread Management</tspan></text></g></g></g><g id="g-root-tx_memoryma_4hbs2rl53dov-fill" data-item-order="0" transform="translate(514, 224)"><g id="tx_memoryma_4hbs2rl53dov-fill" stroke="none" fill="#f4f4f4"><g><text style="font: 20px Roboto, sans-serif; white-space: pre;" font-size="20px" font-family="Roboto, sans-serif"><tspan x="13.89" y="34" dominant-baseline="ideographic">Memory Management</tspan></text></g></g></g><g id="g-root-cu_4o700zl5d9fp-fill" data-item-order="0" transform="translate(436, 149)"></g><g id="g-root-tx_arraypro_1lpwvdvl53doo-fill" data-item-order="0" transform="translate(174, 638)"><g id="tx_arraypro_1lpwvdvl53doo-fill" stroke="none" fill="#f4f4f4"><g><text style="font: 20px Roboto, sans-serif; white-space: pre;" font-size="20px" font-family="Roboto, sans-serif"><tspan x="13.21" y="34" dominant-baseline="ideographic">Array Prototype</tspan></text></g></g></g><g id="g-root-cu_qwjgtfl5d98s-fill" data-item-order="0" transform="translate(324, 626)"></g><g id="g-root-cu_mgpyozl5da13-fill" data-item-order="0" transform="translate(324, 626)"></g><g id="g-root-cu_1464jxfl5d7uo-fill" data-item-order="0" transform="translate(290, 299)"></g><g id="g-root-cu_hz11b7l5da8b-fill" data-item-order="0" transform="translate(464, 299)"></g><g id="g-root-tx_interpre_1ly11ibl5203s-fill" data-item-order="0" transform="translate(134, 338)"><g id="tx_interpre_1ly11ibl5203s-fill" stroke="none" fill="#f4f4f4"><g><text style="font: 20px Roboto, sans-serif; white-space: pre;" font-size="20px" font-family="Roboto, sans-serif"><tspan x="15.36" y="34" dominant-baseline="ideographic">Interpreted</tspan></text></g></g></g><g id="g-root-cu_4o700zl5d9fs-fill" data-item-order="0" transform="translate(248, 326)"></g><g id="g-root-cu_8dhwjl5da83-fill" data-item-order="0" transform="translate(248, 326)"></g><g id="g-root-cu_1qeh0pvl5d7nx-fill" data-item-order="0" transform="translate(566, 326)"></g><g id="g-root-cu_1uuaiubl5d7nk-fill" data-item-order="0" transform="translate(566, 326)"></g><g id="g-root-tx_function_147di3nl51zb6-fill" data-item-order="0" transform="translate(590, 338)"><g id="tx_function_147di3nl51zb6-fill" stroke="none" fill="#f4f4f4"><g><text style="font: 20px Roboto, sans-serif; white-space: pre;" font-size="20px" font-family="Roboto, sans-serif"><tspan x="16.61" y="34" dominant-baseline="ideographic">Function Definition</tspan></text></g></g></g><g id="g-root-tx_justinti_18mkj4zl521op-fill" data-item-order="0" transform="translate(38, 374)"><g id="tx_justinti_18mkj4zl521op-fill" stroke="none" fill="#f4f4f4"><g><text style="font: 20px Roboto, sans-serif; white-space: pre;" font-size="20px" font-family="Roboto, sans-serif"><tspan x="14.96" y="34" dominant-baseline="ideographic">Just in time Compiled</tspan></text></g></g></g><g id="g-root-cu_940i5fl5d8ne-fill" data-item-order="0" transform="translate(366, 149)"></g><g id="g-root-tx_variable_vbqhurl5203v-fill" data-item-order="0" transform="translate(590, 374)"><g id="tx_variable_vbqhurl5203v-fill" stroke="none" fill="#f4f4f4"><g><text style="font: 20px Roboto, sans-serif; white-space: pre;" font-size="20px" font-family="Roboto, sans-serif"><tspan x="16.79" y="34" dominant-baseline="ideographic">Variable Declaration</tspan></text></g></g></g><g id="g-root-cu_hrjc9vl5em81-fill" data-item-order="0" transform="translate(490, 626)"></g><g id="g-root-cu_dju09vl5d7ux-fill" data-item-order="0" transform="translate(290, 427.625)"></g><g id="g-root-cu_dju09vl5d7uu-fill" data-item-order="0" transform="translate(464, 428)"></g><g id="g-root-cu_hrjc9vl5em84-fill" data-item-order="0" transform="translate(490, 626)"></g><g id="g-root-cu_dju09vl5d7v0-fill" data-item-order="0" transform="translate(366, 455)"></g><g id="g-root-cu_940i5fl5d8nb-fill" data-item-order="0" transform="translate(436, 455)"></g><g id="g-root-tx_nonbrows_4pfy77l5203y-fill" data-item-order="0" transform="translate(122, 488)"><g id="tx_nonbrows_4pfy77l5203y-fill" stroke="none" fill="#f4f4f4"><g><text style="font: 20px Roboto, sans-serif; white-space: pre;" font-size="20px" font-family="Roboto, sans-serif"><tspan x="12.28" y="34" dominant-baseline="ideographic">Non-Browser</tspan></text></g></g></g><g id="g-root-cu_vccyxvl5d8gf-fill" data-item-order="0" transform="translate(248, 476)"></g><g id="g-root-cu_zs6h2bl5d8g2-fill" data-item-order="0" transform="translate(248, 476)"></g><g id="g-root-cu_1lynilfl5d8ga-fill" data-item-order="0" transform="translate(566, 476)"></g><g id="g-root-cu_1hiu0gzl5d98l-fill" data-item-order="0" transform="translate(566, 476)"></g><g id="g-root-tx_webpagea_qvwzqbl520w4-fill" data-item-order="0" transform="translate(590, 488)"><g id="tx_webpagea_qvwzqbl520w4-fill" stroke="none" fill="#f4f4f4"><g><text style="font: 20px Roboto, sans-serif; white-space: pre;" font-size="20px" font-family="Roboto, sans-serif"><tspan x="12.79" y="34" dominant-baseline="ideographic">Web Page Automation</tspan></text></g></g></g><g id="g-root-tx_browser_1qf3hszl521hr-fill" data-item-order="0" transform="translate(158, 524)"><g id="tx_browser_1qf3hszl521hr-fill" stroke="none" fill="#f4f4f4"><g><text style="font: 20px Roboto, sans-serif; white-space: pre;" font-size="20px" font-family="Roboto, sans-serif"><tspan x="15.41" y="34" dominant-baseline="ideographic">Browser</tspan></text></g></g></g><g id="g-root-tx_interact_4pfy77l5203x-fill" data-item-order="0" transform="translate(590, 524)"><g id="tx_interact_4pfy77l5203x-fill" stroke="none" fill="#f4f4f4"><g><text style="font: 20px Roboto, sans-serif; white-space: pre;" font-size="20px" font-family="Roboto, sans-serif"><tspan x="15.6" y="34" dominant-baseline="ideographic">Interactive Elements</tspan></text></g></g></g><g id="g-root-tx_objector_13ymuw3l53g1u-fill" data-item-order="0" transform="translate(514, 638)"><g id="tx_objector_13ymuw3l53g1u-fill" stroke="none" fill="#f4f4f4"><g><text style="font: 20px Roboto, sans-serif; white-space: pre;" font-size="20px" font-family="Roboto, sans-serif"><tspan x="12.8" y="34" dominant-baseline="ideographic">Object-Oriented</tspan></text></g></g></g><g id="g-root-tx_objectin_18egd0jl53f9l-fill" data-item-order="0" transform="translate(150, 674)"><g id="tx_objectin_18egd0jl53f9l-fill" stroke="none" fill="#f4f4f4"><g><text style="font: 20px Roboto, sans-serif; white-space: pre;" font-size="20px" font-family="Roboto, sans-serif"><tspan x="13.18" y="34" dominant-baseline="ideographic">Object Inheritance</tspan></text></g></g></g><g id="g-root-tx_function_v3mbqbl53dor-fill" data-item-order="0" transform="translate(514, 674)"><g id="tx_function_v3mbqbl53dor-fill" stroke="none" fill="#f4f4f4"><g><text style="font: 20px Roboto, sans-serif; white-space: pre;" font-size="20px" font-family="Roboto, sans-serif"><tspan x="14.37" y="34" dominant-baseline="ideographic">Functional Programming</tspan></text></g></g></g><g id="g-root-tx_javascri_9bs3l5eolk-fill" data-item-order="0" transform="translate(182, 38)"><g id="tx_javascri_9bs3l5eolk-fill" stroke="none" fill="#f4f4f4"><g><text style="font: 25px Roboto, sans-serif; white-space: pre;" font-size="25px" font-family="Roboto, sans-serif"><tspan x="15.66" y="42.6" dominant-baseline="ideographic">JavaScript: Key Features and Concepts</tspan></text></g></g></g><g id="g-root-tx_dynamicl_hz11b7l51zil-fill" data-item-order="2000000000" transform="translate(514, 137)"><g id="tx_dynamicl_hz11b7l51zil-fill" stroke="none" fill="#2c2c2c"><g><text style="font: 20px Roboto, sans-serif; white-space: pre;" font-size="20px" font-family="Roboto, sans-serif"><tspan x="14.99" y="34" dominant-baseline="ideographic">Dynamic Language</tspan></text></g></g></g><g id="g-root-tx_lightwei_1q889url568sh-fill" data-item-order="2000000000" transform="translate(26, 287)"><g id="tx_lightwei_1q889url568sh-fill" stroke="none" fill="#2c2c2c"><g><text style="font: 20px Roboto, sans-serif; white-space: pre;" font-size="20px" font-family="Roboto, sans-serif"><tspan x="15.03" y="34" dominant-baseline="ideographic">Lightweight Interpreted</tspan></text></g></g></g><g id="g-root-ic_righ_141r8bnl5680a-fill" data-item-order="2000000000" transform="translate(248, 284)"></g><g id="g-root-ic_glob_1qapzvnl5kao6-fill" data-item-order="2000000000" transform="translate(554, 284)"></g><g id="g-root-tx_firstcla_4l2g9vl5k9ad-fill" data-item-order="2000000000" transform="translate(590, 287)"><g id="tx_firstcla_4l2g9vl5k9ad-fill" stroke="none" fill="#2c2c2c"><g><text style="font: 20px Roboto, sans-serif; white-space: pre;" font-size="20px" font-family="Roboto, sans-serif"><tspan x="12.78" y="34" dominant-baseline="ideographic">First Class Functions</tspan></text></g></g></g><g id="g-root-tx_environm_1q6culfl5aepw-fill" data-item-order="2000000000" transform="translate(110, 437)"><g id="tx_environm_1q6culfl5aepw-fill" stroke="none" fill="#2c2c2c"><g><text style="font: 20px Roboto, sans-serif; white-space: pre;" font-size="20px" font-family="Roboto, sans-serif"><tspan x="14.97" y="34" dominant-baseline="ideographic">Environments</tspan></text></g></g></g><g id="g-root-ic_word_m8lskjl5agat-fill" data-item-order="2000000000" transform="translate(248, 434)"></g><g id="g-root-ic_scri_4nkixvl5213i-fill" data-item-order="2000000000" transform="translate(478, 134)"></g><g id="g-root-ic_inte_4mbhlvl50l57-fill" data-item-order="2000000000" transform="translate(554, 434)"></g><g id="g-root-tx_scriptin_hx5iw3l50mq2-fill" data-item-order="2000000000" transform="translate(590, 437)"><g id="tx_scriptin_hx5iw3l50mq2-fill" stroke="none" fill="#2c2c2c"><g><text style="font: 20px Roboto, sans-serif; white-space: pre;" font-size="20px" font-family="Roboto, sans-serif"><tspan x="14.24" y="34" dominant-baseline="ideographic">Scripting Language</tspan></text></g></g></g><g id="g-root-ic_chec_6i2n7l5dafa-fill" data-item-order="2000000000" transform="translate(324, 134)"></g><g id="g-root-tx_singleth_4mbkrnl5d9n1-fill" data-item-order="2000000000" transform="translate(174, 137)"><g id="tx_singleth_4mbkrnl5d9n1-fill" stroke="none" fill="#2c2c2c"><g><text style="font: 20px Roboto, sans-serif; white-space: pre;" font-size="20px" font-family="Roboto, sans-serif"><tspan x="15.81" y="34" dominant-baseline="ideographic">Single Threded</tspan></text></g></g></g><g id="g-root-tx_prototyp_dg35r7l5d9tz-fill" data-item-order="2000000000" transform="translate(162, 587)"><g id="tx_prototyp_dg35r7l5d9tz-fill" stroke="none" fill="#2c2c2c"><g><text style="font: 20px Roboto, sans-serif; white-space: pre;" font-size="20px" font-family="Roboto, sans-serif"><tspan x="14.36" y="34" dominant-baseline="ideographic">Prototype-Based</tspan></text></g></g></g><g id="g-root-ic_cube_90w4pvl5d7gg-fill" data-item-order="2000000000" transform="translate(324, 584)"></g><g id="g-root-ic_code_hs5q77l5bvnm-fill" data-item-order="2000000000" transform="translate(478, 584)"></g><g id="g-root-tx_multipar_zjfqozl5btah-fill" data-item-order="2000000000" transform="translate(514, 587)"><g id="tx_multipar_zjfqozl5btah-fill" stroke="none" fill="#2c2c2c"><g><text style="font: 20px Roboto, sans-serif; white-space: pre;" font-size="20px" font-family="Roboto, sans-serif"><tspan x="14.71" y="34" dominant-baseline="ideographic">Multi-paradigm</tspan></text></g></g></g><g id="g-root-tf_1hapucjl5enlt-stroke" data-item-order="-625968"></g><g id="g-root-ro_zlxq77l568sj-stroke" data-item-order="-14904" transform="translate(14, 272)"><g id="ro_zlxq77l568sj-stroke" fill="none" stroke-linecap="round" stroke-linejoin="round" stroke-miterlimit="4" stroke="#2c2c2c" stroke-width="2"><g><path d="M 22 10L 274 10C 274 10 286 10 286 22L 286 52C 286 52 286 64 274 64L 22 64C 22 64 10 64 10 52L 10 22C 10 22 10 10 22 10"></path></g></g></g><g id="g-root-ro_1czvylfl5k93b-stroke" data-item-order="-13608" transform="translate(542, 272)"><g id="ro_1czvylfl5k93b-stroke" fill="none" stroke-linecap="round" stroke-linejoin="round" stroke-miterlimit="4" stroke="#2c2c2c" stroke-width="2"><g><path d="M 22 10L 250 10C 250 10 262 10 262 22L 262 52C 262 52 262 64 250 64L 22 64C 22 64 10 64 10 52L 10 22C 10 22 10 10 22 10"></path></g></g></g><g id="g-root-ro_7r0tfl521vr-stroke" data-item-order="-12960" transform="translate(466, 122)"><g id="ro_7r0tfl521vr-stroke" fill="none" stroke-linecap="round" stroke-linejoin="round" stroke-miterlimit="4" stroke="#2c2c2c" stroke-width="2"><g><path d="M 22 10L 238 10C 238 10 250 10 250 22L 250 52C 250 52 250 64 238 64L 22 64C 22 64 10 64 10 52L 10 22C 10 22 10 10 22 10"></path></g></g></g><g id="g-root-ro_1qbz17nl50mj0-stroke" data-item-order="-12960" transform="translate(542, 422)"><g id="ro_1qbz17nl50mj0-stroke" fill="none" stroke-linecap="round" stroke-linejoin="round" stroke-miterlimit="4" stroke="#2c2c2c" stroke-width="2"><g><path d="M 22 10L 238 10C 238 10 250 10 250 22L 250 52C 250 52 250 64 238 64L 22 64C 22 64 10 64 10 52L 10 22C 10 22 10 10 22 10"></path></g></g></g><g id="g-root-ro_594gzl5d895-stroke" data-item-order="-11664" transform="translate(150, 572)"><g id="ro_594gzl5d895-stroke" fill="none" stroke-linecap="round" stroke-linejoin="round" stroke-miterlimit="4" stroke="#2c2c2c" stroke-width="2"><g><path d="M 22 10L 214 10C 214 10 226 10 226 22L 226 52C 226 52 226 64 214 64L 22 64C 22 64 10 64 10 52L 10 22C 10 22 10 10 22 10"></path></g></g></g><g id="g-root-ro_4hbowzl5bu2r-stroke" data-item-order="-11016" transform="translate(466, 572)"><g id="ro_4hbowzl5bu2r-stroke" fill="none" stroke-linecap="round" stroke-linejoin="round" stroke-miterlimit="4" stroke="#2c2c2c" stroke-width="2"><g><path d="M 22 10L 202 10C 202 10 214 10 214 22L 214 52C 214 52 214 64 202 64L 22 64C 22 64 10 64 10 52L 10 22C 10 22 10 10 22 10"></path></g></g></g><g id="g-root-ro_1d15337l5d9fz-stroke" data-item-order="-11016" transform="translate(162, 122)"><g id="ro_1d15337l5d9fz-stroke" fill="none" stroke-linecap="round" stroke-linejoin="round" stroke-miterlimit="4" stroke="#2c2c2c" stroke-width="2"><g><path d="M 22 10L 202 10C 202 10 214 10 214 22L 214 52C 214 52 214 64 202 64L 22 64C 22 64 10 64 10 52L 10 22C 10 22 10 10 22 10"></path></g></g></g><g id="g-root-ro_dcysbnl5ah3i-stroke" data-item-order="-10368" transform="translate(98, 422)"><g id="ro_dcysbnl5ah3i-stroke" fill="none" stroke-linecap="round" stroke-linejoin="round" stroke-miterlimit="4" stroke="#2c2c2c" stroke-width="2"><g><path d="M 22 10L 190 10C 190 10 202 10 202 22L 202 52C 202 52 202 64 190 64L 22 64C 22 64 10 64 10 52L 10 22C 10 22 10 10 22 10"></path></g></g></g><g id="g-root-ic_scri_qnsnabl5d8ne-stroke" data-item-order="-8327" transform="translate(372.75, 365)"></g><g id="g-root-tx_inputout_qnstlvl53eh0-stroke" data-item-order="0" transform="translate(114, 188)"></g><g id="g-root-cu_hrjc9vl5em86-stroke" data-item-order="0" transform="translate(324, 176)"><g id="cu_hrjc9vl5em86-stroke" fill="none" stroke-linecap="round" stroke-linejoin="round" stroke-miterlimit="4" stroke="#df99ff" stroke-width="2" stroke-dasharray="5.0, 7.0"><g><path d="M 28 10L 28 22L 28 34L 19 34L 10 34"></path></g></g></g><g id="g-root-cu_dbpu5fl5en0h-stroke" data-item-order="0" transform="translate(324, 176)"><g id="cu_dbpu5fl5en0h-stroke" fill="none" stroke-linecap="round" stroke-linejoin="round" stroke-miterlimit="4" stroke="#df99ff" stroke-width="2" stroke-dasharray="5.0, 7.0"><g><path d="M 28 10L 28 17.5L 28 58C 27.999999 64.627415 22.627416 69.999998 16 69.999998L 15.9 70L 10 70"></path></g></g></g><g id="g-root-cu_dbpu5fl5en0j-stroke" data-item-order="0" transform="translate(490, 176)"><g id="cu_dbpu5fl5en0j-stroke" fill="none" stroke-linecap="round" stroke-linejoin="round" stroke-miterlimit="4" stroke="#8ab6ff" stroke-width="2" stroke-dasharray="5.0, 7.0"><g><path d="M 10 10L 10 22L 10 34L 19 34L 28 34"></path></g></g></g><g id="g-root-cu_4g2twjl5enta-stroke" data-item-order="0" transform="translate(490, 176)"><g id="cu_4g2twjl5enta-stroke" fill="none" stroke-linecap="round" stroke-linejoin="round" stroke-miterlimit="4" stroke="#67d9ff" stroke-width="2" stroke-dasharray="5.0, 7.0"><g><path d="M 10 10L 10 17.5L 10 58C 10.000002 64.627417 15.372585 70 22.000002 69.999999L 22.1 70L 28 70"></path></g></g></g><g id="g-root-tx_variable_dccb8jl53g1y-stroke" data-item-order="0" transform="translate(514, 188)"></g><g id="g-root-tx_threadma_hs5tczl53f9p-stroke" data-item-order="0" transform="translate(126, 224)"></g><g id="g-root-tx_memoryma_4hbs2rl53dov-stroke" data-item-order="0" transform="translate(514, 224)"></g><g id="g-root-cu_4o700zl5d9fp-stroke" data-item-order="0" transform="translate(436, 149)"><g id="cu_4o700zl5d9fp-stroke" fill="none" stroke-linecap="round" stroke-linejoin="round" stroke-miterlimit="4" stroke="#fff06b" stroke-width="2" stroke-dasharray="5.0, 7.0"><g><path d="M 10 226L 10 199L 10 34C 10 20.745166 20.745166 10 33.999999 10L 34.1 10L 40 10"></path></g></g></g><g id="g-root-tx_arraypro_1lpwvdvl53doo-stroke" data-item-order="0" transform="translate(174, 638)"></g><g id="g-root-cu_qwjgtfl5d98s-stroke" data-item-order="0" transform="translate(324, 626)"><g id="cu_qwjgtfl5d98s-stroke" fill="none" stroke-linecap="round" stroke-linejoin="round" stroke-miterlimit="4" stroke="#73f5b7" stroke-width="2" stroke-dasharray="5.0, 7.0"><g><path d="M 28 10L 28 22L 28 34L 19 34L 10 34"></path></g></g></g><g id="g-root-cu_mgpyozl5da13-stroke" data-item-order="0" transform="translate(324, 626)"><g id="cu_mgpyozl5da13-stroke" fill="none" stroke-linecap="round" stroke-linejoin="round" stroke-miterlimit="4" stroke="#73f5b7" stroke-width="2" stroke-dasharray="5.0, 7.0"><g><path d="M 28 10L 28 17.5L 28 58C 27.999999 64.627415 22.627416 69.999998 16 69.999998L 15.9 70L 10 70"></path></g></g></g><g id="g-root-cu_1464jxfl5d7uo-stroke" data-item-order="0" transform="translate(290, 299)"><g id="cu_1464jxfl5d7uo-stroke" fill="none" stroke-linecap="round" stroke-linejoin="round" stroke-miterlimit="4" stroke="#fff06b" stroke-width="2" stroke-dasharray="5.0, 7.0"><g><path d="M 88 104L 83.1 104L 73 104C 59.74517 104.000001 49.000004 93.254835 49.000003 80L 49 79.9L 49 34C 49 20.745165 38.254834 9.999999 25 10L 24.9 10L 10 10"></path></g></g></g><g id="g-root-cu_hz11b7l5da8b-stroke" data-item-order="0" transform="translate(464, 299)"><g id="cu_hz11b7l5da8b-stroke" fill="none" stroke-linecap="round" stroke-linejoin="round" stroke-miterlimit="4" stroke="#fff06b" stroke-width="2" stroke-dasharray="5.0, 7.0"><g><path d="M 10 102.6L 14.9 102.6L 25 102.6C 38.254833 102.600001 48.999999 91.854835 48.999999 78.600001L 49 78.5L 49 34C 48.999999 20.745165 59.745165 9.999999 72.999999 9.999999L 73.1 10L 88 10"></path></g></g></g><g id="g-root-tx_interpre_1ly11ibl5203s-stroke" data-item-order="0" transform="translate(134, 338)"></g><g id="g-root-cu_4o700zl5d9fs-stroke" data-item-order="0" transform="translate(248, 326)"><g id="cu_4o700zl5d9fs-stroke" fill="none" stroke-linecap="round" stroke-linejoin="round" stroke-miterlimit="4" stroke="#ffb774" stroke-width="2" stroke-dasharray="5.0, 7.0"><g><path d="M 28 10L 28 22L 28 34L 19 34L 10 34"></path></g></g></g><g id="g-root-cu_8dhwjl5da83-stroke" data-item-order="0" transform="translate(248, 326)"><g id="cu_8dhwjl5da83-stroke" fill="none" stroke-linecap="round" stroke-linejoin="round" stroke-miterlimit="4" stroke="#ffb774" stroke-width="2" stroke-dasharray="5.0, 7.0"><g><path d="M 28 10L 28 17.5L 28 58C 27.999999 64.627415 22.627416 69.999998 16 69.999998L 15.9 70L 10 70"></path></g></g></g><g id="g-root-cu_1qeh0pvl5d7nx-stroke" data-item-order="0" transform="translate(566, 326)"><g id="cu_1qeh0pvl5d7nx-stroke" fill="none" stroke-linecap="round" stroke-linejoin="round" stroke-miterlimit="4" stroke="#df99ff" stroke-width="2" stroke-dasharray="5.0, 7.0"><g><path d="M 10 10L 10 22L 10 34L 19 34L 28 34"></path></g></g></g><g id="g-root-cu_1uuaiubl5d7nk-stroke" data-item-order="0" transform="translate(566, 326)"><g id="cu_1uuaiubl5d7nk-stroke" fill="none" stroke-linecap="round" stroke-linejoin="round" stroke-miterlimit="4" stroke="#df99ff" stroke-width="2" stroke-dasharray="5.0, 7.0"><g><path d="M 10 10L 10 17.5L 10 58C 10.000002 64.627417 15.372585 70 22.000002 69.999999L 22.1 70L 28 70"></path></g></g></g><g id="g-root-tx_function_147di3nl51zb6-stroke" data-item-order="0" transform="translate(590, 338)"></g><g id="g-root-tx_justinti_18mkj4zl521op-stroke" data-item-order="0" transform="translate(38, 374)"></g><g id="g-root-cu_940i5fl5d8ne-stroke" data-item-order="0" transform="translate(366, 149)"><g id="cu_940i5fl5d8ne-stroke" fill="none" stroke-linecap="round" stroke-linejoin="round" stroke-miterlimit="4" stroke="#fff06b" stroke-width="2" stroke-dasharray="5.0, 7.0"><g><path d="M 40 226L 40 199L 40 34C 40 20.745165 29.254834 9.999999 16 10L 15.9 10L 10 10"></path></g></g></g><g id="g-root-tx_variable_vbqhurl5203v-stroke" data-item-order="0" transform="translate(590, 374)"></g><g id="g-root-cu_hrjc9vl5em81-stroke" data-item-order="0" transform="translate(490, 626)"><g id="cu_hrjc9vl5em81-stroke" fill="none" stroke-linecap="round" stroke-linejoin="round" stroke-miterlimit="4" stroke="#c6f466" stroke-width="2" stroke-dasharray="5.0, 7.0"><g><path d="M 10 10L 10 22L 10 34L 19 34L 28 34"></path></g></g></g><g id="g-root-cu_dju09vl5d7ux-stroke" data-item-order="0" transform="translate(290, 427.625)"><g id="cu_dju09vl5d7ux-stroke" fill="none" stroke-linecap="round" stroke-linejoin="round" stroke-miterlimit="4" stroke="#fff06b" stroke-width="2" stroke-dasharray="5.0, 7.0"><g><path d="M 88 10L 83.1 10L 73 10C 68.925776 10.009385 64.460999 10.963688 59.9 12.800004C 57.179222 13.870852 53.298347 16.683596 49 20.7C 44.701653 24.716405 40.820778 27.529149 38.1 28.6C 33.538999 30.436317 29.074223 31.39062 24.999999 31.4L 24.9 31.4L 10 31.4"></path></g></g></g><g id="g-root-cu_dju09vl5d7uu-stroke" data-item-order="0" transform="translate(464, 428)"><g id="cu_dju09vl5d7uu-stroke" fill="none" stroke-linecap="round" stroke-linejoin="round" stroke-miterlimit="4" stroke="#fff06b" stroke-width="2" stroke-dasharray="5.0, 7.0"><g><path d="M 10 10L 14.9 10L 25 10C 29.065303 9.986349 33.528361 10.906216 38.1 12.7C 40.819827 13.785495 44.695115 16.558637 48.999998 20.499999C 53.304881 24.441362 57.180169 27.214504 59.899997 28.299999C 64.47164 30.093785 68.934697 31.013652 73 31.000001L 73.1 31L 88 31"></path></g></g></g><g id="g-root-cu_hrjc9vl5em84-stroke" data-item-order="0" transform="translate(490, 626)"><g id="cu_hrjc9vl5em84-stroke" fill="none" stroke-linecap="round" stroke-linejoin="round" stroke-miterlimit="4" stroke="#c6f466" stroke-width="2" stroke-dasharray="5.0, 7.0"><g><path d="M 10 10L 10 17.5L 10 58C 10.000002 64.627417 15.372585 70 22.000002 69.999999L 22.1 70L 28 70"></path></g></g></g><g id="g-root-cu_dju09vl5d7v0-stroke" data-item-order="0" transform="translate(366, 455)"><g id="cu_dju09vl5d7v0-stroke" fill="none" stroke-linecap="round" stroke-linejoin="round" stroke-miterlimit="4" stroke="#fff06b" stroke-width="2" stroke-dasharray="5.0, 7.0"><g><path d="M 40 10L 40 28L 40 130C 39.999999 143.254829 29.254833 153.999994 16 153.999994L 15.9 154L 10 154"></path></g></g></g><g id="g-root-cu_940i5fl5d8nb-stroke" data-item-order="0" transform="translate(436, 455)"><g id="cu_940i5fl5d8nb-stroke" fill="none" stroke-linecap="round" stroke-linejoin="round" stroke-miterlimit="4" stroke="#fff06b" stroke-width="2" stroke-dasharray="5.0, 7.0"><g><path d="M 10 10L 10 28L 10 130C 10.000002 143.254831 20.745168 153.999997 34.000002 153.999996L 34.1 154L 40 154"></path></g></g></g><g id="g-root-tx_nonbrows_4pfy77l5203y-stroke" data-item-order="0" transform="translate(122, 488)"></g><g id="g-root-cu_vccyxvl5d8gf-stroke" data-item-order="0" transform="translate(248, 476)"><g id="cu_vccyxvl5d8gf-stroke" fill="none" stroke-linecap="round" stroke-linejoin="round" stroke-miterlimit="4" stroke="#b09cff" stroke-width="2" stroke-dasharray="5.0, 7.0"><g><path d="M 28 10L 28 22L 28 34L 19 34L 10 34"></path></g></g></g><g id="g-root-cu_zs6h2bl5d8g2-stroke" data-item-order="0" transform="translate(248, 476)"><g id="cu_zs6h2bl5d8g2-stroke" fill="none" stroke-linecap="round" stroke-linejoin="round" stroke-miterlimit="4" stroke="#b09cff" stroke-width="2" stroke-dasharray="5.0, 7.0"><g><path d="M 28 10L 28 17.5L 28 58C 27.999999 64.627415 22.627416 69.999998 16 69.999998L 15.9 70L 10 70"></path></g></g></g><g id="g-root-cu_1lynilfl5d8ga-stroke" data-item-order="0" transform="translate(566, 476)"><g id="cu_1lynilfl5d8ga-stroke" fill="none" stroke-linecap="round" stroke-linejoin="round" stroke-miterlimit="4" stroke="#ffe711" stroke-width="2" stroke-dasharray="5.0, 7.0"><g><path d="M 10 10L 10 22L 10 34L 19 34L 28 34"></path></g></g></g><g id="g-root-cu_1hiu0gzl5d98l-stroke" data-item-order="0" transform="translate(566, 476)"><g id="cu_1hiu0gzl5d98l-stroke" fill="none" stroke-linecap="round" stroke-linejoin="round" stroke-miterlimit="4" stroke="#ffe711" stroke-width="2" stroke-dasharray="5.0, 7.0"><g><path d="M 10 10L 10 17.5L 10 58C 10.000002 64.627417 15.372585 70 22.000002 69.999999L 22.1 70L 28 70"></path></g></g></g><g id="g-root-tx_webpagea_qvwzqbl520w4-stroke" data-item-order="0" transform="translate(590, 488)"></g><g id="g-root-tx_browser_1qf3hszl521hr-stroke" data-item-order="0" transform="translate(158, 524)"></g><g id="g-root-tx_interact_4pfy77l5203x-stroke" data-item-order="0" transform="translate(590, 524)"></g><g id="g-root-tx_objector_13ymuw3l53g1u-stroke" data-item-order="0" transform="translate(514, 638)"></g><g id="g-root-tx_objectin_18egd0jl53f9l-stroke" data-item-order="0" transform="translate(150, 674)"></g><g id="g-root-tx_function_v3mbqbl53dor-stroke" data-item-order="0" transform="translate(514, 674)"></g><g id="g-root-tx_javascri_9bs3l5eolk-stroke" data-item-order="0" transform="translate(182, 38)"></g><g id="g-root-tx_dynamicl_hz11b7l51zil-stroke" data-item-order="2000000000" transform="translate(514, 137)"></g><g id="g-root-tx_lightwei_1q889url568sh-stroke" data-item-order="2000000000" transform="translate(26, 287)"></g><g id="g-root-ic_righ_141r8bnl5680a-stroke" data-item-order="2000000000" transform="translate(248, 284)"><g id="ic_righ_141r8bnl5680a-stroke" fill="none" stroke-linecap="round" stroke-linejoin="round" stroke-miterlimit="4" stroke="#2c2c2c" stroke-width="2"><g><path d="M 11.071428 13.214286L 23.928572 13.214286M 15.357142 21.785713L 23.928572 21.785713M 11.071428 30.357141L 23.928572 30.357141M 15.357142 38.92857L 23.928572 38.92857M 38.92857 20.714285L 34.642857 25L 38.92857 29.285713M 29.285713 38.92857L 29.285713 11.071428"></path></g></g></g><g id="g-root-ic_glob_1qapzvnl5kao6-stroke" data-item-order="2000000000" transform="translate(554, 284)"><g id="ic_glob_1qapzvnl5kao6-stroke" fill="none" stroke-linecap="round" stroke-linejoin="round" stroke-miterlimit="4" stroke="#2c2c2c" stroke-width="2"><g><path d="M 25 39.0625C 17.233496 39.0625 10.9375 32.766502 10.9375 25C 10.9375 17.233496 17.233496 10.9375 25 10.9375M 11.7475 20.3125L 24.0625 20.3125M 11.7525 29.6875L 24.0625 29.6875M 25 39.0625C 21.375 39.0625 18.4375 32.766251 18.4375 25C 18.4375 17.233749 21.375 10.9375 25 10.9375M 29.375 13.4375L 29.375 36.5625M 29.375 13.4375L 39.0625 13.4375M 29.375 22.1875L 39.0625 22.1875M 27.0525 27.1875L 34.6875 27.1875"></path></g></g></g><g id="g-root-tx_firstcla_4l2g9vl5k9ad-stroke" data-item-order="2000000000" transform="translate(590, 287)"></g><g id="g-root-tx_environm_1q6culfl5aepw-stroke" data-item-order="2000000000" transform="translate(110, 437)"></g><g id="g-root-ic_word_m8lskjl5agat-stroke" data-item-order="2000000000" transform="translate(248, 434)"><g id="ic_word_m8lskjl5agat-stroke" fill="none" stroke-linecap="round" stroke-linejoin="round" stroke-miterlimit="4" stroke="#2c2c2c" stroke-width="2"><g><path d="M 18.125 32.5L 18.125 36.25C 18.125 36.940353 18.684645 37.5 19.375 37.5L 38.125 37.5C 38.815353 37.5 39.375 36.940353 39.375 36.25L 39.375 13.75C 39.375 13.059644 38.815353 12.5 38.125 12.5L 19.375 12.5C 18.684645 12.5 18.125 13.059644 18.125 13.75L 18.125 17.5M 25.625 25L 39.375 25M 25.625 18.75L 39.375 18.75M 25.625 31.25L 39.375 31.25M 11.875 17.5L 24.375 17.5C 24.375 17.5 25.625 17.5 25.625 18.75L 25.625 31.25C 25.625 31.25 25.625 32.5 24.375 32.5L 11.875 32.5C 11.875 32.5 10.625 32.5 10.625 31.25L 10.625 18.75C 10.625 18.75 10.625 17.5 11.875 17.5M 13.75 21.25L 15.625 28.75L 18.125 21.25L 20.625 28.75L 22.5 21.25"></path></g></g></g><g id="g-root-ic_scri_4nkixvl5213i-stroke" data-item-order="2000000000" transform="translate(478, 134)"><g id="ic_scri_4nkixvl5213i-stroke" fill="none" stroke-linecap="round" stroke-linejoin="round" stroke-miterlimit="4" stroke="#2c2c2c" stroke-width="2"><g><path d="M 23.125 21.875C 23.125 22.565357 22.565357 23.125 21.875 23.125L 11.875 23.125C 11.184644 23.125 10.625 22.565357 10.625 21.875L 10.625 11.875C 10.625 11.184644 11.184644 10.625 11.875 10.625L 21.875 10.625C 22.565357 10.625 23.125 11.184644 23.125 11.875ZM 23.125 38.125C 23.125 38.815353 22.565357 39.375 21.875 39.375L 11.875 39.375C 11.184644 39.375 10.625 38.815353 10.625 38.125L 10.625 28.125C 10.625 27.434643 11.184644 26.875 11.875 26.875L 21.875 26.875C 22.565357 26.875 23.125 27.434643 23.125 28.125ZM 26.87125 13.12125L 39.37125 13.12125M 26.87125 16.87125L 39.37125 16.87125M 26.87125 20.62125L 39.37125 20.62125M 26.87125 29.37125L 39.37125 29.37125M 26.87125 33.12125L 39.37125 33.12125M 26.87125 36.87125L 39.37125 36.87125"></path></g></g></g><g id="g-root-ic_inte_4mbhlvl50l57-stroke" data-item-order="2000000000" transform="translate(554, 434)"><g id="ic_inte_4mbhlvl50l57-stroke" fill="none" stroke-linecap="round" stroke-linejoin="round" stroke-miterlimit="4" stroke="#2c2c2c" stroke-width="2"><g><path d="M 13.125 11.25L 36.875 11.25C 36.875 11.25 39.375 11.25 39.375 13.75L 39.375 36.25C 39.375 36.25 39.375 38.75 36.875 38.75L 13.125 38.75C 13.125 38.75 10.625 38.75 10.625 36.25L 10.625 13.75C 10.625 13.75 10.625 11.25 13.125 11.25M 10.625 17.5L 39.375 17.5M 15 14.0625C 15.172588 14.0625 15.3125 14.202411 15.3125 14.375C 15.3125 14.547589 15.172588 14.6875 15 14.6875C 14.827411 14.6875 14.6875 14.547589 14.6875 14.375C 14.6875 14.202411 14.827411 14.0625 15 14.0625M 18.75 14.0625C 18.922588 14.0625 19.0625 14.202411 19.0625 14.375C 19.0625 14.547589 18.922588 14.6875 18.75 14.6875C 18.577412 14.6875 18.4375 14.547589 18.4375 14.375C 18.4375 14.202411 18.577412 14.0625 18.75 14.0625M 22.5 14.0625C 22.672588 14.0625 22.8125 14.202411 22.8125 14.375C 22.8125 14.547589 22.672588 14.6875 22.5 14.6875C 22.327412 14.6875 22.1875 14.547589 22.1875 14.375C 22.1875 14.202411 22.327412 14.0625 22.5 14.0625M 17.168751 33.4375C 17.168751 33.782677 17.448572 34.0625 17.793751 34.0625C 18.138927 34.0625 18.418751 33.782677 18.418751 33.4375C 18.418751 33.092323 18.138927 32.8125 17.793751 32.8125C 17.448572 32.8125 17.168751 33.092323 17.168751 33.4375M 24.375 33.4375C 24.375 33.782677 24.654823 34.0625 25 34.0625C 25.345177 34.0625 25.625 33.782677 25.625 33.4375C 25.625 33.092323 25.345177 32.8125 25 32.8125C 24.654823 32.8125 24.375 33.092323 24.375 33.4375M 31.581249 33.4375C 31.581249 33.782677 31.861073 34.0625 32.206249 34.0625C 32.551426 34.0625 32.831249 33.782677 32.831249 33.4375C 32.831249 33.092323 32.551426 32.8125 32.206249 32.8125C 31.861073 32.8125 31.581249 33.092323 31.581249 33.4375M 17.793751 23.125L 15.29375 25.625L 17.793751 28.125M 32.206249 23.125L 34.706249 25.625L 32.206249 28.125"></path></g></g></g><g id="g-root-tx_scriptin_hx5iw3l50mq2-stroke" data-item-order="2000000000" transform="translate(590, 437)"></g><g id="g-root-ic_chec_6i2n7l5dafa-stroke" data-item-order="2000000000" transform="translate(324, 134)"><g id="ic_chec_6i2n7l5dafa-stroke" fill="none" stroke-linecap="round" stroke-linejoin="round" stroke-miterlimit="4" stroke="#2c2c2c" stroke-width="2"><g><path d="M 32.4375 19.000088L 17.437511 19.000088L 17.437511 39.000126L 32.4375 39.000126L 32.4375 19.000088ZM 34.9375 25.999874L 38.9375 25.999874M 34.9375 30.999874L 38.9375 30.999874M 34.9375 35.999874L 37.6875 35.999874C 38.4375 35.999874 38.9375 35.499874 38.9375 34.749874L 38.9375 22.249912C 38.9375 21.499912 38.4375 20.999912 37.6875 20.999912L 34.9375 20.999912M 18.062511 25.624874L 32.4375 25.624874M 18.062511 32.499878L 32.4375 32.499878M 14.937488 25.999874L 10.9375 25.999874M 14.937488 30.999874L 10.9375 30.999874M 14.9375 35.999874L 12.1875 35.999874C 11.4375 35.999874 10.9375 35.499874 10.9375 34.749874L 10.9375 22.249912C 10.9375 21.499912 11.4375 20.999912 12.1875 20.999912L 14.9375 20.999912M 10 10M 23.0625 12.249912L 24.9375 13.9999L 28.0625 10.999908"></path></g></g></g><g id="g-root-tx_singleth_4mbkrnl5d9n1-stroke" data-item-order="2000000000" transform="translate(174, 137)"></g><g id="g-root-tx_prototyp_dg35r7l5d9tz-stroke" data-item-order="2000000000" transform="translate(162, 587)"></g><g id="g-root-ic_cube_90w4pvl5d7gg-stroke" data-item-order="2000000000" transform="translate(324, 584)"><g id="ic_cube_90w4pvl5d7gg-stroke" fill="none" stroke-linecap="round" stroke-linejoin="round" stroke-miterlimit="4" stroke="#2c2c2c" stroke-width="2"><g><path d="M 20 25C 20.690357 25 21.25 24.440357 21.25 23.75L 21.25 14.58C 21.249929 14.248507 21.118187 13.930615 20.883749 13.69625L 18.178751 10.99125C 17.944384 10.756813 17.626493 10.625071 17.295 10.625L 11.875 10.625C 11.184644 10.625 10.625 11.184644 10.625 11.875L 10.625 23.75C 10.625 24.440357 11.184644 25 11.875 25ZM 26.25 30.625L 35 30.625L 35 39.375L 26.25 39.375ZM 35 39.375L 39.375 35L 39.375 26.25L 30.625 26.25L 26.25 30.625M 35 30.625L 39.375 26.25M 36.25 18.75C 34.288147 15.707995 30.914761 13.871561 27.295 13.875L 25.358749 13.875M 28.26375 10.965L 25.358749 13.87125L 28.26375 16.776251M 11.25 30C 13.211853 33.042007 16.585241 34.878441 20.205 34.875L 22.141251 34.875M 19.23625 37.785L 22.141251 34.87875L 19.23625 31.973751"></path></g></g></g><g id="g-root-ic_code_hs5q77l5bvnm-stroke" data-item-order="2000000000" transform="translate(478, 584)"><g id="ic_code_hs5q77l5bvnm-stroke" fill="none" stroke-linecap="round" stroke-linejoin="round" stroke-miterlimit="4" stroke="#2c2c2c" stroke-width="2"><g><path d="M 25.67 38.036251C 25.66931 38.775822 25.069574 39.375 24.330002 39.375L 12.27625 39.375C 11.537165 39.37431 10.93819 38.775337 10.9375 38.036251L 10.9375 34.6875C 10.9375 30.619232 14.235483 27.321251 18.303751 27.321251C 22.372019 27.321251 25.67 30.619232 25.67 34.6875ZM 15.49125 31.875C 15.49125 32.047588 15.631161 32.1875 15.80375 32.1875C 15.976339 32.1875 16.116251 32.047588 16.116251 31.875C 16.116251 31.702412 15.976339 31.5625 15.80375 31.5625C 15.631161 31.5625 15.49125 31.702412 15.49125 31.875M 20.491249 31.8675C 20.491249 32.040089 20.631161 32.18 20.803749 32.18C 20.976339 32.18 21.116249 32.040089 21.116249 31.8675C 21.116249 31.69491 20.976339 31.555 20.803749 31.555C 20.631161 31.555 20.491249 31.69491 20.491249 31.8675M 18.303751 27.321251L 18.303751 24.6425M 16.295 22.633751C 16.295 23.743153 17.194347 24.642502 18.303751 24.642502C 19.413153 24.642502 20.3125 23.743153 20.3125 22.633751C 20.3125 21.524349 19.413153 20.625 18.303751 20.625C 17.194347 20.625 16.295 21.524349 16.295 22.633751M 10.9375 36.018749L 25.67 36.018749M 34.0625 11.25L 39.0625 16.25L 34.0625 21.25M 24.0625 11.25L 19.0625 16.25L 24.0625 21.25M 30.3125 10.625L 27.8125 21.875"></path></g></g></g><g id="g-root-tx_multipar_zjfqozl5btah-stroke" data-item-order="2000000000" transform="translate(514, 587)"></g></g></g></svg>